<mxfile host="app.diagrams.net" modified="2021-09-06T05:43:32.769Z" agent="5.0 (Windows NT 10.0; Win64; x64) AppleWebKit/537.36 (KHTML, like Gecko) Chrome/93.0.4577.63 Safari/537.36" etag="84IEeKrUJXvhZH69IXIH" version="15.0.6" type="github">
  <diagram id="FUvLWcnANZSJNkZz1BOT" name="Page-1">
    <mxGraphModel dx="1306" dy="688" grid="1" gridSize="10" guides="1" tooltips="1" connect="1" arrows="1" fold="1" page="1" pageScale="1" pageWidth="827" pageHeight="1169" math="0" shadow="0">
      <root>
        <mxCell id="0" />
        <mxCell id="1" parent="0" />
        <mxCell id="pfyJRae29XaRhcZbtj-z-1" value="" style="shape=image;verticalLabelPosition=bottom;labelBackgroundColor=#ffffff;verticalAlign=top;aspect=fixed;imageAspect=0;image=data:image/png,iVBORw0KGgoAAAANSUhEUgAAANoAAAD8CAYAAAAR6LrwAAAABHNCSVQICAgIfAhkiAAAAAlwSFlzAAALEgAACxIB0t1+/AAAADh0RVh0U29mdHdhcmUAbWF0cGxvdGxpYiB2ZXJzaW9uMy4yLjAsIGh0dHA6Ly9tYXRwbG90bGliLm9yZy8GearUAAAgAElEQVR4nOy9ebDc13Xn97m/vfd+/fYFD3gEHwEQXMBNojaTJqmFkkZ0IntsV8rjOC5b1ngyHsc1qZlKZf5wVTIeO4ozSVU8ssoe2/Iim5HtiJJsWdRE4iIuEomFJECQ2B7wgLcvvXf/tps/bt9f/7oBwi47Q8MVnKqu3n7b/f3Oueec71mukFJyk27STfrPS8bf9wXcpJv0/we6KWg36Sa9C3RT0G7STXoX6Kag3aSb9C7QTUG7STfpXaCbgnaTbtK7QO+6oAkhPiaEOC2EOCOE+Ffv9vlv0k36+yDxbsbRhBAm8BbwYWAZ+B7w41LKk+/aRdykm/T3QO+2RnsPcEZKeU5K6QNfAp54l6/hJt2kd52sd/l8s8Cl1Pdl4L3pDYQQPwv8LEA2m7lvz54QKYP/zy8kDOHikp5nBABSSiQSgUDS0/Syv4kApAQh1H5xHPd+BITeT4+jv++AzSBBGAIp5dAf9I+FVAeQ+rz9g8nkaq9BYnADGcuhjfUfQ4PSu8reeVNkWRZISRRFWJZFFEXYto1pmjRbLQRg27Y6jIAgCDAMg2w2SxxL2u0WuVwex3GI44jtnV1sy0TGkiiOcV2HMAgplUrs7u5gmiamaSbn7/o+juMgpcQ0TLq+jxDquoIgQCBwHAdE73n0xh9FEYZhIKUkDEMMw8AwTKSUGIahbq+UWJZFGIYAmIaBZZkEQYhtW8RxjDAMZCwRvftiGAZxrI5t2TalYpFcLothGBx/7eSmlHL8Wo/m3Ra0v5aklL8J/CbA3Xcelv/+/zhJff13+De//D/TbjZxHIfd3V0Mw0IIQafTQQhBoVCg4/tIKQlixUitVos4jnFdFxOR3ORut8uffbXFpz+VxTRN9YAAIQTdMCCKIrLZLN1ulziOkQIMRLKdaTpEUZQ8RCEEQsTJGEzTJIqi5F0K9YAdy04eahRFPT43EYZ6kFLKZB91PLPHFAJQ51PnEsSx6G2n/tMMGiMVg/QYI45jxZBSMa9t22pMUibH09vrl94vm88xOz3DpQtLPPaxH+TixYusrq7y6KOP8uSTT5JzbIhjXMfmvvvu46233mJ3dxc7n+WRRx7h+NFjfPiRR1lfX+e7zz1HJAU5y8TNuDTqLTzDoFTIMTExxsrKCrOjZYrFIlEUMTMzR6fTYnVjHSEE4+OTnDx5Est18DyPUiHH2toalmUxMjJCLpeh0WhQKpVoNpu0Oj6e5xGGgm63RbFYpNVqJEJsAJmMS6FQoFqtEkURhUKBSrFAp9PBtCx838c0TcIwJJ/P02g0sCwLyzYoFArYts3U7BQ/8RM/gWvZ3PP+Dy+9E1+/26bjZWBP6vtc77fr0svfP4bv+7iuS6fTIQxD4jjGNE2EEMnMZRj94QRBgG3bQI+pexSGIdov1ftpJg/DEMMSmKYYYFYpJTGaydXsHkXRgIBq0sfRD0j/FkURkYwJojA5tt5fM72+1vT1aaEAUoJuJmNPj0vvI4QgCGK63RAwEcJK7pM+Tlq40seSUglqPp+nWq2yvLzM5OQkx48f58033+TOO+/k9/7oS33N1hPcY8eOsbq6BsD4+DgvvPAC77nvfv74j/+Yr33ta4yPj7OyvcN7HnwPrVaHbMYD4NFHf5D19XUmJiYoFEpcvnw5eb6NRoNKpUKpVKLb7QJKk41VKkRSEgNxb8yGYWCaJr4fYllWMsZMxqFWq7G2tpZMOoZhUK/Xk/302NOTThBoK8ogDGNqtRpxHNNqtbh8+TK+77O1tcVrr73GX/3VX1GvV6/Lw++2oH0PWBRCLAghHODHgK+808a7VXXx3/zLb2D2boLvh9i2C/SZwnVdZSoAphCYiEQYLMtKBEm9ItTjGRQQzeBCgmnaBEGgtGMQEIeR+h2BYbjEUiAx+q+e2aI1khCiJ7QOkeybHFEQYqCYWwrAEGAq88V2HTD6v8coIesLTjDABEHQwbIErmuRzWYpFovYto3jZAjDvk0ahiFCMjAJJddqWwjTSARY31MpJbVajSc+/ji2AVHkMzc3R6lU4vz58xw5fDvFYpE4jomiCM/zMAyDTMZjZm6OjbV1PvSBD/L0008jpOS9DzzApcuXcQQ889wL2J7NYx95jB/7sR/mD/74TymVRnjz9DlWV68wO7+Hhx56iNnZaTY3Nzlw6yImJt1uFyEElgHnLlygUathCoGMIorlMu1uFylMhGkSdkOiIMIUJo1GI3nOtm0zMjKSTLBRJMm66todx8H3fQzTxnYcwjDEdV3iOGZp6TyxDOl0W5TLZQ4dPIybybG1U6XVDHnu2Rf5yle+fl3Gf1dNRyllKIT4Z8A3ABP4bSnlG++0vdZItXaLjOVSbdQTpnAchyAIkpk1CALFhJ0A6dr4vo9lWcmsFURRIoBaQ0gp8X0f23PxIzUTEkmEiBNmdJwMQRAQhhJpGog4JorVbCeEABEjpUAIdSujCIQwsSxlxiW+RE/Y0ySEwNCTguxrN1DCYJhWyswzcF2XMAyJohjHMRPtHIYS01RjGRnJQCyJe6arFCk3zRDqPIZIJoO0uZg2J28/cJCnn36agwcPcvbsWcIwpFwuc/rtMxw+dJBOp5NMcAcOHODs2bNEUcSe2VkuXrzI15/6KpZh8NM//dN8/gtfoOl38LIZLMug2e7wyrGjxN0OlWKOIAi4/74jmAhKlRGeeuopfD9kcXGRF15+CRlKuqG6557n0fHD3rNRAtHtdtUzDrqJ9ZLL5eh0OtSbTaIootP1MU3ByMhIMsac59LttjHp3QtLUG/VKRaL+FGMJ6Dtt5mYnqJcGVOTuSXY2N5iY2uLu+66i9OnTtPtBiwtX+J69K7H0aSUX5dS3ial3C+l/J+ut602F1xDzWidTgfom0lBEJDJZIiiiDAMCUOlAVqtFp7nJf6X7/uANiEN9LDTGsI0zQGTTZsiWqv0rn1AWNLmqn7AaTM0DiNCfxDISQtc2h8yzb4/ps05vZ02Ff2eD6onIHVuMxEYwzDY3Nwc8OXSgqSvWQiBbdtXmdt6u8985jOcO3eOmZkZjp94jYWFBcbHx/E8j6j3XBzHwTRNnnjiCU6dOsWBAwfodrucOHEC13VxHIef+Zmf4Yt/8AfUmy2EBN/3CYKAYr5AbWeXdrvN7OwslUqF5eVlLl++zFtvvYXrZuh2A6JIslOtEvcuf8+ePfi+z8zMzMDkpa8nDEM6nQ7dbpcwDCkUCgBkMhkmJ8YTodSmfRAEdDo+Qgh831fmZhASdLo4poFnO8m9WVlZUVoVk3a7TbPZ5tSp07TbbdbX11lfX78eK9/YmSG2oxhKSkknUMIShiG2bROGPo5jkc9nEy0XxzFhD5HS2+Zyub5pZBpEyOTBQZ+JNdNpZE3vE0RhD9Do+0hpv05/T/uL6WMbhgE9cCZGEsYRpq2uTwiR+H7aL0kLoWlbiV8nTIMYSSRjwh7qpScYLdjpY2KIxCw0DINI9gGQYR8wRiIFSAFHjhzhC1/4AmNjI8ofRjHqhQsXADh0634uXLiAEIKpqSm+8pWv0A0CvvXc83jZLK1OJ0Hy/s//8B+oVCpYtonruszOzpJ1PdrtNpZhcPvtt+P7Hba3NzEMWF9fR4YRmUyGT3zica6sXcE2bSzLwnVdtnd32a01uHLlCq2OmtgmJiaI4xDP8xIfrN5qEscx65ubvcnUwsnksD2XbhjQ7SrNp/0w0zTZ2toCoF6vJ4DJzs5OMvlooXUcJzmv9iF938ewrm8c3tCCFviKefyeqWAYRgLVam2UBjr8MMSPwsR3M03zKi2YFgYtUFqjdTqdxLfTM77ruuRyuYQ5+04yA76N/qzRRg2AaG2jz60dbi2sUc8ESgu3Fg79SmtRrY2CIMY0Fextuw626/SFZshE1RNI+hgwqKE908YRcPzVV5ieGGNnZ4dqtco//i9+iJe+933m5+dpNpucP38eIQT33nsvKysrVCoVCoUC+d75tUmXy+UoFAosLS0BJnvn9rC5uUmtVkuu6fXXX+8xfMSHPvQQ2WweKQUzMzO88sorEMXKf7Vtsvk8pVIJISRg4nkerpvBdV2EMOl0fMXwhsF2s4PoWQBRpCaK3d0t5eOl0ERtzWiz2HVdKpUK9Xqd9fX1xBLqdDrJs2k2m4CBAdimyfy+eYQpMOT1RemGFjRtOra6neSGZDKZHiNaCRTuhzFSKPPSkCBiiYnANsxEMIWwiCKQ0iDuqbRYmARxlDj12WxWMZ4hElg+DEOa7RbEcsC/SQuU1mhSKs3ghwFhHBEjMSzlJ0Hf1NTaKIoiLMOgG/gDZqPjOD2fI0ggfD2h6AnANE0EJhiibxL1xqI1qQaDfN8nCsLkvmqtrY9jIBidqND0A0zTYGNjA8dxOHToEGtra+yb38Pu7i6tVguAD33oQ3zz299J0L12u52YX/q8rVYriWXtmZnl1Om3yOfzGLZFuVDEsx126x2sXkzy6NGjjI6OYpom3//+q0T0wxfZbJZqtc6lS5fZu3cBIWIsQ7KxsYHrushIUq/W6ba7tLodJkaKjI2N9e5pnIRe+r68ST5fREpJJuMCMdmsR7lcJJvN4jgO4+PjZDIZbNulXK4QhjFra2sD5moYhtR2a4RhTBD0J/xr0Q0taFFKC2kUMA3nC2EihJkIoWYwrbHSEHraT9Gkj6dNBa19pFSCmRYMLWDD2kUfx7DMZBv937XAj/QxNQStSWvpbreboIyJVotihVhKEDoQbsTJMdPQ/1Vj7qGZw8AHsVSIqoi5cHGZjGUSRTGVSiVh8LNnzyZ+1MbGBtlsltOnT+MaIpkc9H0Lw5CRkRJRFNBqNfD9jgIWfB8DgyiCTidkZmqCnZ0dnN49j6KIbrfLxsYGW1tbRL3gvJPJ0u0GrK0pgfI8T00QvUnKNE0a1VqirfP5PJ6t0MMrV65gGCreVavVEkuk0+kQ+j5h6GMY0Gg0iJBUKhXa7TahjGn7XeVemMpPbzabxDEUCiXAwPO8BAWt1WrMz8+zubl5XV6+oQWt01EaLQxDzF42ggYELMtCChM/jJMbrVV92kRLmC1SzGdZViIAaehfkYmUhgpO088G0A9pOO6VNmH1NtpE1ZQWgjSiOMz0tm0n16w1jv6u97eu4QdEkZ8wuaZh4Ut/1yatnhxiJDKMyDk2URThOHbiBz///PPYts3Ro0c5t3SBWw/cxna9QafToVAoKGvBVv6TPn693sQAisUijuOws7NDq1VHGoopBbC8dJFs1uPw4UVuv/12SqUSnU6HgAjDtnAch3a7je/7lEoVDt95Z3JPLl5eRgoBhsH+xf2EAnK5DEHQpV5vIqVg7969iTWUyWTUPYglI8URLGHheA7tdhPfD6nVahgStra2KBQKNBoNQKGbjUYLKWVPsNrJsTqdDp6XxbIc2u0uUop/2IImjH4MqtPp4Hheyp/pM65mHtu2E22mwYW0j6MFYhhp0wijbdsJE/qdbm+27wuDZthrCnJqG33N6c/6XDAoaPrV16Z9gdD/aUHUJm7i30URhmEPnCN9Hn2u9LUM07BWuvXWW1lcXOTuu+/GdV0ef/xxnnjiCSzLotFo8MH3P0iz2SQMQxXP63STey+EytARQpDL5Wi32wC0222iWN3LvJfF8zwOHDjA7u4ux48fB2B5fYtcLke1XmdiYgLTFOzfv0CplOfYsVdZWVmhWCwqP13G2LZNo9EgDEOKxSKgJtp8Po8QAtd1yWQydLvd5NoqlQqdToeMq+KwjXaLbDYLwNTUVBLErtVq7O7WEEIkZnGpVEpih2EY4jgO+XxeHS+TwR+aYK+6z9f99++Z+uAAuG6GarWeQLl6ph8WAM2I+n/N1GmBG4boNWmfSPtpGmlMHxf6Juk7MbD+PS14w/umM0H0WNOClSadZTIcdNYMrn0hfR6tqYevRZ8/fU3pbUulElEU8cwLL/Lcc8/R7Xb54he/yJe//GVkGNGs1Tl98lQyWdm2Tb1e7wXQA2ZnZ+l22/zoj/84u7u7iQkaxzEKwhDIHsNfunQJx8km/uhIzmNjY5soluRyOQDW1zcRQibCs729rcYqlcaRUhL6PhcvXqTb7WI5DqOjo5w7d45ut8v29ja+7/c0Ywm/00H2AKpyuUy5UGR8fBJQ6Xp6XMViEUPCaHmEjOPSbbVZOnc+CU9oXtre3iaMYyzXIZPJXZeXb2xB65l7YRgmAWgwBgQoHVMbZqYgVkxsmiahjAcYH5TZlcS8tI9jWwl4kRYI6JuMCWQ+FDtLx6WGBSYtlMN+3rUmA31827QgVsfVYMOwFk2noOn9tfn3TuczDIMY8P124tvee++9rK+v888/+3O02x3uvPMwi4uLHDx4EMMw2H/bQaRhMT41g2G71FsdpKHAG9s2abeb/OIv/gK/+x//I9lslsura/hRCKZK4jV75mm1Ucf3Q8LQx49i1tfX8bJZSoU8EtjYWOOWW24h8hUa3Kg1kolFx+8MYhq1WpLR0ekhiaurqwkEXywW6XQ6GAaMj45w7NjxHsrZZd+eeVqtFtVqFcPoJRsgiXylpev1Kjs7W1SrOwjLxLAtms0mtm3T6nSQQmD1kibatR1yucJ1efmGFjR6DBX10DENWugYiJ7J04ICfZ9H/6ZiTf28w2FfSwMIw/9pHyydHwkMMHT6nGnB1MfVlA5DDGjBWGIgFKoZhFeZgHpSMU0z0eR6ItCm8HBgWp87ndg8DOmnJx3TNJmdnSWKVHb9k08+SS6XpVwus7KywqlTpzAMg0uXLiGlTBBFNT6VB/jzP//zFAoFPv8bv0GpVMKxLLqB2sZybKQExxQYhmRlZQU3m8FyHTAMxiYmaDabNBoNChmPsbEx1tfXiUVMu91NACE94TqOw05VxbsmJ8cJggDXdRkZGUmC1rZtU6vtKr5xbPL5LMViAcuy6Ha7XFlTAWbf92k2m0l2iQ5cj4yMsLCwQDabpdFoJKlbjUYD2zSpVqvkXY8gjgiiCLc3qb0T3diClgIPgiBIkJ4wDJP0KrVZLws9NWvqzHuVAW9jGHYiNMnhhQmGRYyBFKYKBofdRNNpwdG+n9YmOmcRSOIxWiO9k8+mZ1n9eyKovcCyym/sB741xaiEZh0C0AIbyQAYFKA4jpPzpNFPfQ/Tfh+ALQw808O2PVZXVzlz5gwf/MD7aTQa3HH3XRw9ehzbtsnn8+zu7pJ1PYRpsFvdTTIxTBwCCX/wxS+ysHdvAvkLIciaBq5hIsJejBFJKGMyPdNwc3MbKSVra2sYGIl/d+HCheQ4tUYDDBthOUSGmaDB2axHDDTbbcIYtnfryQRQqYwlwuc5FtLXqLSgXC4yMjJCHKtkhkwmg+d5ScDbsizK5TI7O1XOnDlHJqNiqL7v02g0lEBaCrCpd9pkHOXvuW5/Ur0W3dCCltSEDZFm+m63OzBDa4FIAxzD2RPDmeppptczvzb7tEbSTKyZXCf+DoMb6WOlBVWfW/827NeltaMOXKd9PA3U6LEr6L/vl6WrEPT1aEpr2XSal74mTINms0kmk2FlZYWjR4+Sz+eZGp9gamqKarXKpz71KQxDbVcoFBgpj1Cv18lkMkgpyTs2c3NzPPvss8kYoigiVyjg9eJS5WKeKIpod4NksnMch9nZWdrtNoVCASklt912W5JtkfjMRj9G55gCx7Fot9vMzMyQyeSIIsh6WYSwyOdL7O7WcV0XUDxSLBaTEpfd3V0ymQxG75aPjIyQzWaTLBAd3Nd5pcvLy2Sz2YH7FkWSOAyp1+tEUdQLiO9el5dvbEF7hy4L6cwL6JtlljCQYd9v0oIz7GcNm4dpU0pKo/eSyf5aaNOmoDYr9bn0+/DnYf9tWNOk6VpAiN43CAJa7VayjYEBsYGQV6OYA/fKsJFx3/8bDgMIIRgZGyUIAh5++OEEnHjz7bdotVo4jsNvf/H3GR8fZ2tri1ajqXyiXrmS4ziUy2VarRaZTAbHySYpWHoy7HQ6mAiyrodnqqyKdrtNsVhkfXUVy7JYXVtnfHyct99+OxHg0dFxms2mMo9jiYzixCXIuC6T4+PsbG3hOQ6O4zA/P8/29nYPkWzTbrfxPI+9e/fSaDTI5XLYtk2zVqdUKtFqtVhfX6fb7VIoKLOyUCjQbDbxPI9MJkOtVqPZbJLN5jFNGy28jufhZDyiIEi03fXoBhe0HjDQe9mmiWEoBrEsg6znYJt9xtVaQwuHbdtIgcrzExEY6l2Kvr+UTnvSwmBZViJUaXQzfU162zQamNYkaYYfDhHo3wbMuJSNn9ZQWthNYZDxMgPm37AgSymJ/BhiVe5DLDFMEMag5gZwXRfbVfGqbuBT9wO+890XCGL4L3/kh7Esi8urKzzwwAN4psHk5CTlcplGo0FMiGnC+HiFZrPGex58kFbHJ8ag1ekwNTOHH/brBVVmSkC72STreQRBQDabTdDEPbN78FyHzc11HMdKQgfKH+xiCYMg6JB1+5r9wIFFDAN2d3eJpAp6r65eJuvZNBpVgqBDPp8nm8/j+34SGN/Z2aFWq1Gv13vFmyaZjNJeGcdlc3OTfL7IyNg4nSBESoHnZRP3xbZtLEtNspEfkM9nCf2QkZHR6/LyDS1ohgZDUpopbY5p5zUBPkwDPwqJBUlZBVyNuqWZPW2mDWdVDAvXtUAH6Meq9Of09aVNVT0BXOu60jmU+r/0uYZBmWFENI7jJD1LM2Ma5EmTmqgsWi0VkC0UCri9MEEURfz+7/8+6+vrBJHk6998egBal1IBT5lMhq2tLZWO9c1v0Gi36Ha7CZJXrfYLIWdmZpKgdj6fp1wuY9s258+fJwxD1tZWuP/++1XJitn3aW3bJogCNrc3ewyucihbrRaNRgPfV64AcUy7WWdldY1isZhCf2MKhQKbm5tJO4Tx8XGy2Sy1Wq1nSitfMJfL0Wg0kFL5iG+88ZqKn1VGyOVyrK6uJhpO58U6jsPIyIiqurb+Aec6phk9mdlTaFpaCwFEfoCRMqWuFZsajm0NC13fBxoUOP0/kGiL9P9pYUuf81ohgPS5h/3Ea5mPQII06vOrc0UYhtJelmEmZmQcgYwFSGNAy6ep2WwmSObKygqhHyAjxXAPPvgg9XqdX/innyXn2KoCQkCz08A0HYxeGeOBAwd44YUXGB+fJOp0icOQVqMBxLi2SdQrY1pZWSGIAqSMCOOQneoOcRxTrarWAlNTMzz7/HfZu3cvIyMj6lnHUplwloMtTMYqlcSCCboBn/70p2k0akRRgOc5jE2MMzM3w+r6eq9MR8UHtemqrIMA2zYplEs4GQ/TFDQ7bWq1mspOCXwmJiaYnJxESkEYqxpuKQTtbpfV1VU1kZk2QRARhjFbOzv4YXhVRtAw3dCCRkoIHMdJ0qd0KpI267rdLuVyOYG6IWV29rRK/5CDJl06wK0FRSOa6aDvsIbR50hruTQymQY90vvrMbyTltPHHfYr076k9qP0pKMLTHV2h56ItDmdvh/6vunz66wKjVhKKbl8+TKua/P5z3+eTCbD3lsWGB0dTQACy1JMK4S6b6urqwr8yGWYmZliZmqqnxSNxDIMol46XalUwnUzvXuhMvWllFiGoF6vMzo6iiWMRHPlch6eZxNF/drDmZkpnnzySTzPo1gssry+hZSS1dVVOoGPECptKpvNUtvdTe5xoaD6gUgpEwBDhgFzc3O0Wq2ET+p1VfyZyWTw/ZD19XVlhmaV/9npdCCOyXpecrx/2IKGFpY+kqVTYobLSnQcJO2jCSEIuu1e9kO/AlrKwUJOneWuf0unOulX0tTF6LUu4OqaNP0a1m5pczJBLofM0jQNa7/h7dLjVgIVo+OEhqm7WcXqRYSUV6d8CaHSlJrtFmGvFm1+fh4hBFdW1+l2Y4RlUms2yGazvPrqsV72foRr2eyZ2cPSuSUWDy7iui6WYzA+PsrG1hZnzl1ACjOJWXWiiE4Uke01uCmXy2xu72JZDo1Gi7W1NW6//XbGK+Oq6sI2k3ovKSS77Q6dToepqSma7SZ79sySz2RZWVlDStV5rNZsEIQx4+USGdfF90Pm5/fRbjfJ5TJEUmJIA8d0iOOQIOiS8TzuOXKEOJI4tkvWVelYlquC4PNzcziOQ8Yrs7qxSbPdTlKtdqo7BFGA52VpNRoDk/m16IbrgjVMG+uCJ7/SGvq1c40t9Tbta/xXT31WjL621jfx0jC+1hL6+/D7sA+m39MJu7rEH/rCkM5lTK4kVWqTprSWu1ZwXFO6TCcRfkOAjJHCUJ8jME1lEeg4pL7mTCbD9vY2hmHguR7VapUgCDh0+HZOn3qTZtNPzEvbNpPJJ5/Ps7S0hGVZbL++zf3vvZ9Tr79GsVhkbGyC8+fPk8/nVRZFq4kUUB4dIfBVbEtr9U9+6lM888wzhHHM9u4uBc9VGfVdH8x+ovhYKU+t3sAwIOs5VKs7uG6GRqulJtHePTMN2NjYoFKpUCxne9dRZGFhgbfPnmVyZppgOaJUyrO2tsbBWxe5fPky7baqlpjbs4eVlcu0Wk2OHDlCPp9XEL5sJNrUMAwiw8J1lb921x23s7Ozk4QL3olueEH7bz+T7zGG1WuYYifOvk5ajaRIkkdN01SB0V62iOrzoIK4Oru/n8E/2KZgmKl1gHgYwBg2IYeh/nSRqd5Hv+vPaeBF03AStBbSNOlr0j/HcYwp9BhC0o9Und8EVMB1GKVst5W2j8OI8fFxoiiiWCzy3eee7yGv0O4GPPPMM71aLnVeDUBNT0+zu7vL9sY2+XwRIUw8z00sDsMwaLQ6lHMecRAmKVFTU1OcPreUWCXb9YYSdtNQ/lapyObmJpVKBS+bZWNjg24Ma2trjIyMcsvefVxeXUFKSTabpZTxEL0gcrPjM2EplHR3e5vJyXHeeusMo+OjxEGIIXWdo8GVK6tUKhUmJqZYW1uj0WgwPT3NP374B/m3//bfsbCwH8Ow8P0Iv9PBzOco5HJ0Oj7EMflsltHRUVr1BoZ7fchJguYAACAASURBVD6+wU3HVA+OHuo2jM69E3iQjrUJ0e8ildYgOhMg3fFoOPY2DF4MMyswoAHT+2pmS5uVWlsl+YY9f0lnmKd9t/Q+mtLaNO0XqvGoVC6dKJzOCU2PxXEcJiYmVP1VLzzRbreT4G4+V8RE4Hke/+gTj5PJZHpBc5N9+/ZRbzV54MH3sr61SRB0CYIu1WoV3+8k8SrXdXEzGVxDJLVkupL9xVeO8YMffB/Hjr0KxNy6ZwbXNpNMemkIIGZjY4Nz55bw/Yi7DhzCRFDd3mFlZUU17Ol2VQYQUGvUkWHEQ+9/ACEEnVaLhYUFrly5QrfbZXR0nFde+R65XIZWx08KOzc2Nqg3GkhUiMWwHX791/89e/bsZXt7G3oZRbZtq0C3YdBqNQhDP+lLY5qCjNfP/LkW3fCCBr00J9nPGNeMpeuW0rl8w0ylNYyOjWmYXAMTvu+TzWZpNptXASfD5mEagUybm8PCrjVVWsj0/sOIp94mDiMsw8Qy+r7g8Fg0DYcZoFezJ1KgjSQp8xlGUH3fZ3V1Nfk+Pj7O5OQk4+PjvPz97xF0lHWwW61z/PjxpA4wjlWvxXqjpWbyVotavUWn0+HWW29R/pKUvUyTPKJ3LToArJ/TJz/6GLlcjuXlZUqlEhtbW8So2F6326VeV6a+ftaO45DJONx2223ccccdfPjDH1bZGqD8IyFwhInlWrxy9CheNkulUubFF7/L+uYmhw4f4vjx40xOTqoOymGIiSCTybB//34sy6JUKlGrVtlY3SCfLxKGIa1Oh3a7geMoYVpdXVVhj16hsed5XDx/bsD3fif6WwuaEGKPEOL/EUKcFEK8IYT4hd7vFSHEN4UQb/feR3q/CyHE/y7UKjInhBD3/g3P03s3cXtt5NLlLKZpqj4hvfYDQRwRB2GvhZjEtj1kFCeQeFp4dBGpTlRNukkJa8BcTJuGw/mV1xLstJ+XHkciVCnGF0K1nEtrQV1BPYxG6n3iOEBnsKgWDanSHimBiDDsYqQch7RmHh8fH5iYVtfXOP7aCTa3t1QbO0IcL8u999xLo9FGCAvHyZDLFWnW6tx7z508993niYOITC5DKEOy2Swf+9jHkDIim/UQImRrZ4cwigmCkGI+j2UY3LJvH47j8J+efprQDxFSTQRTU1PsNOrkyiPs1hrs2buXbtAll3Oo16uMj4/y9rmzdAKfb3zjG0xPT9LtBsQY3HXkCOVymXvvPsK+/bdy64GDVOtVhCmYmBhjcXERKSW5Yoml5cvs2zOvADS/w+bWBrOzs1y+fJkgDNnd3WV0fJygly9r2C5tv0vb7+I4SitLy0xyMQ0hCMMYaf7na84TAr8kpbwdeBD4eSHE7cC/Ar4lpVwEvtX7DvA4sNh7/SzwG3/dCTRzpp1+1YyljypqGFsDC77vE0qBNKzEF9MZHGlNpE01Dc0moEXQEyhEkjgM165hG/4tDeenK7mHtVj6NxWP67cXT8Yur34piq4KhCsgBlRvjMHq7fS5NGCjq4F1qCCbzfIDP/ADVKtV3nP/AziOg4hVsm+1Wk2uTTXHUXmAO1vb2J5Dq9VGNcfp8KUvfSlp99ZsNmk2m0jAjyGKlEm7sbXFnz31dfKZLJFU3aV0f4/Z2VniOGZ+fp6/+Iu/Uuan6/LpT/8Qy1euMDUzg5fNsrW1QRRJfvKnfgopJd///lF2d3c5evQoY2NjnDt3BtM0efTRRwllzPdefYVqtUqr1cJ1VfZHsVhk//5FXDfDq8ePMTIygm3bbO3ucPLkSXXtUiYds8bGxvAci/HJSVr1FpOTk8xMTgHguTa2ce3CWk1/a0GTUq5IKV/tfa4Dp1CLWDwB/G5vs98Ffqj3+Qng96SiF4GyEGL6eufQZo8SDgMpB7WF/k91EDaIhcru1prDdd2r0Lt0cq8+hmbEKIoQxJjGYM/GtICkhWtYgNJaKZ1xkvb7BoStdyjTdAYEP/2ePoeRbG/2tFXPZDYshDAHBFubyunf0gKaTBZRzC37Fui02pSLJZ7/7os4nks3UoWTjuMk+YbKl7V47Y3XMSyTyclJisUc+XyefftuIZvNEgRdWr7San4ssU0Dz7B6uZA5PvvZz1LMusTC4PChw2xvb1Ipl6mUy2xtbKgeiVvblEdHEJZNs95k/8IC83NzLC4usr66imnadLtdvvEXX2OkVMI0TcbGVMb+8vIyKytrLB48xOXVNVwrw5tvvMXoqPLJ5mfnkkrpbrfLwQMHmBwbJ+6FeMYnpwcm9zgIiYOI6rYS1HaziW0KqtUqYdjB8lxcz3t34mhCiH3APcBLwKSUcqX31yow2ft8rZVkZq9xrJ8VQnxfCPH9qJdEqvs/aLBCZ+FDv6GO9sXSPskwqpcGLYaz6LW2u1bK0jvRMFChfSP90sdJ5zEOa8E0ADP8f2JapmJypumgkMS+/5kWasPo7zM8Xn1P9CSi69tee+0Nzp49y+LiItmMm0xKGlTR1sLu7m6vClvSbHZYW1ujXFaNVXd3dxkfH1fmFnDPPffhpFpRSKm6Vv3Kr/wKYS8Tf2ZmhkKhxMmTp8hkMiqvsse0u7u75PN5PvnJT/Jbv/VbvP3227zxxhtUKhVGR8d5/dRJmrV60hVNV3LMzc2xd+9e/uRP/oRz585hmiZ33303uVyOra0tstmsgv97TYM2Njao1+sDfrtpmuTz+eQeB71neOutt9LpdNi7d+9AbeT55UtUKpXr8srfWdCEEHngy8C/kFLW0v9JxTV/M67t7/ObUsr7pZT3mz1mSDN0v4FqP5nXNFWruXTWRdqP08zSO37yrstGdOOXdDXAsIObFqg0sHEVMthrgZDuOpVOw0qOl9JO6UlCTxTpbZOUMtFHSuNYkMsVB8IPcTwopO8EwKSvWUq13NTu7i7PPPcsfhiztbVFx++SzWZpddrEUuU2LiwssLS0hCNM8lkPEUsMQ1Ule55HrdZAShMDOHv2PFKqvMtyucz4+Djz8/MYGOTzeaWRvvVNFhYWkFJ1sHruuec4d+4cKytruJbN8pVVGq0W/9V//ZPce//9qDzEiywtX8J2XUqVEdbWNpPmPvfccw/1ep3jx0/w2GOPJa6ELhQ+fPAQuVyOCxcusLOzQ6VSUb5bLodlWdTrdaWxbI/t7Sq6iiPvOiwsLLC8vJyqLFBFpjIIWdy7j+Xl5evy9d9J0IQQNkrI/kBK+ae9n9e0Sdh7172S/1YrySgY3CI2DZVTFpvUm+2BokwA21arkygB8bEsgW2nhmeIa2oL7dSm4XpNw8HkNGw+7H9pph3Wovqa+hrHSFq8iSRzI0w+az9LBdaj1G8R2pdLX68GP5TvZqGyXkyiCNWTX6iuXoNoakQ26xKHPRDFlDzxxBMYPUhfTzxhHGEgcD0bw1IQOqZNs6ka0nSCgD0zs8xOT/PmydeJww65jMvU1DilUgHLsAn9iEaryvT0NB3fp9tVmT3tThcJZLMe8/NzxHHM6PgkhUKJjGOzb98+/smP/xhLS+f53osv8eabb/LEE08wPTvL5PQ0V65cwXVVGlXWs5FRwKWlJS6cPcdHHn2UY6+8ykMf/BBrm2sKijcNFhb2Uq9XKZfLLC4u8od/+Ce88sorhDLmwvIlmp2AlZUVTNOk1ewQxirUUCirivFsNt97vjFZ10EIgZfJsG9hgYnxay6L1me/6/57HRKKw34LOCWl/F9Tf30F+Mne558E/u/U7/+khz4+CFRTJuY7nEShjUCyvpmOaaRrxYBeAFcxrZ7B0gJxLQRv2IyzLCupdBamoVpxp/wZHfDujf8dj3XVMBJtZxANaZX0/v2xDDbUuRZFUUS9XieWV5vA6XhjWiD7JqhqmabKh9Sx/uzP/yzpGqVjfLZtqzbkEUihMvgty0JYZq/RqM3k+DjT09PEcYzneeTzeSqVCuvr65immTTaCYKA06ffwvM8crkcT3zicRwBTz31FPfccw9nzpyhVCoxNjbG6OgozWaT3/ujL9FsNhkdHaXdbvO5z32OarXK4uIi73vf+1jb2ECImMuXL3HfffclXY3fPHkSv9Ph+y+/zMc//BFeP3GCW27ZRxzHvPzyy9x///3ccccdfPazP8PBgweRYUShUEKYJsJ0oKfJdAqb76t77fu+ajkXxWSzWVzXpVQq8a1vfYvTp99+x2cFfzeN9gHgJ4BHhBDHeq+PA78CfFgI8TbwWO87wNeBc8AZ4AvAP/2bnERD8LpC1vfbqutSJPHDmDBWmsc2TGxE0vlWky7tH24Jrpkx7dNBLzOea9eMpbcdZm4plfYwhdH308RgGY6IAkyptdnVCcrD7wMpVr3ftQ+RyWTUZ8NEr4FmikEkVmt77Tv2z9UvbjUMA8ey1Wqave67aXDIMAzuuusuuu02+WwO0QuIX7x0mcXFRV49doxKpcLs7B6azSZLl66QyxV469wSe/fO0e22uGXfPra3N9GpBkEQ8I2nv8kv/dIvks1m6fghr7x2kqOvvMKV5WVc11VdqnKqNd1zzz3HzMwM99xzD9vb27z88stqUYk45KEPfqA3IYAwTWq1GpeWV7jvyD2IWOK3Wzz+kQ/3qgWq/NzP/RxLS0t861vf4td/4wvs7u5SbzXpBgHCEslCg4mrEcZ0Ww1qjRqWY1FvNjFsi067jd1rwffwww+zd/++6/Lx3wV1fE5KKaSUd0kpj/ReX5dSbkkpH5VSLkopH5NSbve2l1LKn5dqFZk7pZTf/+tPQpKxkW5jrRlBZ06nNYTeVpMu+EsLjc491MybNqtc173mqpia0iZgmnSwWNNwUajeZ1jA9H9pAdMCOjxe/Z5GDt9JWE3TTIon0/1VhhOe02NMH8u2bTY314GYU6dep9VS2R/ar/Vcm/X1dVqtFqurqkoZw+JTn3wc17axUU1JFxYWKJfVSp5FV5nphw4dYv/+/fza//LrOL0s+w+89z20Wi1s2+bIXXdx9u23ec973pO0IZibmwNgenqaXC7H5uYm3W6X7zz7PGNjY+zu7rJv3z6VIG6q9nEf/ehHyeVyzM7Osm/fPl588UXOnj2L53k8+OCDHFrYS7FY5PXX38DrYQG6isHzlCtSKBdpd31mZqaSavK9e/diCYVMep7HSy+9lFhe70Q3dmaIYACOT0P7upAwDatqYGMAvpb9spprCYzeBgZBkDTjpTVe0pdEDgak08hiWhgHhUFpHoUa6tdg/ZomKd/pd/W51WolE036Pz1ppLtf6TGlBWp4Ekn7u3p/NXaYnZ0ll1OZHaGME6h/fn4e13V55eXv0Q0Ccrkczzz3HLVaDdvqN6Sdm5tLsi8OHz7Md7/7XSYmJhDAJz7xCS4tLTE9OUm322VhYYFvf/vbBEHAlStXyGQyfOQjH2FiYgLHcZibm+PBBx9ka2tLtcEDyuUyMlLrGBjA4cOH2dnZYXNzk5UrVzh+7Bjf/va3efzxx/E8j83NTX71V3+VM+eXqNVqVEolGq3+Qha1Wq2fQOwHjBTyNGqNBFHd3t5OBFInajdr6cT1q+nGFjSpEofDuN9HUc+oScfhOFbtpIOAmMFAdBpptAxTBYd7LwPVHkBrhyRro7c0UjoPMa29giBARkFvXegI4hCDOHkw19JWulD0WhpSm4dpbWdIsIRAxBLXsjERiBgMqSYe3RRGk6HWB1WfDeOqySKOY7U2AIPmrP6ur0MzjRCC0ZEKoJJzl5aWieP+mm1hGPKpT3ycnc0N3vveB5hbmE/OWygUmJ6eRkrJpTW1/nS3qxDMQqHA4cN3UiyWKRbLeF6Ws2+fJeh0Of7qUWxbFZk2Wi0W9u8nCAJeeukl9u3bx5kzZzh27BgnTpzglVdeSVK4bj1wK62W6qWytb6GH0p2dnZodto0O21c12asUqRcKvD8c89Q3d3m3NmzTE9P89mf/W8YHx/FzWbwTINWVbknxDGxDLENFe657bbbqNVqTE1UmBwbwSTEy2W5sLREt9tlbm6OkZGR67LyDS1oMqlHG+zQqxaQ6xCntFm6x4drmDimpRq6SDngd6TBESlVwxe9n9Z8+j9dDZCuRYNrQ+c6uVdvO+zfDYwrpYWGe46ki0e1iavGZyQaWy/0p8+T1p7DrRPSNJxNowVHt0BIb7+yskIcK6hf38Mw7BKGXUCZ1YcOHaLRaNDo1WPt2bMnaUFw++23U/TcXp5ihvX1dTY2Nvj617+u8gprTX75l3+ZH/jAB7l48SJLy8sUi0VefvllPMfBtW0WFxepVCqcOnWKuZkZ7jx8mM31dV459hrdXm/+tbU1pZUqFaIo4l/+y/+O+fl5CoUCrVaLW/buo1Qo8MhDDzM7Nc30xCSGBNe1eeGF59nc3KSUL1Aul+l0WnieTRh2sQwJcYBr29TrVXKey+WLlygWi+RyucQ1iKKI9fV1Vlauj+vd0IIGCu3S/pIWhnTmhw4ypzPioR97Ms1eXlpvcT69fVqL6TzIpF9/KvUqHeiNwygpSdGUNi/TJua1/K5BxtfQ/aB5GoYqXzOiX0Cqx66PoYWsLxwKztfH0vmgaW08AKr0mvfo+xpEYbIYoaYgCpmdnWV2drbfHs7LEmMQSXoZGCtsbGwQRWod6xdffJHLly/z9tm32drZ4pOf/CTFYpGRkVH0GmaO57Dvln3UGlX+t8/9Gp/73K/xIz/2I8zNzzIxMZGY/rlchuef/Q7ttmo1MDo6SiaT4eGHH8ZCtVHwPC+1ZlqMl8vy7H/6FtXtLfKey4jn8dRTT1GuVPjjP/kjMlmX1StXiEXMQw99kHzP1zNsi8mZaYRQVd5hktcKe/bM0u12+ejHH+ehRx6lUFaTRJSqSHddl9XV1evy8Q0taFIOZjX0f+8z7rBgabJtu9fQpd/2IK1Jhhfm06ZWHMfJOmOawa6VfXItTaW137XyHPV1q2u/ejxpSvtRg5NCf201fQ+GY33aJx2+Pr1t+nvapxve1vM8VlZWWFtbS+6BzuD/F//8n7GxscH4+Di7u7vs378/WZRdl5KUy2W+8Y1vYBhG0s7trrvuAODgwdu47dCtNNoNHMOktrNL1vO4fPkSnucwOanSpSYmJnjssce47777ePLJJ1ldXWV5eRm/93z1AhfT0yqTz/d92u02kxMTHLhlgSgKmBiv8PbbbzM7v4fpyUnW1lUd25un3uotUJGjUa2xvHyFGGi02qr7cBAwOTmZCPTLL7/M7tY22xvbyfpxd9yhxmMYBgcOHLjqPqbphhY06HfAgkFETr9rQEAPJI5jDAlGFGMKnekeqgY2UlzV4VgzauKr9OD5JI6UFnJDJMviSqlyD1XKYYxjCkwGU7/0cdPZ/+nfrwV2WJaZCJg0hOoHj8R0PKTRF74kY5/BqoS02Tic56mLP4f3S5MWSL2t9oW1X+xYBn/x1a+xZ88e3v/+9/PII4/Q7XbxPI+PfOQjVCoVms0m7XabdrvJ3NwM09OTSBkQxyGjxQJ/+Lu/x+7GJp1mk0K5wPFjr9JpNhgfV1prY3WNY8dOcO7CJf78z/88ybWcmJjgzOm3+OC9Rzh/5izzM7MUMlnKhTyGjAkaLd5zz53sn99DFAcYxLzvPe9lrFRmqlxhe3UTz/L4+Mc/zjPPvpiUSLmuy9raGqOj43iOTRyoyTSfz/OXf/mXjIyMcMstt7Bw637a7TYj5Qq2bfOd73yHbhhhud41J9403fCCpildDwa9HLQoIoakeDNpRGOodCUNouiXNsc0A2lK+zjpbsbDfe3VzRxEG9OoJqi4XRirNa+HTceB8WghZVCDKSAjHhBQ7UdpwbEs65rt6fQCEGkTGvr+ZxoFTQvYMAI7Pz9/VVmQEIKDtx3ggXvv4+LFC8RxzJkzZ1haWmJ9fZ19+/Zx/vz5Xsyti23aHLnzLqUtli7Q7Xa5eP4Cd95xBx/+wUd467U3qIwUCcKQZrPJkSP3Uq1W6baaTE1NATH/w7/+72mHkpMnT/Lggw/y+uuvU6upBQ5HR0fIZj2iKGBudpbA9ykW86yvr7N68SxBq06lnOd3fucPMQyDjOtiuy6V8TE+//nfZqScS6wDy7KUCdlzHxzHwXVd5ufnE+vk1KlTeL1mPNpSKpVKlEol1RslHHweV/Hvdf+9QWgYlk+jisMggGZQ0zSRUYRnO5hDAWgYBE+GwQ2tLYch+7QmBHXzTCGwDAPR06rpNuVp7XKtz+ljpdt1u64zMKGkARbdHlwfIx2IT1/vMF2rPu5a91kIkSwGn75mKSVbW1uMjo4yPT1Nt9vl1KlTvPbaaxiGoeB6IZIGqRsbG9i2mSw0UczmKOcLvPXGSU6ePEk+n2didIyx0RFyXoY3Xn+dqOvjuhlaLdXa4N/9u1/lR37oHyUreG5tbeGj+kQuLCywtaXWpVZrmZmMjIwwMTHGWKXC/OQ0rVod14bQ9zl9+jR+p4OIJXtmJpiZnEqsg/V11SX54sWLeJ7STvPz8+RyOUZHRzEMg3vuuYcvf/nLiWaP45jl5WVarRZbW1uJif1OdEMLmhAQyhg/ComQSKPPTMMMGtPvS6870+bz+WTG0v7TsJDatoFpKoicWDGtbt+WNs/SmsDEwjZU1a1tqxVVNCObxNimhUxphCjyk7KWOFYzX4QkFoNgit4+jWSmSZf9pK9L34O04KQrAhLfNJap48eJOZ0OgTiO0w8HGP22eepZqEX5rly5guM4PP744wA89NBD5PN5Xn/9dY4ePUG5XGbPzDSlfIb5+XlGRkZwHYflpQsIAi5eOofjWBTKBYzefV+8bYF8RjVHVZZJzI//+I/ieS5zc3PMz80xMTFFrdbmjsVF6rVdWq0GhUKORx55GBFLDt12gHzOwzVMLMug0djBtVSvy3w2w4/+yA8zNT3G2tYK2WyWPXv2kPMyjI2NJSljpVKJOBbEsaBa3+Gll16g3a5Tq9XoNFuMlks0GjVm52a4fPkyt912WyJoug3DO9ENLWjQZwDoz7jptCYNPmgAIO1zFYtFiENk1EfgBpiPfieqfunNYMPT9Pb6FYvBVncadldMomJxRqqMQqZMxLTmTSOTaWRV9zBRE4JMSoV830/Wt06TrlTQAqbpncrr0xNOOl6Y7p2S9iO1WX7X4UOcOHGCSqXCN7/5TaampqhUKoyNjbFndpY9s1O9dnEqHiaE4Nlnn2VlZQVDhNx/zxEW5vYgjIhGbRe/06GQyzEzNUXXbxMFbUYrZWK/y5N/9IccOXKEl154gWazyanX32C0PILnebgZB9ME2zE59ur3Wdi7h8vL53nf/fdRq21jE2MLiSl9TBMsy+Do0VfY3d5ieeli0pJ8ZmqK7V4X5Pe+972JL9jotvnJn/wpDMPg05/+ER7+0AcZGSmxb98+xsYmaLU6vHHqLIVCITEn/7p2cze0oGnUUWeH6M8JQ8UxMlJB46DbRkYBppAoRRBTr/fbUhsywhL9Nt26y5OOhYAWOgchYkI/QMi+xtQaDkxswyEWIIWJFCYxBoah2roBSe8PywAhI4RgwMdS44hS4+wztWmaqttyr2OTa6nv2vwtl8tDPqMS4EqlkrS5S086SYFo3If19f2M5OBaAfo+DAfeDQNMAYcOHSKOJeVymQMHDiTL205NTXH69GniIOT48ePs37+fra0dlpevMDkxxu7WJuVCWa3YGnSp5PIUPJfJ0UnKuTxf+8pTCExcJ0OhkOMzn/kZWq0Oc3NzuK5LPpPl5JtvAgGPPPR+SsUi29vb5LwMU1NT7Fa3eeDee9je3qS6tQFRjIzVSpxzkyPMTozzve8+Ty7jkstkmBwf59nvfAc/6FDOZ5mojHLh7Jmku9gTH/8oX3vqKSqVMU6ffhshJF/96lcxTTtZ0OJ//Df/mtNnzlLbqSFDiWP+g27OM4iI6Rk4PXvo+FUaVteaoVarJZC0KSS2KfroYKRWKLGEgYhlEuDWx9OMpjVemgnjOEbEg4sUakaNIh8ZdjCkYm6V5dFb5SaKIVKoqNOrDBexvOo9bc7pl0ZBdRbM8H3J5XJ0u92BVg16UpJSIZeGoV5pbZZGdNNo5CBAAp5t81u/90VM0+Duu+8mCALeeOMNVlZWOH36NOfOnSOTybBv/y1AzF23H6LdbjI1MUYp51Lb3SYKuuSzHq5rE3TbjI3mMUXM/PwcxUKWcikPoc//9Wd/yu23H6RSKpLzMpw6+TqFrEMxqwCKpaUlpqamWF9fZ2lpiZ3NLXa2tug2Wxy67UBvElLjW1/fodasqp4ljjJP9+7dC8D2hjIXX331VeJecnochly+dIlWq8Xhw4dpNps888wzFItFyuUy2WyWarXKCy+9lJjaWoNfj25wQRuMd9mG2ddiqGxtPSenAQO9n57dE+TRcpIgo2EYSisZ6Zlb9bNXwVy10J9BTOh3BlKooN9XUWupSOqWAgLVdkFeJShpBk7/lr7uNKCjtZJGP6VUq22mg9eadKcv5ZvFDHQvTvwyHfR31SKMQySESMpkcrmcMkdRvrLtuRQ8lw996ENks1l83+eTn/wkJ06cYHN9lbvvvpuPfeLjPP/Ms2xvbZD1HAgD3ve+9xKHIaOlIuVMBtc0cCyTSjGLiEIcAZV8jrjdpJzLc9vCLVhhzJVLy2xubJDPZThy5Egvjhfy9NNPU8x4FDNZ3v/gg+Rdj4mxCq1GnchvYQuJJSIsYeAYgp/4sR8mZ5nMz00ihKDZbmNakjvuvJ2DBw8iYsn+hb0EQRvpB9y6sI833jjJlStX2NnZoVQqMb9wC7fddpCNjQ1WV1c5fXaJVqOmnmMvBHPlypXr8vENLWhS9hnQMS3soXSo4V78aRpm4vTsros905QGIOI4VsvBisE6sfR2elt9XN0WIE1pJHH4HHB1EF2NuR97SwM5WtCGqwrS2kn7mmnARCf2AgksrVtDpIU+DS6lxypkP3NG38cTJ05w+vRpTpw4wQMPPMCBWxdZu3KZMOywuLiQLG80OjKC2esbMj4+ShyHVAo5PCEpZItMaXXE/AAAIABJREFUjlUo5/I4ImJ6rEwx67K7vUWz2eSxRx5h8/+l7r1+JMvyO7/PMdfFDZ+20lRVl+munnbTZmZ6OFYcjgRyCa6gIQVBIkRq91WCgH0QJf0FqyeKLxK42IVEQQ9LiaCws1yutFyO2fG+x7C7q7rLdNn0JjLcdefo4dx7IzK7u0hxSKF5gERGZkSGuXl+5+e+v+932820Xb9+ncuXL/Orv/qrLCwslAqkB+R5Chg2NzeZjsdIVJ0vSSkJtOKL//KPCQIHD5tMJrz88su8+eabdLttHj16VEcI3W6XArh8+TKbmxskScJgMODq1atOPbQRuZaRNfyHf/9XeP31t9E6rpmer1279ti9/AE3NBfSzSvEWGGRpUROpZlWLYVAWdAIRGHQzBHbSElYam/B6ULB/GarPKDJC5fT1BvZoq1AFqdDrsrIK7zgWQOYD2XPeqGzXvgsmqT6O3AbvVJFOYsEqQQZgFLp8nQzfv7QAchNUYe6ZxE1lXGPRqP691EUMhgMePnllzk4OCDPHb3c5cuXMcbw1a98iUBJAu1hioJm1OB7P/gB4+MBP/zu9+hGDWSRsbrYIfQ1hUnodZqYIiVu+pxbWeLi+fN0W22CIGCh32F4PODcuXMMBgOHBklT0iJnsH9AM2pSpBnf/trXOTg44Jvf/DqTyQhpC5ebCVBY+v0+V688iZKS1ZUVTk5O3GjPyZAffPcHeF7AYDBgf/8QrODpp6/xvR/+ACEEr776Kh/72Mf4yle+UtMx3LlzB4Af//in5TzjlDiOefrpp9nd3X3sXv5AGxpAUWRI6cbvrZgnI7VYW2BMDkWOzQuUhGo/WQAhZkDhssAQaYWnBKGv67ynQl8YcbovVa2ZR6roB8rXsO8m+alO0/mNXXmbs96iKIoydzodPlZN58pjn1XpnK+GAqyvrzKZDE8hZaqV5xbHDOZhrSRNTwt6nA1Zi6Kg1+vN9QoFeZKSG2qUyMrKSl0J7jVjPnT1SX7jN36D8+fPkyQJR3tbeKJgod9mqduCIiGOPJR0KNJ0nNBqhDSjBr5XXi8MxuTcunObRhiQpBO6cYM3fvJjlhf6FGlCO9AsdRv0mxHn186xtLTAq6+8zOriAlc21ulEPiHUfU0nHO+USNc3NvC1JgxDFhaWmExGGAFPXrlU5uVw8+ZNR8xa8oe8+ebrWGu5ePEib7zxBlJqksxpK7iDzfDU008xSSb0++3H7uMPvKEBp8r3nnLkL8JahCmgcDrMOtAUAvxSRKFa0rrGsw78ukAwH2rNYyHnm9hwuo81vzmBd3mWiuagCvvO9sDmoV9nf189bxXanfWAQjjsYaXjPHsPzvAfPHjAcDik0Qhqz/pepf35Qs88eqR6vSpsjuN4Fkp6Gh0FbG6usbKywnPPPcft27dpNBq88cYb7O/tsb27z+/+7u+ytLTE5to6K0tLXL18mQslmr/ba+P7GilBC3jyySsUJuftt99Ea00j8pDChbpx5LO4uMh0OGJvf4cknTAan9Drtrjx+l/QasScW16i3Wxgs5x7t26STkYo5TgilXLX30GrPE5OTjg6OuLRo0d1z+/C5jr//i/9It1Wk72dXbrdNtPpGE8qdnZ22Nzc5Nq1a9y5c4dut8s3v/lNN9EuXJ9Wax+D4WhwRBiG3Lx5s44o3m99oA1NiNnmqHKO+SHO+U0daI9mFIKdaYMppdBK0QhCNBYhbKnMaLB2JgN1Fq5UPed8zuWIWU0N46rew3yBYz5krHKpysPVkwFzr2WtxebFqeby2Yax65GZWr9rHkoFM+8nhGB3dxdrT091V03yeW95Fn5VXasgCOaUL11u5msPT2myxJW1p9MpR0dHrK+vs7Gxwc7ODgsLC1y6eoXvfusbiDRjOjyh2YhpNkPiQBIoiUbhWTdrF3sBnXab9bW10vg02gvIsozN9U0khiwZcXSwB0ITRxGvfuwX6LeajI/3IZ+w2GmxcW6JjdUF4pLAVJIirUFK8H1Nw9OEXsjm+Uvs7u5y/fU3UNbw2g9/TJ4WRIGHKPu0yXgCGF558cM8enCP7d1tOp0On/nkp1xbIskYjUacW1ziaP+AdrvJM888w/7WLs8+9SFODv8Oi8VXaz7hnx9OhNlm1Vo6FuMqHCybrEprlDwtcTT/fPMl7flT/eyJX72Ps7+rVlX1E2W4Ok+VcDYHey/PVt1XhYnzbYswDOpqYPX5qzUvjnEWxTJfOJo/DKrHnO7rOQPd3NyscX/Ve/j85z+PtZZbt27R6/V48803+bM/+zMWFxfLkNiVuL/8b/4fjva3WVhYwNqMIp2itazBAMr3aq7F737r26yem/HnFoWl32oThiGh57O2tlYXbT5XslptrK3iB5KtrYdMJimvvvoq3a4L2Wyekeauilx5TqU8FhYWUL5HmhsOB8f0eh3CUNdNa+1rsmmC8hVra2v8+Gc/pdVq1WKEv//7v89LL71UjgI1SJKMk/EIgNdee427d+/i+z5Lf1ssWP9/rqIoiIIIT3m12uX8JtZK0YgimlFA7PkuX0PQ8AOscaLeCoFGYI0pCWb8WXhW9tOkpR72rNb865zt/s/32uaNeB41Xz3HPD35e1Ux53Wn51sB1d9XP1f8k/PG5kTPT+Mc570pzFoE8+9r3jgrr1sVQ8IwRErJq6++yq1btyiKgoWFBb773e+SJAlXr17lZz/7GUIo3nrrJi+/8Bzn184RhxHWFrTiGGyOKD+brzSNIGQ8HhP6Pr/4mc+iEUT+bKZQADp3h8n6+jqHh8f4vu8oubs9hE154uJFnrh4ie997wfk4xStFL5UeEqhLWgUgQ7wvQDPUy5iMZZer1cLxLdaMb6vmYzGKOHE7D0EnXa77tNtb2/X0+x37txhUHqsoBFx4cIFfN/lep/+9Kdpt9s1x8j7rb8JAlUlhPiREOJPyp+fEEJ8Rzgxiz8UQvjl74Py57fL+y/+Zc897zSmaUqap++aYK42ykIjoqkEcRihhKDVaiFsga8kcRQQlblbxR51VuK2viBz7FVnixSgMOY0IHgeiiWsRQlxyhDq23Nl+bNN98oLVs3P6m9nw6AzuFh10ABlYr8w836I8pDRSKtQVPwk5UHhCXKTIqzrD1ZImormod1s8clf+ARaKrLECX88uHuPB3cf8l/8579Fv99nMBjw6quv8tyHn2M8HLB9/x4vffh5NldXULkrFGTTjGbUQBeWfrNN6Dnt6Sjw+OQnP4kVAitnoe9sFMfi+w4J/+3v/4Aojrh86QLNqEEnDvA9D5nnaDSba+fImLCyssLli5tYK/C0xvNculAYCLRHu93m+OCQQEsajYAvf/nLtFoNbt+4ToB1xTFtiXyPt6+/ibWWz33uc7zy0kucO3eOT3/6kxwf7AOGVz7+UY4GR6xtrNW5H+BECjm9j86uvwmP9l/jePer9T8Av2utvQIcAv+w/P0/BA7L3/9u+bi/dFWepNqARZrRCGanhy4vbppO3ZiItkRRUDIaz2MYTQmHOj2TdrYXNU6m9e15huGz1cX53tx84UFr/e62g5hplQHvyt+q91LlSdVB4PgpSxxiyWNShXjC2JpTpBk1GJ8M5/Sq87phrdScZy0EWvpk2Ty7sXtPi91FDvf2efv6DSfbJBWjyZg33r7BYHDIl770JR48eIAQwjFf3XvI+uIyFy5cIM9zhsMhaxvnwRgW+32UsWg0Js/xsHieq9SFYejEK7TzwGmaEgRBKdsLR0dHzlizjHPn1tlcO8e9d27T67TK/MtpuU2nTuy+kp8KQwdEqDTYKq/87LPPcnBwwEc+8hFarRZXL18mCgJefuV5ijSjSDN8HTjAehjUw6zb29vcvn2bIAhYX1+n1e2wu7vLg3v3ePTgAc1Gg+eeeYZz5845mvLu3yJniBBiA/h7wD8tfxbALwJ/VD7kDzgtcvEH5e0/Aj4nzrqTxyxXyjfvavIKIfCk4zlsNELiKEAhMLnjg+y0YxA5nu+M1ZNzooQl5KkqpVfrbH41824OdTHPNFV9r6qGlYztPIEplFwmnoeEdxny7DNaMIYsScjt7HXSwh0WgfbqOTZrLUtLq5ycnNT9NWMMWkqUEO51yjDTmGwmMyQlc5ErtkTw9/od4jjmtddeKyWsEjbW1jl/bpWPvvIKO1tbtVDh9evXGRwecOPN1ymKgiRPODk8QNgCLYA8c6BepRy0TCmiKGBvb4dut40QrpUCDohwsL1Dww949OgRnue54sMkJRuN+f63v8PR3i5COIH33MKXvvo1Wr0WQeCxu7sPSqN9pzudpilBGOL7mtE0YXNznYfb97lx400mo2MmoyMubGyiLQiZkyZjrHWeGJFz48YNWq0We3t7/OhHP+L6228hg5BWp4cxcPWpp/npX7zB4fExSysrdS+y8m7vt35ej/Y/Av8N1EioBeDIVtif00IWtchFef9x+fi/0qpO6wrpMO+RpO82T+j7LPYX8ANJECpEGYq0222a7TJptpaoUmqsNuQZwz2FsBeAdLwc803g+rXlbI5Na5c7VvnNfHjoSWcoWsi6PTH/mp5SCHuaB8UYQWbdZ5V2rjkuPSQFo5MjhLVkSVIT2lQ5ZzNquANIKBpSI0yOJ90Yj0LUIbLWikAq7t+/z5NPXq4nmbXW9Pt9vvCFL9RzXycnJ1hr+Y0vfAGspR032bxwgdFghDAFNs9QEqJA4qsShK0k0tNYIVheXXNT4nOwt+l06ng/jK1VXpSytDoNer0Oz127ysX1NeLQB6WJophLly6wvr5OmqYcHxzW4zVa69lz+I7KIk2nru/VCLl06ZLTaKhgcyWOVQlB3Iz45V/+ZV549jn+/M//nNXVVX7t136Nq1evUhQFzWaTP/mTf8Xu7i6djkPyVyiUe/fu8aEPfeix+/fnoQT/VWDHWvuDv+5zvM/z1moy74IHiRlnh5SSwPeJPI1XOHyilTlRFDCZjOqKVZ6khJ5PqDSh5yZnK+EDqd0GcAWGKoyahXNSzpiH52FbFaXAfBnf17LuYWkt0VrWDfEqFzyFjjeW0Pdd473ISoS+xZNOnN1kOQU5TT9EGTeaM0nHJUbT4AUBg+GQw8NDd23KHpwnFVbOKAjCIKDVbBJKZ1CScmBVOXZnmxd1ePnTn/4UJQw7JdFMHEZ8//vfp2JGbrfbXLp0iZs33iJPUlQY8M7t264afDIkUAJF6dHzBN+jBBtYsqxgNBq5aMMYhBH4yie3kFo4HByjbc5oeMz+1i6by8sc7e+wurzM2soSWTZlMBgQNWMuX73Exc0N2nGbS1evEAQRUbPl8rRSBTZsODWYLMt48vIVFrsLXN68yEc//KITVWx1aCiPhqeJwwBhLNPBmG98/ZtIIzg4GvC1b3wDpRRv3bpJd6HPhc01sizhYx/7CEHgwsztvV2efPJJvva1rz12X/+8lOC/JoS4A/xzXMj4ezjdsyoOmxeyqEUuyvs7wP7ZJ7VzajJy7uSbV3tRStEMA6JA4Qe65IH3kcDJychxwwdhraVsrWU6nQLUMbzv+3WBwjW0FUKr2lNWa57/4yySAmb5T+VprbU1z2C1tJBopfC0JvDdxLejI0jqz5OlKXEjJJmO67+L/AAtLJGvCaRD+yu/nCgXgsBzvUMr3FBmHMcYAYGSYAs8LSnSCZEWiDyh12qgi4xO3MBDECqN77svB6I2JYTLnfQ7O4/4yU9+wp07d7h+5x0khq//uy+x1GmST4cstCIuri7xmZdcvpNlGdqzmCzF9zVCnGZdTtO0Rq5UP1ejJ61WCys8er1FfvEXP8vzzz/P+fPnGY+nZJkhy3OMtdy+c4fBYMB4lJKllueeew60Imy2yGyOMRA0WxRKIMqKppvhS+j1OqyuLjs6OVFQFO4zt5tNoijgZHiMUoKNjQ13EHuarCj4zd/8Tb7yla8wKUUJiyJjbXWZbrtJ5HuMx0Nu3rz5WGP5eSjB/ztr7Ya19iLwnwBfstb+Z8CXgV8vH/ZbnBa5+K3y9q+Xjz/djHqPdTaNqzZ8tamrjnxVWPCUqOeD+p0u0+m0RuynaVpX9ypOfwChT1OEn2U/nkdqnA0zK89XFDNDrKm4La4oUL6mMO79CsD3PHypUOV4TKQVzcB5uHoQs2ySV/mMBPecQkDh2hQCg02mNISg6XmIIiXSClnkXNpcK6uBOYudNu0oJPY99zpZykKrSSAkgdL4OkBYwWg0ptWIEVbWFGpxHLPYapLnOdtHI6bDAf12i3w6QlvD0Z6T5NXSHQ5FlhF46tQ1rHLSoihqFc1qkLX6H+dI/CBge3ffUXfHDdZXV5DCoKSHkh4/+fHPEKgaKlY115VSRHELIyQiCMhzQ1G42bkqNx0MBnzta19jNBoxnab1QUthaIZOz9rzXM/yiXKU5saNG9y78w6BdqHoL/3SLzEZjbh27Rqj0cihaIz529dHe4/1O8A/EkK8jcvB/ln5+38GLJS//0fMJHcfs94tqAfVqH4JApYQlXK77r6MpV4XpS3tdtOdlGXx4XRBoIzTOd3krV7rdIVwFkoakzNLSU/T3NUerzDloKYhCDwgp1n2bpQSLPU7hJ52X0HA6uISGxurhGHophQ8r/ZWQhR0OjGBVix0O8RBiK8EYeCx2G0R+QGBFFxaX8OmCSv9Ht24yfpSn+HRAf1WxHK/zUKrwdXNNT75you0PY9nrlyiH0csNkIWm000Bi0kq4uOiNSFlIokydk7OKDVadHvtPntL/w9WnGDB/dus9Bu0lACrV0f0m14gdcIMCXJai1bXOJU0zSFwjCdjmvkvBCC3EDUjGn0+6yurxE0WnjSY5pNyEsaCysF23u7HJ0MyEzB/sE202RC0IiYZikiDMHTJOOEonAH1oMHD5hmKTrw2dvfZ5pnxM2ISAkKa0mtJM9TiizhD/7X/921NB484P79+zyxscna6iq3b77F1sP7fOZTn+Dk+JDPfvazDAZHxIFPI4rYvXePZuPxfbTHK1z/FZe19ivAV8rbt4CPvsdjpsBv/H98ZkDiBARmsKdZUaKkCMflSKHns7uzT7vdZDwd0WiETCajcobL/U2RZBwdHSF9h3KPtEeGPYXIqHTVZmV9dzprIcmMQx4ILAJQWoOtyIHsLMFWruXgHuuKNToom9JC4GuJ9TwWF/sEnqLXiXnw4BEr/QWm29sorZECllcWSSdT0tGQc4vnORoMiLRHO3Y5yGo3xkM4NPz0mHMbm+xuPWJz/RLCFHhaE4dRnbgHQcAtk7C2vEGWJKwstHjnnXc43w6I2x0Kqbn1cJ+imOLOj8K1J5IpK8uLpCcD+s2Y559+itATSOOGWq1y9GyTScLCQoeKzbg6KKvDMUmymhohTVOE9EErpFWM0oyFbo93br5Nr90hLXJsniGsJAw1vV6PjY2Nuljz4ME91tfXEdojmybE7RYq89nd3afdd0KBh4Nj7t+/z/nz59ne3mZzbZ2l/gJH24/whST2Asaez3CasLawzEme85GPfITbd+6wvrrChUub3Lt3j0+8+nEO9/aZjMdMhiMO9/dIsinWCtq9LoPBKQ3Od62/EUP7W1tlmCS0JjWGPDc0ghno1pgMk+UE7RaedIbRbDUojBMeHwwGJElWGmVOXqT1P995rBnSwgn4OZ01Y4qSlkCghStmKExtrJ6aIT6EqHpx5YhNSRWglKrJgcLAI5mOacdtpATPC2Ayotls0Gm28AON52kWFxcRQtAONIvrq0gJ0yxnaA3PffwVkiLn6HAfrWB5oYOnBCJJaLUa+L5iqdshOznmhaevMZ2OiHRFaW5pNtwgZ56nvPzCMwynQ4ajY/ICnn3qMgWSNM3ZHZyQJ5NSB81Bm568eoV0PKGhJCf7B6x2WqjCw1cSLywnue1s2DVNK5LZahKi7GMKly8VWLK8QPuBE/szs7x399FDR+edTFlbW+PkaM9NHPgR3/vBa5xbXaXX75AkE+K4RZJkpOkAJT0mJxPCqEEcO0+ZlhFGt9t1lN+ThEuXL9Pr9UhGQ5LJBIHhZKLoLJxjKjXxNEULw8ULm9y9e5fJxF2LyWRCFAW89OILaCzSSlrNDg8f3meh1+ITv/AR/vV3f/i+W/mDbWhzq4IGVZtYa02WzObHnFaYR9xokRVweHjM4GRAu9uvT/NGo0FykuAHEbl12mpFmU95FTmpKL2orZiyvDK8cZeqwOVUFb1B3WwuURnzp7grfnhAhdOcuNK/ckJ2qmz+ppkkD33a3S5HR0dEgUfoa9rdLvvbeyTW0CgPkiBwNHq+MHSbbZq9vvPAGvI8Yam3hDCWRuwa061moy5GKK1rUtl22EAsWHQYkEyneFJykgwpsoQimbKysszd3V2EgYOtbSbDE94kZW1hgSIbo7R0DGWjUdmDMgjhQuP56wIghEOiGGvISkUaoT0mWYqSHpnJyYqiblxXsKu9gwO0LdCBT5rmdLt9VlfX2ds/ot1u02g6bv9bt26xsLCMMJJ7dx/U4zqLi4vkeU7UaHJ0fEIcx9x65w7PNhrIkihVBSFrS8uM0oSGp9k7PGY8HLK2scHzzz/PeDxkf3+fnZ0dNtbPcenSJaSF8XjKyvoab775F0xGx9z46c8eu38/2IYmQFRkO+UMmjEGKQRWzG12ZlW/RhBzODhgdHLCQq/PNHVl7qr4MR4P0Uphc0taDkDWACulyK2p840o0uRpjinzel+4Bu98pbFaVd+sep3KsNzYf+KIbCYpSgVYm5FnYzfKoRWNMERYw+RkQK/VJNTOa9568w2eOP8EMpvSaDXxsoylhR6yMCy0YpxjLfADn2Q8YqXXQ4kCz1N4XgPrW0Ynw1Kj2b1XIyRJlvFoZ4vlXp9RmtCMfKwVdOIODx7s8OGnLiH9kN39XaLIp90MuXL+HMuLfVY6TSwOS3oyHNZ9q+qaaO0zHrsClNCuUiqlIC2gsIBWCBTGWorcgi8pigwtJWGjUaI+pnW4udDtkOQZOtQcDg5ZnvSI4zZZZni0s8WFCxewVnIyGtBotEB5PNjaQWjD+hOb7Ly+R7PZxA+bvPHGGzzzwvNMkoxWq8WoGZfREZw8HLG22APp015cYOvhFg3f5ctL3R6fevXjbD28z+79e6RJTpIkHA+POb+6wcHOFoeHMyKo91ofeFDxWbIceDeRTNUg1gqmYydptLKyUs9VKaVIS4bZPE/LgsZszed9ujTuQFbN7KJuhldKKZVRzYOHq3B0XpGz13P0aJ7nEXo+nWYLSu8S+BGh54TtqvzQVSctnbJwsrKyRL/f5dKlizX0yVeCpy5fIQ4jGkFYy+GGYUirbGdUTe8qfJ3nfSyKgmYQsrl6jkajUfNvBFoRhz7T0YheJ+bG9ddpNQO6zQa9uMHG0iItzw1uanVaWKQovdHJeARK1kzRmSkYplO2DvaYmhwjBbnV5FYwGI4ZTMZMkgSlPNrtLqPRqB4HWl5dJTeG0XTCNE0JoohGs8nuwT47+3uMkylBFLF/eMhgOERrhyyp2JovXrjEN771HZbPrRPGjVp7bXd3lzzP6fV6xK0WjWaTuBWz2O+6IpOvUdKyurTI8fEhoa85Ptzn5lvXGR4dYtIJvgc/+N73ODw8ZDg4QpYY2setD7ZHwxHdGFMJ6jlYkqc1RZrRbkQoO5PPdUN5mggP7cds7ewReBo/jFjq9Tk8nsFkpBD4woU/ouqlSYXSHibNaDZjkiJFhwFWKjrNmOk0nZNRUqiy9O8gSznZHC1ekeckeUaeG9rtZtkKcNO/FS1B4c9m64pycsDkOVIql9zHMVkyqYlT2+02lXC857nQJ89zWmFUs3h5c2o3AlCS+mBRUiI8lye1ogZJmtIMIxc6K8XR8JBPv/oyqVV0Oi0Ka3nluWewaUIoDFEUY3HN/bD8zMCM9kBqHm45Zqk8yUA44hrPCykKRZKMORlPHdmo9NDaCSq21/vc337oyuzNBkKomoQoyQqiKGI4HAOSo8EIL2iws7NHHEbcu/eAtbXVGkN5cnLCZDKhv9jj2tUnOT4+xvM8h8/c3sZKV7TRWtPpL7C7u8vq0hJ5mpJagxe1GANLS0tEcUgyGjMsK7zj8ZCrVy/zb7/0VYzJ6bZitqcJb775Jpubm4/dyR9oj2atxQpBbtzAZVZkpYfLUUqglV8iIMCUuZuVlsCPGAwOWeg1WV3p0A5B2IwiS9GegzNFvoc1KVIUKGlo+IrIkzR8j8ATSGnwPY9Qe8RaYtIEzzME2n0pldMKPZqBxqOgEUpW+h02Vha5eH6VzXMLbG6uo7WsBR+iRkDQ8ChMRhB6SE+zs7PHyWiEKEWm09ygtU+z2ST0ZpjJbDrGk9BpthzYmBwVKJQWZeHGnMKPz8+mVTCxqmXRaDTIyzxKKoVUisgPaDUiFtoxjdjDw9JSgrYPS70OjTiEksZBIVw4F/hMs5SoGZOZAqUFi8sLTKZTgnIiXCifxMDEWoa55da9++wOThhnOWkhyEzB23feIUeRWni4s8uoBHb7vqsGTrKct2/dZjxNsMpnmiYgJXvHRxgBw+GQH/3oRxwPjzg43iUMQ/r9Prdv32ZxcZHV1VWEUkyzlBdffJG9gwMePdomMxY/CrG+z9LaOlGzy8LyAq0wAJOzurhEOplyrt9nf+s+m+urHB3tM5lM+MSnPsXeIxe66jDgU5/6xGP38gfco81tFFMg5NzbNQalRUkBPqHRbCCUIsszAi1ZWVpgMplgM4m2kFPQ7fdoHh4zOB6ifNfUrVDeWiva7TaeEhRZRugrkB7WFiwtOIUUKamZgq2QRJGr5I1GI3IDvifI84QsUQyHQ8IwZKnXotFqOjTDcIgxjhhVSknQjOkuLzNOxmjthM4PDg7otFrIsqc3HY9ZWFhgnM7YcIs8d434RlxfI0vZDJHzcr6nWbmq+4qiOEWtXjXw2+020yzDFoZXnnsOX1sage8KR9mMPRklGQ4G9Hq9mn5dSsl4PMYCgR85FH4j4nB/nzSqMULAAAAgAElEQVQ3JHnG2toa65ubWGu5/tbbFFnOJz7xCV6/cZ29vT1XVJGarBDcfriFtQWNICy5OV3EEmjNa6+9xpVLVx2Rz8IC09GwFnmXOBzrN7/5Te7evcujR4+4ePEirVaLp59+mqtXr/LW27d58GibK1eusHt4QE9pjGe5fOUJDo4GTnCxcOiRZsNDmIJnn7lG1OowTVO6/a6bbWs2ufn6m6wurXL//v3H7uMPuKFZKpE5TyqSErIEUFhXJIniCCUsBpd/xGFUaw1HQeDUP8IAaS3HRyesLy4wHAxQtiBuRiTjCc9eecIZhqfB5EyKjFhrWu2AZJqh0wm92Bnk8EQS+V08T5JjURZYaCKkxOSWR1tbiChiodFAltPFcTMm9p3RFtZycnhE3GoCBaOTffr9PkmSEAUeSwsLDI8HeJ4iCgJarZbD7oUxFU1BZi15Zsgzg/ZcoSf0fPJyXs1i6lk+OYdmcaNDJSi7MkQBxhp8X7sqpR9zsrtDHMeEoaNYK2cUXBtECrJS7+zhw4esrq4yHA5dHhqG7O7tQdkqSScuTDze3sYIuHv/LkI47siVlSVyY/iTP/vXdFsuP9OBzyTJaGxv1eiRa1evOH7FVoswbHKwu8fy4gqNRkiSJDx4cA9hLBcubLhS/kqb3d1d4jjm05/5ZO3Fv/6Nf8fzz7zIm2/cZHNzk5tv3SIIGmysn+foeECv08EYw2hwxIeff5YHWw9YO9dneLSHNILIV3S7Xb77/R+xsbbG3t4RkfZotmMaecbewd9hkYuqz1UhrCte+Gq+LLcOeVFBoSrUu6uy6RqA7HkeodKsLS0TBG7aNw4jQiFYX1kk8gM6jYBOw6fXjljoteh047LBq2m1QjxhUFhC352cSlkCBUpZtAbPGCJpOb+6RD/y6TQCYg3aZiSDI4pkjLIZoRSEyoWocRDSihqMByeoMkdbW3P9s8pTRJFPOhlRFI78p9qAUkru379fj/xUG+rstHdlZBXGsyosuXBS4QABgmoKHNw8WZXHnJ7Xo5b2rV6jkt5VStWFDGMMaZqyv7/PrVu3WFpaotttsbKyQqvlQt/j40P29x1Fm9aa4XDIaDTCmJzBcMB4PGY8HnPv3r26XXLjxg32Dw9qmoGtrS0ebm0RhiE3btzg+vXrHB4e0mg0WFle4J3bt8nTlCLLuHzxMpNJwmAw5I03rvPbv/0PePvtWwzHY65evUrcamGMYX19HWWhFTW4f+ceiwsLJEnCaDRhmoxdnnlyQhg6Cr5Gp8nu7i6f/OQnH7uTP+AebTZ9nEwmIGekqQ597uFrHyk0UsyoAobDIa25imOWZVAYMusatv1mRKsZ0Q0Ui/0+opiUDWlXNfSERCPwPY2OGq7qKDUoSai9U/mPsQYlBUoLDKCKgth3WmxpKvDigLxw+YYp5W9751ZqdL3wPVQzZpqlWGuw6ZRuHJEkOc1GSJElBGVTGJwBhmFInuf0+/1TuVc9wV0ma5WijUO7eKdm61wTXlAIMKYC/9rZtDflRHeZ34Wh5mg0pOEFnEzc0GW3262JY4Vx3C1ZmtLtOqREr7dIf+kchbUUBSRJxt7eAVlW8NTT19jd3ycIYnw/5NVXL/Bo5wFJ4nLS3d1d+v0lFJbhcAjlAdFutzk5PuKHP3yNjY0Njg4OGI4Oa422yWTCaDTi1u23WVlZYXV1lYODA7rdrgMnZwk/+9nPsLZgbWODR4/us7q6zuHhAIyoK6qeF7C01GVweIQxOaPjAWtPXCEKmvzpv/lzPvfvfZZmIyayHq8dn5Al6WP38Qfc0GakMQY3yCj9wAlAyFlZvkKua+lgT51GTDpNUMqnbB+VYnMHtENNZ3MZX2km4wG9WFEUkjyXdem+8IOatkwYi7DOiIQp9diY9fOkAIwlN1WT1qAUCGPwQg9jZizDVlqMKZDW4mmJa2QLFxIGDolCPsFKQRCAMQ6VUOQpk2lOu9XC8xy9t5ISGYWcjEd0othhNgXYwjoC2Rq3WfFDFlD2tCjyskoosdaAtQjhIcjBCpQQJNVBMDel4Nolps7nwjCsx4SmWYofhSy3mhwcHJOmU+I4JDEun1RakU7HCFsQRwHf/fa38EtoWNhoMJwMWVlcYnB0xHQ6ZXVpETBI6UhOK3biBw/usbq8hO/77G4/4vj4mKcvnWfl2Q+xubmJKQouXrzI1tZD2u02b/7spywvL9OOI9p912555ZUX+eIXv8hHPvISShiiyOfevWM2NjZIsylBGDFJJ1hbMBgdoW3Ktac/zKO9bYbDMW/fuMNLz+9ijOHSk0/xzDNP8/GPfxz4n953J3/gQ8d5PeaqNzRPka2UcuMh1VxYidT3gwDtSZLptAxJDFEzZqHXo0imDpTb66OwdSgZaM+hPjjNIFV9rzbvfFhWhWFVkWF+zff75r2JEAKURGg3Oya0Qgj3hdJlGOxhrSjB04IsTbF5UbIBz6SXoigiLfIavFuNphSFg0uf1bOep9Cr3r+vZvwp1eeu+lHV1yzPm0k6GeOa+75yxapG4HNydEgU+XS7LadRF3gMB4ekoxOy6Zh2HJHnLofutltcPL9JK4452t/j5ltvMRgMGA4dPKrT6tT4xvv37xNFEUHZryqyDJtmLLWajEcjssmUwcE+vXaL++/c4t6dd3jn1lucW15yOmnGcmFjk3QyZf9gl2vXrvEv/sW/4OIT53nn9m3Orazw2g9/SJY5LOby8nJ58GqCwB0IP/r+D8jznFdeeQGFIJsm+NoRRlVjWO+3PtAercIRnuK0L3k/hIUic+oplgypAhQubHL0cs5AgrjpRAxxg5XWOsOI/IAsSzBCzoYRywKB9Fwj1pMKY95tWNU6S6twNi+Sc4+bf6y1jvy12sCihiiDEQKFRCBKjTUJgrKH5h4znjh+xel0ysbGGtJCWmqbZWbGkuVgYEEZUlcC9rY0xvIgsVW10l2bColjTIFWCu1rN0eWlj1K3yP3NY2y0IM1ZGlCv9Mmz3POLbvx/mmWc3x8yPB4ymJvCUFRvu+E5V6fOIzQQcTRYICwOU9euszJyQn7u7tI4RiphDWYfEoyTYkDn8loyMWVRbpxxHK3i7UF3W63BAi4vPzR/XuE7QbPXLvK8fExJ0eHXL58tfRuf8Ha2hrHoyHPPfM0FzbX+dKf/VteeuklRqMRz37oGjdu3ODK5cto5Yo2q6urHNxL8TyPV19+nj/+4pd57pmnySdDpuMhe3tbbG095Nvf/sZj9/IH2tDg3bTVLmSTdS5R4Rx9LVHKwanO0sUJ6zSlo9Bh5iI/QBinOGK0RNp5wlThOPd59+lfFSHmyVXnDevsvFoNfp77HJURVAl+9VyqbF1IU4aXSoE1uPCpJNIRDi/YasV0mnFdqNDBTNRCSV1WFUH5DurEmYNCUEHb5giKmFM0FRIow+hyXCbwDEHggAFev1sOz2rS6RQ85a6/UI5qG/C1mwccDwdYUZAWuSM5bXjkWUIYaJLpGN8WRI2QdHzI5kqfcx2vhG256xFFASaLGDcc50sUBQSeIp0O8byA4WDguGCUQOLTaPh42h1g7XablZUVxuMR29u7WCk4Pj6k1e24a9jpMJ1OefjwIU899RTf+9732NjY4PDwkIWFHjdv3nT6AiXKZX/viMlkQDtqsH24T6/d4eDohElmOH/pycfu478DhuZyl2oiOs9zjCzDldID5SVZDVagtENITKfTGhYjhEJai8kMvqooCSpOD+toxXFthNnrntYpm4cw1SHiGY9WVUjBldXzwiX2wgosM2GNqjInpeMPMda99gxWVr2mLcPHAq0FGDduYwvjxA+tBWHIhcHX2l0fkwM5jm9fvcvLup6bQCl5yjtXRaaKeqHux/k+CMGEEUrg5ICtdPmpUlBOaCNBColfComk6RRhC4LAI8mKmrTIHTRFGXYWhC33P4qaMel4gpQ46jbh+PCHx4MSZtcop7ZFnXPm+RTPi+i1+xzsH6C1yyNFkuE3IQgipJC0+gusLS2jg5DhcEi/2WR6fMKjnW2evHKFt956C5ulvPzC82SmKIHeGSurqzRbLbaEU6np9ZZ5YuMiwmQo6a7Vm3duopTl+9/99mP38Qfa0Ob2cCnGLhwcS86MDApCQNoZfZo1p6WW4DTZ6cri0sxY5jZg9b3yRPO3q+eoizMlj+Psvc6GUitvVaE9oNyYlQep3nkJiJbSTQtU276wFlFutCrUde/BjZooXGjnjNecMlxjEoe3LKcJTPm6xr43sVB122CIIje8WOWRtSe1FiFcIzgtHKC2Mhrf98mKUn3VmDpE1daQlsBgTIEtLKYUWbRlHy/QXvlZBUXZiqk4LB2prUaV8DpfO+CBKTJMpgnDqBR2t6TplF6vU1ZHw/r6Z1lCp9OhKAxRFGCFZWdni4WFBRpxzFNPPcXOzhbdbpskmdBut9nf2nZCF1LiRyEH+/tIzx3O3/jGNzAFSJkTRJonLj7Brbv3OR6PkfLxip8faEODOSqDwjjiTTszIolL5JXyAONCQAuI01rWcEacwrxbl6wKwyrUOLx7errqy1Vh2ntVkowxNWxqtpFnnrKmRph7fOUF69Cu+pyAwJGvFrYaQHVTzPM5ny4NsZqPq14DqD+PNzddLjgty+s4U3T9ubIsc5QLpbHlRVGLD1bA6up6UBhskpY/G9I0pzCmzH9n+anJC4SZXdN5ddK8jASKOQo6aw0WS1GYmnQIIIpioigoryVo7c24LoWotRQqCgv3v5BMp2OEcBjSPM+5e/cuiyurdFttDg8P8bSiHTcJLzYYDI7QQUhUhBztH3Cwu8elq1d4+GCLJ69cIh9PiaVkcnzM2toKZj+oJZ3eb33ADe00P4e1FiOVMyybz3ShbYEUro4/Tww6X+Wb7zUV1oAUczwhrjRunAupw8Z5w5tHV9T0CnObdT5Eq6qhlWFWYdn8UtXnOTOdUMGpqlxq9mcz48ktcx7MME2neMorK5Elf0kloSvA8zSmmCnkzFdUK7aueqavrGbWpKvCINRpWnNjjZsuLjLySVbrHEyzFJAU5WfKykKSQ/g7I8w4HZJX13Ze5SczjsDVKkeH1whDTJEThj5x7Iws8H3AIoVFeRLPkzXxbBAEhJ7jeURK4maTLE+I4yaTyYhWKwYJJpvSWTyH1g6wPZlMuHv7NqurqzTiBnt7e/UkRqvV4vOf/zxJOiHyPQ53HmFETp5OkSjS/LTc8dn1ATe007Tf7rQvG7DKSfPMj4DAu9VgzhY0quepEBXlPfVJXk1IV2HivIHCzJCDIKiNZf61K1blx71utdnnCyTzVOf13whRVgCd9nX1+a0pkPLdTMhni0DV8+d5XvfWqs3tSvnOoHxfgypF4XXVSqm85pwghrRl+TvBpBl5kpAmU0wBFqfRnVtTTzEYKiMrnKcre3RZlpOZWb5a/7fLSMSTjujH9xShp2kEPoHfRJYs1EHg6MHr62osynMG2Gl32dvfgbBJkk5odXoUeV5zeQohMFnu8KRScnx46K6PdH3UC5ubHB0dYYTk+PiYVquDUoqvfvWrNNuLXLp8kYf37hJ6IcuraxyPUk7SXT7/+f+Af/mtv8MT1rYq5yNOVc9AYG2BKsvS1lqkdQiF2nzOeJHq9DRmxizlDCyvT9kCN6CoKUPD0ihqb1UCcp0xzyvDuO/zkKjaK8x5yHk9NjhtfJWxmDnDhLKIIk8zG3uqyrOYO1TyslonsCWjsZTltKqafQ6lHNGNVO7AsNKRv7oZu6pY4563yDIc+bCjz06SpP4qioK8LA4VeWlUljo0N1iKwtZEStZSq+Io3Mxa5TEqOd5Ae0SBa9W4/qJrN0gl8LRfz9tVYiRCuM9XFZumScLmxgVHzKo6WOnytuPBAK18Ou02eZ4ihMULQyLfI+g6pdHDw0NMKRrfbTUdImQ0Yjgc8JGXXuTW/YdICZcunC8lsgR7u8fEccTezuM1rD/whiasxfc8yAvSLEP6MxGIWQg093gh6oDzveBJlQcprMFkM13r6vlqA7HGQb7kjInYGIMfxUiqcREnXl8w34JwMkaVx3IGAC70O60EU91/lulrPgStD5bCycbmlRHaGXf/vEesmshQ1lHnIFfV4woKJBKUJCdHCYUWGqlOU/vN54sVfjFJkhqHWb3H6qsoCsRciGvzAgy1Sk2az/qJoiyGaOUKN17gBmSFtY4PPwrIywa84zpxfUKhFUWRoZQgCErSWM+j0+lxsH9US3c1Gg2Amt6u3+9jjXF9seMjzi2vOMC559UT3Y1Gg8kkodvtIoGVxSV2TMGVSxfZfvSIpX6P0NO89eZ1VlZWuH77Js2mz+LKOV5/6+3H7uOfy9CEEF0c7/6z5f/1HwDXgT8ELgJ3gP/YWnso3O76PeBXgDHw29ba9/e1AJzuoWmtwRqUBO1JvBLFUd1vpaBAoOSMm1Fax0WfWNcayK15V44Ap8dLPM9z/B/SghEkFjw8rBKMUkuaOcjR3UdbeJ4gmGsKS+k49iNfEJU6ANIalFAo5SNEhtMROM1ZWYVzlTFU99Sa22UoWeMXy8IIgBXgOIjtqaKNEA51YrEIY9BaYUyO0gKpZL25lFJIPas01kWkwrhmeJKSpanTBEhTbFEgrMUag8nz0oMJrBUl50rVBrG1gGOWFdjy+edFRoqiYGdnZ6aHIAS+r2m1WgBkWYK0xqkDCcHS8gL9docoiuoD2Pe8Wu9M+g6McHI8dEYnhPO6uZNfbsdNvChkOp0SNxqu7yos0/HQVS0bzRpKZ21BFAQsdHv4SvNg6xE2T3j55Re4efM2Lz7zHN/67vc4t7LkBm7/9Cvvu5N/Xo/2e8D/ba39deHkmRrAfw/8ubX2Hwsh/lscf+PvAL8MXC2/Pgb8z+X391+la3LgVlWemE7RMZBlwq5m7qwqbBTFaS9moaY4m6+ECTODUNWzXoUzgmmaYYXi8GTI/e0dhOfj64DEyrL6KUisx+6DXRSWJMnRWtFshIRhSDduINUEYQ0NTxB7Eb1miFISJQWVaMf8e688qkNoVKZWsUu5n2YA4NN9t4Ks9qJKzoodeUlqdKqsL2aT3e9X7rcWTJ4yLVH0Thx9VtyY92TufZXhop1R981fcyklogz1BoMBWZYRlnlTs9kkCII6V1Kl/JYfhXiewleSjY0NJtMRaZIgEOxub7N7/x5BFLG6uor0fLqLy7Rip7HQbDaJGg3GoxEyz5FC0Ow0GY/HeKWwY5amtexVBbqeP2xzMwOaA7zwwgt4QUCv12N//5DXXnsNrTXf/vrXePHFFx+7lf/ahiaE6ACfBn673CgpkAoh/j7w2fJhf4Dje/wdnJrM/2bdf+bbQoiuEOKctfbRX/I69T/XeRrjON6Vh5L5e3oFa+c4BfOCgnmtsRkjcYXjq0ZFJpMJaZqye3DC/mjCyOSApL+0wjvvvMPi0hraD5gmCUppjvb2GSVZPa81LWAyTFDDlAe7B2Rlif7C5iKRzUisgSxhtd9BS1U2pG3N7DULK0/naFUeMp/31WFgUaCFOhUazldIUSUwWkoyU+DVtHqn6c8rD1j+L+trXoV9zuPMlesr8EABaW5xDeRKepiat9EIMEi0khyUiivNZpM4juv3UBVMqgOkKAqKNCPIM1fK9z12dnbodFt0ul2iKOLcxjqm1HC7/vobTiYry0lGJ+hOi37cochzfN/HDwLX38tLr2eh3XaQrSxP8PyZKGVQai1IKaH8+9y6XHY0GrHe77O1tYUxho995GXuPXjEh597lnaz+Vh7+XlAxU8Au8D/IpwQ4T8VQsTAypzxbAEr5e1aTaZc80oz9RLzIhdl1UoLWapGSsJAl+iIBAOEnj61SaomcVVdqjYJhVP+pChzBOMqaOkkZTyasnUw4O7OET97Z4e/uPeQg+MRDb+JzSzHB4dcvnwZrSWDwRHnz59nmk/cxG/JHeJ5kk6rQRyHRO0WhdTEURupPN65v8eNhwO+f/0BQ9Hk/iBn+zjBKJ+8DCGrPCTLZu2E+appVT3M64oe5GUTOy3y+iRWdTvcfWkBgqrZ7e7LsgxsWfxQDuFhlcQqR21grCXLEqZpWtObzxdmagPMZ6G3Q/C41kKSpmR25uVskZVi9o0a9V/1uA4PD0mSxE1nW0tuDFYojNJkhS0n2t34ze7OFunwhHQ8oZgm+O0Orf4iH/3UZ/nQyx/lyrUP8ZPvfIfpO/c5evCA451tkvGkLDg5KazMFI73JHWcoNICeYEnpGtTFClQcHJ8iJbOq9+8eQPfFwhbEEYaqeCllz7M1tZDfF/z7FNPMk3/9kDFGngJ+K+std8RQvweZ2i+rbVWzOARf6Vlrf0nwD8B0Epaay2ZKWj6EcoU2AJ8JWloj1Ycu/msIHB5EPYUTtGFMKf7aBX6PMlzstTxv2dWcDRNOT4+YZIbmnG7hm+trq4yGo2YTCZcvfoU4yQFod7F+Z8jqajDhXTMXMIKPB0AAedWltjeesDxeILstciSKcn2AYvdtoNEiRkn5HzDuTrxKyS++wwzTy7nJg2EsVjhxmFgZsB2rnhUhagIQ1FkFIXG82a8IrY8gOa9Wd1LzF24jZWQu2JHNhfeu5wsBwRFOgUkaQlGbjabIB0QeTKZ1IfjYr+PoeTltwqLREgBSiG0R25gkgtiNIPjY7JJQdwcsrzYdV7GFsRxl0YckwcBn/mPvsBK0OCP/88/ZG1jjd7iKu3lRXzfr+VvPU/XWmqV4EmapniBj9baDbCW3z3P44UXXuD4+JhOt8uDew8wxhAFAWtra1jrwsy/jHv/5zG0+8B9a+13yp//CGdo21VIKIQ4B+yU99dqMuWaV5p5zyVwumJSSmRhUNIShhFL/R6UINUw8NCirNbJWeWtrnzZGf97tWmc58hIi5zUWiaJYTCeMC0seTZFSctkaviVX/kVvvnNb4IwPPnk04RBjNAeh0dHTJIMv1SmLMo8JMkyGlHTlc+txdicLHfhzfL6Gh/72Ev86Rf/LxYWrxF2m8ix4p39QydAoX2sTWqPJYRAlDlbfT3ONMbnw2pjDLkEm89IZasDRiqFtLM+n80LKARSKwKl0crxLwoEBkGF8qCsllIWWgoKFyoWhsxYDMIh7HHEsrl1ugSn6dU910IQgtHUoTaU7wESg8fYCLwwZjwe8+jwCK18lpZ7DI6O8W1K3IoY7u7w1sN94jgi9lLCkwkHR1M6jUNakcfla1exYYg1Oc1ujz1b8Kv/6W/yr/6PP2J8PGQyHNBZ6JN0WsRxTJqaU2S8TuHG8WFWbYYK5uc4aVLiOObu3btcuXKFTqeDFwasr6zSiFvs7u66Ku5j1l/b0Ky1W0KIe0KIp6y114HPAa+XX78F/GPerSbzXwoh/jmuCHL8l+dnsz6UEgW9ThNbGDrNkGQyOVUxdCX5mZHNoFSn4UjV411vziEpjJkyHo+JGy0GyYTA83niiSf4yQ9/xLmlZZrtFnluEaHje+x2OoThPtPASSxVOD1jHL2aO80LrHWV0lBL+q02O9uPWFhYYH19neFgwDDLaHV6HA2OSZSl32qUYV41PjPP/z8L3arbxhjy8p9YP0bMbtfXBUrNaovypVNnUa4N4cLN04AAZ7wz7svqkKq9nJkFKWkNS3P9svmDQmtFGDccSDfPEapC7cDWyZQ3bt8kNeAJnIijDiiM4Pq9R6V39wjLlkMUeWxIp/D5zKWLHIwnDEYJjcAjL26zvNynt7iA1pruwiL/L3VvGmvpltb3/dbwjns6p05V3ao79b19Gzfg7mtiOmBDEog7IgYRQJGDjOK4hYisRE4i2V/ib5aSL44UyZITCQnJKMFyEFaUD0mEYnUgbQINdNPQ7oHBfemBvvfWvTWccQ/vuFY+rOFde9epug0dkmKVjuqcvd/97nda63me//N//s+6bfiRv/ET/B8//z+xPTt3x9M2mOPBcyRdLd/GKy279sxdbKll/aIkhOCtN9/ktdde22s2eH52iZCSr3/967zyyisIPYnpXje+WdTxPwf+qUccvwz8JG75+2dCiJ8Cvgb8uN/2F3HQ/hs4eP8n32vnwsPZuU9SzusZ7e4SKQxVVSGlJssKYvrH7iNy7oGZkLLHh6JpdgAs6xlFXrC6c5dt23B5fs7R0RHVrCYvS6qiQnrGvx0NY+/UhzebDWU5A61Q2qFZg4+ZrG/JJIzl05/6NYwx3DpaRA1CIQR22zDOljTrC7a9oc4mpksKcKQjRQonNNJcu92EqsroQmaZ8uieAjNgrZMKx6ObgQDwmMXsXXxnxFSWk+b88GhvkGxXOme93SaJdonWGb3p+cqb9ymqGt33GAV5UdC0I2VZ0rZb1zCyHTBac+vWLYam5cHljn/73/xeHnz1y5S64KJtePTgjK4b+fLbb/PKS8/zbVIytAOqyLE656/82L/PG5//Ig/feZe5cWSD0FUoHGcggAcytkJg5XSOr776apQrD8pfVV6wEYLXXnvNTdim5Wnjm5po1trPAh+55q2PXrOtBf72H/MbWCxmZFiOF3OOj1dcjC1CZuQZZFr51VjE1TgFD9JEsJYaoQSm7zGjwQ4jmdTkUjC0Lc8fryKKN8sk49Bguw3CziY2vlY+dWD4wCsv8clf/zTWgwq6KKjrjOLmnLfeeouXXnkFRnj08CF9s8MOjrF+5/kXQWpMv6OaVVy1DVIadJ5zcbmhuHGCtkPkXYZzSdklh+6ks4EBiZwsON4qMg4YlaN1KOwckdaQa4FREpnlCZhkyDKFoGbTXcXrZ4xzEQcxNbMIP87N9Eivhbxw8eu7Dx+hsxIhBUZlFEfH5HnOo3sPWFQlF02HwelzXF459nzbpg0jBdiR+aziwXbL6ugIPV/x577ru/mNT/4qN1dHqLLiYhhp1g3ma+9ycXbBt7z/fdx9+SXu7TbcvPsiL73+IcrFkubilH7XM856EJrtpmE2rxwRIXckautZOFiLzjS5JzAbM7DdbKirCikl9afn0KYAACAASURBVLKk3lXcu/cWr7/+Om985ctPfZKfaSmDQBfq+oZcS1Z1SZ1rSiWo8wKt0nzT/gp+yB4J7k94CLMsY+x6jhZLnr99i3mVOR38oqQucuZ5iW061menDE3reY0jQrsV8ej4FnfvvsB8Po8S0wCMhlu3brG9WiOAZrMmIIC3bp1w9+5z3q3K0R42ttbS7nYoqfna176GweWcwjkd/qTnm1qc9Pdwrsa4BvJCulSDEoJcFZ6dr5lXNQobLWyaUwzXLUzsQysWAJDUha/rmqIo+MOvfo1+HJFZgaoWzJ97ntPLK4pZjdUlg1KUmZNZr+s65vpcx1EARykTQrBarXj11Ve588rLXHYdrYQPfvh1qOa88L5X2HQ9oih552rDm6dXfOqLf8iv//qnuTg/5+z+u5TArZfvsLx7FzWbsT53Yj/gxI7C/4fXNs2tFj4el1Jy8txzvPXmPY5WN7hz5w5f+cpX/vR6WP9/MiwsyopCCubLilwaFkcrx7hQyslgC+vJsW4himhcjE/MHuSfKeEIq1qyWs7QmSVXgiovyJVAi5Esk+S57/HcNnTn54i+AwNSarSQlFrw4Q9/mK7bobXg3bff9HoeLrleFoXvj+YucZ7nfMu3vEZRVx7x8+6Ur2BerFaMXY/Mcq4uG7TOybV2EuL+ckR2TPI3OFevH8cozBo5ln4bmyxGQii0dBLghZZ+8gWAxKkd53keZcjd/i2jcVXPweqH14V1nWJiXZ3O+N0/+FeIrGB+fAM0jNIjc0cndE0PYqAucqx1tWmMhrqquFhf0fcuF+eS9opZnnH/3tucnz/k6vyMXGmWx0e89tprnD18xPtefZXv+p6/jMoVeVFx2fTcP7vg8vySL376d3jj85/nq1/9EkoLFkcrZrMF5azeo5GFRSoAI6FGjtGw3TbUtetfsFgsXG/0EV585UXyqkRpwSd//VdRYl8v5nA80xPNWsPtmzfQUnA8X9CNxkl2a8fqzpWMvL7gc4cVOcDHWvr4g2ABRCwHGb2rEx6oUGYhhKAoauZ1Qa0V/eYR27e+Tn91TmFaunEAlTOfFfzAD/wgSglWqwUXFxc8fHjK6ekVFxdb7t+/j6sOzvnXPvKdzFdLpIJut6W/vGR3es7u/AJ6g1IZWeWswW4cKSqnQnwYd6Vtf9NYLk1UW+NUspR0eihpIlip6TPBiuS59sdZMp/PXXV4oH4ZgbHSVVaLqWwoLe/RQqLznKys+Pznfx+sJJM5222LzAqOb56QVSWr2zcoVwteeOEu9azk+HiFtobVYsbRomQwhpdffoHnT46RYkRrt3q2bcu79x8iM83rH/p2FmXFbDbjh3/4h/n0b38GXZXMj1YIrWgGt1it247L9ZavvvEVvvgbv80f/cvf496bX6dYlOjFinp1g74fp8S6Mex2u+Q5ccBOWZb0fc/p6Sl1XXN8fMwbb/wBqqgwSlLUFf/hx/4mfVLSdd14pknFFqfvd+u5m8y8NPPQG6x0eZ/wECG8yIx1kgDC+lauUmKt9/WlcInQ8JDYVDPDUbekFFgsuZRY2yGUpNY51mYYazHn7/Do9AFD5uhB9eqYWZbz0e//PrYXl3z+d78IRUZuBow1vHzzJlVR8uJLdyhLxe7ilO7RyNnZGex2bNomWqjTdy9ikN51DVdXV1TZVND52LVJ3EgtXYU27lLE81JeiEcCGoH0vMuiqH1+TpBnGdJCUTqXTXg2/diN9EWBKhwaJ62kN67mKiUGG2sRSnK0XPL7b3yF5fERu3ZgsKBFxmgVBknu81XWWvKlJlMCcsWd5190Gvi65M+98ALd+oqqKrh145giK8CXrxzfPOHf+t7vYTVfIESFFpL6+Jjnf/jHePjoPi8/f5crnfGOMXS7rWvUcTQnt5Zh1/DZ3/odjm/dRPeWl77lVU4vL6gXNcp7O6FBijEDfe8qyPM8R/pUTVXNaNqWmTG88sorUS2rXB2BVND8Ga5HE8LpTNy+fZt5VdK2O6SRVGXFOFqETTiNgWxrnBujlMIwIoT2Qa5FKUdh6rrB13lNMV6gN6V+uUM9nWaJ8g+VEgNZv2Ect7TrSzpAaUmt4MMv3qBDo7Ur88cYcimwmys25/fYtT1qtJTWsh5Gcikwg7vBt46P4rH0ZnQquDePEv7jFI89Hpc6QEjFCeasjBLEHJmUju0erH6WOZm0TCmUgqLIYozkKqwLTi8mmYQAOIXvhKk/XFmWGKm4OL+iXp1wVAgyD4hsri5ZzApaJdFGoMsMpOTbv/3b+eznvgDWuAXOmlj1oH1C2YAjaFcVr33gA9y+fRshRzSSqshQGm4vb3D77g3+/Ptf5p/+d/+IRWa58+oHuFyvaTdr5kcraDvywbA7v+SN3/0ip2f3ufX83Viik9LRsixj8HHbCy+8wP1HDxEiCANVsaxoFCMiB5FpRkBmT59Kz/REA3cTZ0UZaTtD4zQxXNNxj5ThVKNC9TPJimtjoO5yNcNgouVIEf89XiFpnZkbkakBCGlR1iClJTeGsbOMQIGl0ALoGeyAxMHn0ihGIymRWOlAhFqryAAJ+huRg2kVi7rci4XGAwJyyhwBZ7EixC6DCy0cxUgacl1QZBlaTTxPKSW50l5GzoMQSnqIvY21X1o7Xf70GqW6IlprPvU7n6fHqUTPqoJd23O0XJIJOHv4iONRsilH5mKOzDPKsub5O3d4950H2NGlFYxwqOju8opca4yPN5fLJR9+/XWKIuSqjA8BMrJM8V0/9CP8px/9N/jg88+zOLlBIwQf/aEfga7ll3/xf2N+4xZVrrh69JAqz+iudqwfnlPP51gjKMqMsnRtqDpwYrx5zr1799BFHoGfeVHEXnRFUTMw6cekLv1145meaI49Z5z0tVbIwbUcaoeeLFO0AcrHQfuZX33DIymsI9MC4C2WVZOQaZ679xylyVUVD4OZuBDWgpha5aaMjJTONA4DSggGI6Dr0Xnu+qzZgXE0UUYgWAettecpupEmoYUQ5BpG0SPtVB+XMl0g1SMRIBXK8xQHM1AGxFIoBgyaCYXVMifLQWcWJQfKXFFkWWx+Yfy5F5l7+Kydsb7a0g7rx+5PiPN2Xc98uWQpXWV53/eMXcfZ2SOklFSFZHu/R2aa5mpBvpyjipqTk2NM13JxuePh6RlSGRpjyIoKmWmO5wte+MAH+NCHPkQ+q1HaEQI0Ejv02Isdv/V//jKf/fl/wnfdvoUoa/LZig9+24d4uNvwra+9yk/8R3+DP/j93+dffelLHN29i+gaEMYzQArXhceI2KU0U64TUDWbUde158qOLBYLVnfv0p2fO1d66MmKgn4c0VJOC9UTxjM90ZSSLGY1i0qTSUkv3EMrLVghvIUKDcnFnobHxOS3HhxRuMLLjjLXdN2AFZO7EEbmezCHeCKFtIWxSO9CBkg7QL7WWiyuJKVtNgilUMKirWRgYscfSiwcumOCESUcZQoSFouY5AqCelZ4Xfn/BYZcZy5mY0K6smDtjBNOlVKipUL70qNiXmO84laWl5SljJ1nttsmlpAM4361hBCCwRrsIJjl2iGFmcTmOcxyunbAKfIIMiGdwG27pnl3ixGKQmcc5xnLkyUni4J3zi4j2nlycsKLL77InRfvumrq0dBttowWZNsg12vufeX3KFVGVhTkN05Y3bnDnW/7MN/xV3+IR197gz/47O/wu5/+Tb7zL3wHX3njD9FacvPkDv04stvsuLi4YH689M+aiuBQkDo3xvhFvWAcRzYPHjjX0hpKXy2eZRkG+OynP/3UZ/mZnmhCCF64fcMLrTRIX1qilGJonb5H6DctcEwMaZ0cwaESlLMmCq1zH4so+jFQjcQEv2o3gf0RkMl8z5q4nxFjHDSssgCBK7LcWTlduBs1+HIdxL41AiIcHobxLZmkztA+TaF8GQ3WW1iXkd+D+12KQyCkk1aIgkU4gChMRiGEq8oWFmEcrJ8LifZ9wZfLWYzdLgV0XU5Vz7m8XFOUfiFSYDpfUOsXDMcGcdfMCcLqPeucxpBIiTHuexEjjCOiHdEolijyI4e6KgS35yWq37C99w6rqw0y03Trc0TT0OEWgSwrnLxcUdJpzcsf/CDL527zxV/6JQSG5xYnbF96mXfeeZsXXn6BsWvZjiPve+ll7r35FkL7fGDf09iBTClkVtF0A1WR0TUNOlMIM9JsLtlWFbdu3yaf1YxakCsFVc5mveY7v+/p3WSeaXhfK8XN1RFF4STFAkIXWO6HNxSuj63CQyHMlMQOD3KmlAcExN5P4ABGzQpJzNkp5RPOPh2gtXbN0b1LeXgMfd87dyqIrwqDVG5yIQyWkTzXZJmiyFTcTzi3UCokR/dgu9XXiciGPGFk39v9urU0tRG2k4Cx2VTwqFwNVrtznE/lYyWtBPO5SyZXdRHzeK4X+BCPDaAuyti7QFovmCMlWon4fyq/514HVSiKmSYrJUdlQW4H5tJih4ZaCordBerqEc2jt7HNBiHG+BwIrRBlzvtf/zCz1ZLtrmNRz+jalvv33qHdrd39GA114VIXbdtydXWF0IqiKKg8YSDEyeEZ6vt+zzNaLpesVitOHz2CPPf95YCuT0R5nzye6YkmhGB1svLdVZwPbKWIiekYlCdUpSD4Ev4OD74QAitHP4lsMqEsMOy5aG6Eh9WxOpxIkI1/CzHuWTpn4RLirS9ehCk/pzOJzmR0Z12NnY4N5YML6/KDziJlUqGFZLADRpg4wUL+MBSvSiFQKJRQ8QEJeUMDYCyMrl5MWtD0UeCmzAuObhyTB4hfCDKZcWOxpNAFi+WSQhVoX5mthOsTF6DxwD4p8xytZbxO0roFwg5j9ATcXJsS9tKM2L5DmM5tj1fnwjA2G4TpadsNEqcVOQwDo4C8LpjdvMG//j1/mb4fefHFl9lut4ztjuNZyVGVcfrgXbr1haOU+clU+UpukTwXQTAV4OLigqHropJZcCd14fqhHR0dwdg7HE5Jut7Vz12XgknHMz3RpBBIrUHKaaJZ65kD+3QkKWUsmU+tXXjv0AKG1TkFFQ4/c90IK1cKsx9SnmLsFMWD9rX6i6Igk47ZElC7kPjN5GSBUhAm7Cdl5ac/YZExEF3qcBy5nKyk1hrhQYxw/hKihiEQtUSstdR16X5mJbNZtZfUDyNcS6WcBn9g3yjhmCOZTzFo4QRuQ/yZxqfGGNchZhzpm5amaWi3G7bbLU3TMPhq56LIWK0WUU3r4x//ONaOLBYzzh494vd/9wucPXgX7Ei3uSRXkq5zPbG3222MAUPc/dJLL8VEdcq6CSJE4TNCeBXkxYKLhw/dRkphtXItvZLrcd14pmM07V2kvh8nVwjBaGxUt02LIAMSGNCwVLYA9uO2MEKgf105Dfbx2Mr9Hbh+wx5zQwjBMIxxJUw/GxaKOOHCOWqNkCCtyyWF40xdETcZvGts9xeFlHKFcG2gwveki0tYNtz1kWDlHnp6tFiybXa+B5rlypePlL2TKFgul1gjGLqOpt0irUJa11/NWtcnzlqXm0zlFtwxCtp+SlUcoqghhq7ruXvfDkhcX+2qyMhUzmAM73/lFd5++21X9zef8/3f//184hOf4Or8AqUUd587pt2tedS21EVJ3+wiE0YIt7/Co6t1XftuMA85Pj521XYeBHMkY18kmjvLphCcnp66CVpmUZw10zl2GHmPefZsTzTltQjNMBCYZMFquRIPp5qEcv2vjHWMDytlLOpzrHln7awx4METkrgOIaNfDl4LETBM8Z17cKfLJWXOOLb+dx8DCpf4nR4wv/KrECPaSGUKK6qbjz1SOT1G1wnGVWkb45odWn+jw6QOKCq4mj2BdS2mvMUQMoldhXASBf4c5WjIlPDqVY5eJaUkK3Iy66hbwzCQa+2UpTLN4Mt6louRzTpD2IJROta+ML2fLC4GjPGTn8Shor3MXaqi97G2Br9QSeqy8CKrW8osB+0kFsosp/A9yvJcc+/eW7z22vt56623UErxq7/6K5zcuYWUmqurM8dXrUra7YZxbDEKBuMIwU3TMJtVbiIrkNJQzStG4yQNojy5MeTKPwtSUmlHhVssFs4DUAJlQFmBznMYHfjGEzygMJ7xiaYJFb6HwWZA2qz1+h/jhIYN1jxm5cBZjyEpNUktQ2oJYcptCfCIXsiuTYz2EFOllCRwfbXThLg1I1o4KbYAtIgYYwk6D9fH4zXTcUfE8DEXd991C8NZuOnclXJCdCG/tZg51r7jgUokCqk1TdNw48ZNNlcXMfGfZRlN31HXJcvlHCUEt27d4vT0lLHr2e12jP2+l+DcQBmPRYipGDTEpcHNDte66zqklBQ6yLo7D0D7bjjz5Txql7z55pvMF7VrlJgVjE3LKHtXYrPb0bY7RtO7CZ25Pt1d1zCaniwv6fsBa6daM7wbPBUD454fa1EQNR8fPXrEcrlk8N6KznJ2mw1FXrlQ5j3AkGd8orkHZZQSFNiEnQCTW2aEQ6CMGbBYlBUof5NGDy1LAL/KppNsmiBTyUrIVw3DEHNzQf5bKkFvnLakJWm/JF0roRT9dCSVUC22H/fF+E4MFB6iDwrFQXPx8PgO46LggkkpvBV0Wo+huWLMzfmYrSoKlNfoz1SB1gVVXtH3I7fmc7bryz0k9cGDB5i8YNe2lHnOlbmiLkrEyQlnDx+56yO1LzEZPcRvyTKwVk41ZckCBSamTxz7fyI3h9dCB1ErQGYZu90upi2qovD9wTtyYDQ9wlg21hV1lkVOPwqapokuvHMF872QIuwvLLpVXtCNA1pPfdIXiwVXV1fkec7m6orVakWe5Vig7VukZ/cEufanjWd6oiH2a8uevukUG/ieFaEk1Fmr6N6Jxx748DAHly+8prXGjONjsV24eRa5Z8lARP5kyk2cguzJ8kkvGSARmMQCCyHATrV1eGuW5sPS843gjJBeGvugpsq6xo2AQ/fsgFIOYjfDyDj21PNlTNQC7Ha72I0FYNc62tvt27edJuP5yGrlCmU3u3avXs2VLLmq5YDcxQmfXOv0nkbvIdQD1jmXl5fxHCtfbGmtRWauUlwrV5UxjgadfM92u8UmiHQgC8cWU55gEICmYO03mw1gKOoqTszdzhWjOtm+oJnpKhV6C2Y07HYtWab29EWvG8/0REvdPmmfvF0M+K2nHklnysONlT7umMrWpwkcJkPYLozw2iGoERBGKSXGisjUUCq0D5q+M7hLxkzWLH5P8sC5bafJB9Mqb5Pzu86yueHcWmvH1KPcQ1RzrSmKjEIq7AhZVmKwFJ78G8pFgjXbbDZ7VqAUJaenTnK7qqqIahq/2Mznc9brtXcThQeGnMuYZZJUHgGI1zDcZ6VclUChnUR3mGBKqci7RMN2u3UL5nzu+gIo5Wh5bev2J6cedmH/ZekaEAZP5eLiwjUs9PF9uC8mNN4QTpRnuVzGReTo6Ii2bRFaoa3Tm5FCkhVFJC88bTzT8H4Yh0nYcNjxwfOMkDCEcFqFMsQocmLlhwc7yG5LERKqTp8xffjD34cjTNKpaYTag7gD/J1p7fcPUlgyrcm0Rkmn2yESxohjgNh0niCkjMcfXNHrUgdh7LmLB5NSKdcuZkSQ5yVmGMh1RmcHFosVxsDJzZs0TUeel6xWx4RG6XU9ByRHi6WjTS1Xjvu3WpHliqPjJTqTlFVOlivfMENEfQ53Paekv5T47p3WJ/9dLFcUBSO9y4UW/vwUZLlCSAf4BAWz0PjDGONKiuYzVJ7R+QU10uKs5fz8nLp2IkFArAJ3HoGr5EBBUVcMxrgiWm8N67JkMXOLUVnmFHkBmXacS530KzB/hknFMFmSVMk3MNmnh2l6WA/jGphyXjHuYnLNUtKuUi6xeajJMSbu44Qwugbvh25lmlsLD5KNkLxrFCjEREieLOXj5y6SSZReh5QrqbWOalmht7eU0v8+HVdYzd117JGy2CNPn9y8Rd81TgjHN5TQWnN+fu7kGqxjpYTYbTabxfbF4ZqHuMdJtys2G5efOkyzhHuV5kKnCSkiaFKUGaYf9lpsCeFYGulCk5VFbJIYCjVDyiA0TgwycmlLLgcUTT0PhBBkPg0TFk1nTbOkMNRXvGfODdXSUduk2C/QPRx/JiwaANairIx6+VmSvzKCvWT1YRI6MDyGofPKhcY1sPMP3h7q5C2TxkYWQ5BKSJPFAALfcEOJ+COFRUnX2ytYo3DT0s+G7w1jL/ksHRM/tZbuuHJ/KfZLeUKMmNK/hLAo4aTTXUfP6fycm2uo50vqYs62abk4P+fi3CWI89WKLK+iJ4HnNF6cnTF0HVVR0Gy3lHnOcrlEa81qtUJrzWxWuTa29JFWVtdO3m1qd7UfI6fnUZZ1fC/oeQCoPMNK4YRYcS5k27aEFEZYHIauczLp3qqF6mmlFEo4UKzM89isQ0rpYlEpUVlGplzjw8xvH6xynHTHxxFxDpN917Z/uq6jEOLvCCG+KIT4ghDi54UQpRDiVSHEbwoh3hBC/IJwUnQIIQr/9xv+/Ve+ke+wexbmejAjDa4PA+/DC5Buezgxwbl4AoPMtHM/k23SSRkmaTqBUuHSMEnSv/djMvvY96cP3GHMGKzxdfJz+4DL/rULeSOtNVIrVOFW+JlH1Jq+44WXXqLvRm5+67eSFQVXDx/SjUN0sbTWnJycxKYUoc1ueEgXi0Us+w8TqqoqZvOKvHDHVddlPI9wbqmLF67LpMe5H9em6skh3g5gTch/Xl1dHSw+7vv63vV1C393nmLlFWKTv6fY0RizRzJYLpfcuHGD4fKSPM+5PDvHjCO9F+75U5toQogXgP8C+Ii19kM4DPuvA/8N8A+ttR8AzoCf8h/5KeDMv/4P/Xbv8SXJhMFZrZA3S63BoatorfCuWBpjSbTK9raPN9Q6jfpMJgWN1hVTXkcbemxyJsBKmHxu9SZyKqUELfAcRhOJt+mkFELEnJ2bTM65U3LKJ+Lls4MVPzx3IAqiKqWwwqCsc6FUWZAVBarI3SQpC27dvcPpw4coLejuvYkZPIvdn+84uIf84uKCqqqo53Ok1lSzGcujI+qiZLfeUGjXRHBeuc4wy6MjVJahZBatQl6WSP//ZClcjOZSIw4FBaL7aaVL+IfzbAcXw1kp6EbXhqtIOqx2fiJiDHb0jekBk4QMYSIFBWutdbR0ZV1jgLwsaXvXoacoKtbrNZumdd/rGSsYv/Bp8Z4J62/WddRAJYTQuJZN94C/gpMHB9dN5sf87z/q/8a//1FxHdLwDYw0zoIno3KpRVOe1REn0hMuzKEbGVbe9D3t81TXuanX7e9wv2EyhpEeU/o/uMlEcj6Hsefh70I4zqPPXCERCOm6Z0opHRF2GDBYrFbcf/iQ88tLkJK37t2jms9dfFRVGOug7GEkwu1aSprtlllV0e52CGtZLRbcvnmT3tdn2WGkaxru3r1LOStRuULlrptoUbiq6EB9S72D9Ho47ZQunncqwXDYNWe73cZrFlj3oWIi9QKC9QyWNOVsRmaIRyyDyznaqcniar7AAoXO4vHXdX0A1F0//sQTzVr7FvDfAn+Em2AXwGeAc2ttgGDSjjGxm4x//wI4OdyvSLrJXK4304PKZFUC9J1OqDRfc90EPHQZw//ud/fjks6Pf/ZJbt6hO3g4iYI1DOq3wido5TXH5L5HcDhVVfJK+nCFv1NE0ojJtY75KmlRubOWg39wdJEz+N1Wvhf3arHg1skJxgMJfdtireDo6IiyyqmqimFwrWbDJAjNIcC5bbPZDGMc+Xc2m3FxcQHAarWKbmiWFR7xIwrgOKuRkMY9ayMguGGyDMMQE9GhW2eYlLvdLkkvTEBTcCth0qVMn5E8z6dUirV7OpN1XVNVFVlRUM/nCCHIPfu/NyNaO30VMz7Ohz0c34zreIyzUq8CzwMz4K/+SfcXhrX2Z6y1H7HWfmS1ctWvwkytjITw3EGvJjjaJ1sRcPC9IL0QgdI1bR+ZJcK1y3VkWbtnrSC4fJNQjsL9aEH8P2yjSFBQKSLHcTo2h0pOxxVaLe3n7FKrPFgT3abD8w1kY/d558oIpZBaMSqJ1Dmz2QKQDMZ11RFCsV1vmM1m7HY7Cq+JkVdVzBcCsevKjRs3YgwTktEhHgvwfWhqMZ/P0RLqMvfuoGE2L8hyQV5oqnlFXklQE+oXdGGEcP21LWOMBbuu21tYtdZOfn2YqHdCiBgvdR4UEcK5emHCuf3b2JY37Degp6EV7yTkik87uK5G66tNdPM7D8ZMAkZPHt+M6/jvAF+x1j6w1vbA/wJ8L3DkXUnY7xgTu8n491fAo6d9gRITy/y6FSNF5A7H4WvRRfDWJZMq/p9JFS1PsGzhO1OLFfYTVtrwk/ISgb3Ppcex5x6yH9uF99PvTQEOk5xOmhBP9x3c2UN3NU8oTipzjIrgPt24cSO6WMFK7NZrmu2WTIlYrq+U4vT0lNVqFa1IaF3VdZ1rdZsUT242G5azObnSVL65e7hWZVl6K+wUw4oy8/m3CUw6dCmzLIvWLkyG8H84fnCsljQd4BS9pkmU/g+TRTPGUJZlnHx938fEeZisgJPi89Y1Xy5dXaAdrn0G0/HNTLQ/Av6SEKL2sVboJvN/AX/Nb/Mx9rvJfMz//teAX7bvYW+lUuR5hVYlILFyvyQlOH3GN5+Y3ARnLYSwkb4EZtKBTEa6ErkHOHw+MORl/D1TGVrq5GGerOMhsrh3Hh5MGa1ltK6JoFPD3Yf4rR0ndWFroyUc7OOE6hArutU/tZoud5fnOVpqtMojK8MYQ992niHT048979y/h8SyPr/g4TvvMnom++p4hRl7EM5NrOvaW0jNvKwwXc/uyvV9LjKnwTL2hlnlGBehoNUYQyYVdZZz++bNOOmDVSyKIlrfwQ5YaSO6KbVmtK454WBMtPnBBe496hfymiFHFiZkhPz9/8HVVSqLk1zrHNd73AFOYYLXZcmsqmLHmdl8js4y1HyGrkqXPN9c9soi9gAAIABJREFU0rVbB2rxp6RUbF1ftP8Z+G3g835fP4Nro/t3hRBv4GKwf+w/8o+BE//63+WgaeF1Q/kixVR2Lc19HRwPX/va1x6Ly8LviNBM3kbELt0mnfNTcDtZHCFEnCRprHcYyx1amTApDoPlKR6cqgIO152pC8v0exrUh7/T35UKjT+mAtV4fMK5QX3TTiz60bDdbqPb9fD+fTKlMR5MmM9mMTndNA1t27Jerzk5OYn34/LykpNbt6jnrs9ZcKUC3B6s2OXlJbNZ5RPmECodwjYBspdqcg/TFrzh+qYJ+zCCVQufA+I5hvdDXJnWnaX3LCTCy7KMXM16uXTXyRiEVgxNw9V2QzafYX1yvTfjY/fucHyz3WT+PvD3D17+MvBd12zbAP/BH2f/SimnJqUFaihh3GLxD52d6EqZcl1ePvjBD+65BfG7D/YbET32CynDxQqu0eH2Kvnc4XGO4z638jqffR8xnGIzKYOYq/IIo/QP1KTA5V4bEEK5GFCmjBBHZ5LWHWN4PbifQgiQgq5rUNaQee2MmV/IYFrEguxA1zRIrWh89XGIxUK3zuBWbZots9mC09NTp4gsnQZL37b0o5Np67qOtm0JrZJDLKh9zdvE5hdR8k75SRJiwhTkCeTscNzhWmeZ6wK72VzF5H7KiAmTqqqqvRi8LEuGYeDq6gqkqz2bVTP6vuf+22+7PCGOeaPrAtE04Cf7aAxWK+SfZsL6T3tIKbF5SZ7N4qp3SOWB6cG/Lk4KY8+6HYx0VUsn23UjbHu4soZmFFpK13vsKS7q4bGkMR247pkj+5SylEPpJpePs4TXQPGlQNZapP8nxKQdEryAQEeavtNifO6pbxy4sF2vkRbKxSJOsHAcRVHs5Qrruubi4oLOs/2FmCD2QE5OIfVwHiHuO0xppLzRdAQrmV4ra62P3Zwq2Tj2XF6e71VhhP2mYkJTga/k5s2b7Ha7mPxeLBZI6YRgnZZLgTFQ5YUr9MSh3l3TRImDlJHzpPFMTzQhBEYRCcBpHZlzhVz7WQ5eBx4DC2B/Qj3tO8NIichpTJZ+VwqSpLmZQ6Dm8AEJr4U46/A4Uw2S9NgmoCAIC4XY0/2epjnCai6EYOwMGuXrxQqsnVjuzlUmskBMPzB2I+3FBulxLSNACo0ZnRu2Xq+95XMInR1NTAJHXY7E5U+PB4jbHF6rcH4pO+S6RdPJBLo+3Kn2SxjppA55tP142HJ0dOQUsfzrWZZxcXERYf5A96qOli5R3nZOyXm1cGKwHjzSxsYmjE8az/REw1pWxyegwkqyHxO5TcJDKxgRri6Lx+Md4UENhygqFNeTQA8tZnoDrbAgU45GGmGFUhU3IYVQ0cIpsc/NDMcvpWSwnslinex36HAyLSp+cnj2uhZyr2hx6hbjyMqBpR/eH8eRsfcWq3OtncbOFUsKI2B0DJVhGOjGDlcR3WGEY1a03Q4pNH03JYnn8zlZJtjsdnHSl0ry8P67VEXm+JK59vdsyoNJqTEG3+FHsVqsfKwqPEAxLVQhro3xcd+DMVGOb3/BmphAWufx84vFAiDSuoKlXB0fg5TR2s5mzmNyJUAzrBWujZa1kfJV3jyhF67CgnEqoQpT970kwZ/tiSZguZxjfK7lWjkD4eTUhF+xDt2w9xqHCerDcZ3Ld+hmhvcOV9Xg7hwmt4HHVm0IDdchNPcL+y+KDAEoj9Rd5xJf93e4ZmlhZjtMFKe+b6PKU7huRVHE7ZumYbfZkueuN1gg656dPWK7bdDSqUXleR4f1LC/3a6N8H8K5KT3p21bR+DNJkDksPr98Jzc+UxwephEwR0N3zUMA+fnrnd1SDxLOenCZFkWgZZQepNOFmstTdNw684dALqtq89r1xvOHjwkK8voeaT38Enj2Z5oFl544X1InTvUQk1+u00K0EJ8FLQXHZwtonUhakh5fqGxezcxwPjgwITA8g65rviddtLdD9Zkyr89PgFTYOQQBQ2vQZjMkm5gT5N/KrVRKK0joz+dWsG91DIh6UrHArHWehlwQT+00UKEBzVYzuVySZYV0XpKqdmsd5RKU+iKi7M1Zjcyny/Z7dqY7G6ahmVVs7685Pzqkq5puPXcc3HChByXY15Mkz7EQ2k8HNk010gA7oNUoFSBa4qYxdTFvvcxeTVp0t0YQ13XcUKFhhVWCPLS9WfLlGJe124i3jimH3o6L3V3cXrmXj9ecXV+fi0B+knj2Z5oWO688Lw7GbUfC4WcR3jNPZQh7/Vk4GN/H6mVGnkcTzw4midAy9fB+ukIblDKmTwco0fk3INh4iSOCXXv8l4XYwb3LaBxh3Q0M4IV7sEaBwuGWCJSFAX37t2LaFy4llJKdpstjMYndSXtMFLO5qiydknhfuDBgwf0jU8ee2sR5AL6vvdQ+XRMASxJXba0ODcsYofxeDrCRHk8ByrR6D26nJSu3W+oVQuJ7wDqGGNiiU+Y7OM40jSNkyz3bv/QdjElIISIietwT4M25JPGMz7RoBl66uMVhdJ74ERqkQ5jqfD6dSDDofs3ba/2LGAKfByusNe5a9d91+G4DvKPCGY/OAm4ZJVMe3eF8/xGAZ2wXWqto7s1PO5eBxcqcA+Deq/pepQFO1rfc7rk9dc/wvriEjO4Y+57J4utpeSrX/3qnou22+18XdxEUwoTOeTvwmuhVCUkslOQREoZk9CPWQ8v+W2HCW00xmCNkxwwI45hhAIrIxMkJLFD7BYk5S4vLyc02euohAWn73v6psUOI4V2BGqJoBz+DMP7CFdeUi5X/vdJoQimgk+kZDD7gqHX+fcW11JtFM6COE5jigqqyN6Ih2AFeNcsuJXxQVeByGsTi2gi3zF4t8bXTmJcfe44WgZr6MaBcbQ0beu62wwjwjjQI1CDUuADXLFpOtmeZL1j3GeN++mdm8hoMGKg6ZrIYXx4vkbmGVfbBl0vOP7Wb0dkgmJe0g5b2s0FMKCse6DfPT2jXt7g6uwy7mOzuWJoG7Q1XJ2dRwAGM1XHm37Yc6eLothPxAvtcoIolMwi4om/ssLnVR+baErSDj29Gemtj7WsjMDQGL4Tl5/DSnbbls22pUnoVsYYZrOK+bwmzzWb9SVju8OYgbbdoYylKivqekamM9cHAUvfNbz7e3/w1Ef52Z5ovmbr1VdeYVY7BOkQohVi0ttP3zu8GYcQ8eG+0vF4+YmMq3D4XGjlG37SeC2dBNLuszket6oSgY5cRiFEtCrpBEuPObWyhyjpdZZVCYkWXitfTOemlOsF9r73vY+6mlOWNdXNE8yjh5RFHeH4vhnoNg0St9jYcaRermB0lK5mu2UYDG3rXMJABLbjJNsXrFoKEKUq08HlTb2W9D6m1yK18IfueHCHEZPgklIqBgVSTsWqVeV6Yfd9z2w2YxiGGFeen5/H+1/VM8o8p2ka+t0OfJ2bta4TjbWWh/cDpff68WxPNCDPMl5++WVQEqUyUBKZTYlbmMpnop9+TbXxk+Ki8Ll0hNUv8OsO6UwhZ/I0IEQIR/lyTHsno7D3HRZA0veG3vhCRy0o6uAy2fgTiiKddjKPLSghvZCirjqB+K23+lY412kYnLjrMBjMKDFG8vWv/ZEHDwxydsRgoKznzL3cmpYZfdNzdXHJvMhpd61LrHtqk+0HrzY8IIxlbNo9QMQYp60vvNWOrplra+F+Um8hnKeV0cphJVrl8e8ir8h0sZdEj0CVnISBxnGkzPMYV6VFn1JK5vN5fHaklNy+fduBHnOXvGbssUNPmbke1+1uR2h00owDGYoqqx5/eNP7/dR3/38fvkZLKFRZg5paqx6W87tX3dhrTujH4Wq/b/GuvwzpNkJNsmSHyegUvk/HIfoYfrfWxlgs5GlC0J5C3YcP3h5v8Zo47TCGPNwmADkO2u+dklPmLMvtO3e5uNqg8py16dGzita7VFprzNBhmg2LPGPsB5rtzlUzG8PQuckWhI0CXG68hF2wcoGVIaXEjC5WHAR71yZMjnC/Di0ZEIV2UjBCKcVsNnvsOlRVNXEo5ZSDDPVmXddFjmRZli42VYrVakWzXrPdbp2+iDEIJdDCFX4O/nwLncF6w807L/C08YxPNMs49oxjz/zGCVVeYKzAGBlryCar4YYBpJcDSx/0sLIJ90KMyQLzPowA7YehpSvgVF7SznNUCApT1zFQJksr/XdM3WasT4IaY+h6F1OMpqfKs1i6k8Ld8UocLBSxOwtghaAf+73jGKWgNaO/w64Hm5WWgSGu8GPTkumC03fvc3l5yXPPPUdzccn8/a9BPzjde+soZcEFbtsWZSzd4EjHbT/QDSNWSNq+ZxynSRWOp287zDBihglqD+eTTq4wkVIEMH098FiDBYtpAiNcH4HRsVeqcsZ8uXQFcvhaQ39dgkJWymJxsbCib3fkZU7T7nj06AFCWGZF7rwPIcBYdldr+q5xXs0Iph24OjuP6llPGs+83FwInLN6gdBeOqzrSJ9tITw7378YVjrTT0WBzqpogsBPuv+wj5QqhP9epaa81URXup40DBDEQ8FZVlcl8Ph2ow0JeN/zzIMf0yr+ZN6mO85vLCF/OIQHdEI+q2kajzDCbneF1lB+5cuILGdoXDGo9p7FZrPBi46TZQVDbxh9eYgxJpKGp644IubP0utnIPYXCAtgiOWuo1ul7ngqaBvQxcCbjLGfMXTNzjVH9EWbIf8Z9nN8fBxjsizLnLal/zvPc45XK5SUyCxjGHqy2Qy72e4VhI7jyNCP5GVB5tlLTxrPuEWbCi1feuV9mEy7GC116a5xo8JNC2O6ecPe58L/6e+pm5daqzRpet0xwsTFDENrTSZVdH/Dfqy1e8ThRT3zD4vjLKZfcR3Akb4Xk7XsM9lTHmN4X0K0TGM/xNxP3/e0uwZprKsze/CQzkPcynMFy7qkKBV5riM30mAZB/fjRH6nhLExMHZOEkEyKTy3beu8Bn9tU+tyCIwcuumBxBuqu8PvKbASwKS6KOPry+Uy5ikDqTognsEFDZXWXdfRrjdk0tU3Xp2eYnct23vvsuva2BnIGqdDo7V2gj7v0Sz+2Z5oyfP13J3bGOla4AbEL66UyTybkr77lKmA8F3H3kgT1VZ4srKYXg81bFa65uhBUiDc2HQSpuBF/Jzf52gFPYKBKebIsowi12g9JbUP92uM2ZuY4ZisdfVxh0nqMKSd4sfel58EdFMVOTdu3kQ4OS6EtJyePeTy8pLN5gownD54SLNryecLillNUc6oPdH25OQWg5HRYoUcV1rjFSZDKHcxxoCZuvaE91I3Mt4Hv816vY7XKuS80utyGCdrrSMiaK2NxZ7BywmJ+bOzszgBg5y51hotNVYqzs/Po9U3ArKyiC10gydi7Qh9R9+PqNX8qY/ysz3RkhF6kxkkMs/i6+mKH1yHFP6Fx1G66/JQ08Rz6F5ADUOhZ3DpUrJrmEjpfq5jjoT9x22Z9EBy5ahE2Met8nUJ8hFHPjZ2/7utdWTXsAiJuFg8zlyx/lya3rHR8zyHvmOWZ/RDy3a35uz8EXmec355jsoUZDkiyxFKM1/OmddOJySdWIfW2ojpeqTfHxLjXdc5S+wnRvx9HH0Di9ETmLO9nFuwXhOlbL/GzVrLycnJ3r04WixjyiQUfm63jvkSilXbtmVxvEIISzWf7amtaa0dsdlfY6VUjN0HaxDZJPx63Xi2J1oC27sWQAWzaoaLa3K00Egrp1Va7ctl7002tyNMnJhOBCG0WooTTiZIoYfggyWcKp5dqiGwLoyQrpXQOD0Ah6t82Gd6XK6huhP2kRIyLaPicbCm0a31HM2oL8mBJZMaIxzPMcQu4eiF8NUDgZkhnDzCwMgooBOWHstV07JdX3J5ecpms2HXXHF1dcWu2dE1DbNXXqW6cYzQihtHRyiVMVr/8BsHSgy92Tvf1LqFhdBay/ryPAqhGuMqBaJMt18sXEGvjdc7SA/keUlRVOTayTWE862qKk629XrLfL5ESk0ms5gDxBhyr+N4fHzs+oh767rb7Xj07oM90OXtt9+OMhnj6NoEuwVmYOxb+n6KUZ82nu2JdjBWN1b04xhZ4fB48eSTYigLjN4Fs+7F+Lkw3ENxPUyf0ofC/+EhCtsHdnq6iqdk2r3VXai94913P5OaO7uPnh4+uOlikm6bMkqsdfoawR22SmKVRGUFnYfiHTNiiBzGsdnQtjuqRUVZ1+S3bjKuzxnMyNHtmw4U8MKmY/L9YaTnGx7ccO6j19NnnLQbx3FEIfZiLby7GK5LSIEERWQgsmfCeaagUojB3CLZ71G72rbl7OwsuoF1WSKEI1xba121NfDCCy/EWG8C1SQI1wwjn9VUN45Qr37rU5/dZ36ihZuntaRc1OSqQqgKhHJ9qXAta9Ntw8NrXG1JjKfAxS3Ounnr5N8PMZgQIiay3TAYPArJJA4DiUtpp/2nknAuNkst6N6JgXV0q+Cq7scpwWoKZF3T5wVGODdTYPZc2ED9sqGpRSxClGipEBa/aisyz+8jAXp2ux27zY715SW73Y7LyzPW2yvMYBjahvsP3uH8ra+jnrtNrwRYpy48jiNWKsYkaX/4E0aIxaKA0jAiGBFjjx3cJItAjjUesBn3AAwpZezAGdzAsL9Q8R2u4WhaLykn2W5dnLfZbGiaBqUUJycnrkd3UTvw7GDRWtQzpIWh7eibLbnSSDvJj1ur2W12jEXJMJ9h7J9xeD8May11XccVJc9z+p2n+iRlLylVKgwhfB/oa5Lc17ER0r+vW4lS6QT/y14DwLCfyfU9hOYnNDUmpg/OtW0HfvMzX+CNtx7RKbj068L3vf5BPvTijXgUoclg+NwwDCid+UJLGMfJ0iolyMuKrJq5ZO3YMQwWMcLQjfS7jY9RvcJvb8jLkm4cePn9R5x96Q2Ob93Cbl1T+VSQlIPjP7wWaUee3kttj0HzXiRJaj1B/nnuFLLC9gEtDMii9ZYylBINwxAtXju4xhO73Y7FYoGwNrL3jTF7DQvzzMvyVZUrpEWwXq9jFbjjanZImZHnGQhBJqb+bX1eo6/xpNLxnhZNCPGzQoj7QogvJK/dEEJ8XAjxJf//sX9dCCH+kXCNLD4nhPiLyWc+5rf/khDiY+/1vY8dqFA+hzKx263LID82gVJ/+ZB5n47DVdd/4unHkVzQ6wCL1NKE140JBOKptP/wu1MXsus63nrzTa62O8pKMyb9BX/tc3/AL37yt7BoTxCeziU9/+CyBeg8WAElJCLPaI2lnh8hdcn5puPRowsenV1xtWk5P7/i4mLNdr1ht7mkb1quzs4xbQO7FjGbc3FxxjB0e0pdhyhv+iOESygHJn2A7gM9Kyyg0b0cHXKbZVlk9QshWK1WsQg1XXSVUszn80hgrspZZJAEDmXXdRH4CItPPXNajhgTRYSCdQzlPOEcA4IshEBYfA2foFjdeuozA9+YRfsfgP8e+Lnktb8H/JK19h8IIf6e//u/BH4Q+Bb/893ATwPfLYS4gVPL+ghunf+MEOJ/tdaePfWbE5dPCMvduy/whypHqo5MFzTNFoRCZhYGL5qp5LXdQUNDCEk0NB6Kd6Th6YFwAEdIxD6JqGVI4jRsVJOCBHa2FmODmI5k8DdsTGK1EYuyI2JUGM9lZDRoaziuZjS9oBYDO9yBa+Ct856f/d//Bf/xj/+79Ls1QgpESIz779DWYpTXvJQyphhMpsjynLyqyVTNP//MZ/jpf/LPWGY52JFa5/ydn/wRNpcttn3I6uYC17/EsDw+oswrzMMHe+CMtSNGamy8xj4xjLd4VrpFUfrzw3cK9eBHWIzC/YN9InaItfI85/T0NAqdSp/3yrIq9kEDF58qIZBaU/gJM4AjVAvBfFHSdR2zIsO0W2/VMrZti9U56/V66ghqDFJlZDqjs2CkYhhHzHpLcesGnS4ospvJU3X9eM+JZq39FSHEKwcv/yjw/f73/xH4BG6i/Sjwc9Ytr78hhDgSQtz1237cWnsKIIT4OE4+/Oef/u2TBRqGgaOjI8Axa5QW5Llmu9lgx+spUP74I6QLDh4XJij97n+H+9zT0SP3/Y8zQw4to5u4qazc5EKF4+v73tVrVSVWjiimUv4syzg+OmIQkuVyxmK3dcCBlWS5IFOCX/7VX+P7PvIdkCwf0TLKSTQ1qjRJEfXvTTfy7/0n/5krHUGwGxxY0vYdP/1zv8j7Fzk//IPfg5AddmXQ0u27ys88cCCiOI1blAwcCNQaG6rWp8UnAgtM5S5Ku8/keb4nFhs8lVAbF/KMgaE/eNcziPCAo3eFXtwBwAiAiBDuuy8vL510XtdSaBXZIVlWgpIMbRddXaxlHC1WGIQ/zizLaIST08sXS3/9ny6g+ieN0Z6z1t7zv78DPOd/j40s/AhNLp70+nuM6SFVSmF937K2c8wEIRRK5yhcXVcoUTl0p4wxcTppIUE9PjHiNwb00r+dxnzm4O803jIhxmBqRN57IMUmgb4QwksBhMk20heCzLjJYi30vaWoZixkR5Ydc77eMFMKG3J1GoQcWeQl9++fcvPomCrPHGomBEo6sVel3WekgqIqqWYLMl3wmV//JL/3hS/x3R94ic+88XWEF1xVxqKQMIxsty2f/dTn+PDr7ye3OaPWWF3SbTceMFKsd1tu5EeeeT/drcNrOxiDSHJuAGNnIAesu1ZFUbn7ZoOcgWYwgBlibF4UBV03UJcl280m6n44QVZ3T8qypGmaSBAOE7woCoaxoSzrWEFd1zWZVtGFtdYixqkAFSYSgmtimZGXAjtY6uWCdgRx6xUQT59k8P8CGGKttSLt4fpNDiHE3wL+FsBLLz6fvo61ElWVsAESVSvw9J2YCwuxApP1GvfzHYcoX3BfYlDuv/cQWLkufRAmp7U22sMwKfE2I91WSsnoJ2zb9hizZrFYeDkCR4oWfUYhJFZ13KqXDL07tr7vUXrSegQ4X1/RFSXLxQwtAtDirGKRacq64OjWTZb1kk/+359k7AduHi2cmOr7n6PfdpjBieUUMsOOHc8tazIhGZqB3WbDVaFR5ZJsc45VGpU5uewwOQwSK/bzhfHegSvVCT8AUmAHIJtAHONb97piUov2oEewOM6FVBEcSWO6cD9Ds4wANoX70jQNeSH3PAaXyuj2OrKG4w/Ai9Q5wjovRIYun6PLP5rZAiNce973iu3/pBPtXSHEXWvtPe8a3vevx0YWfoQmF28xuZrh9U9ct2Nr7c/gpMX5i9/x4b07luc5RVGwPvDu0iA8fe1pfx9un26TIobf6AiX2XqULIXpD93M/fyYcbDzrmOxnCGFdq6UdW5LnpXeIk+ipC4PN+2z6zrsMGLGnuPliiLL4ko9m804fu6EUSg+//kvIqXG2B4hFMv5nEpmdE1L33i+n7FoSpbzGfN57SUWPAA1GqyVWCP43Oc+5+F0RzNOUdfD+2Hw0nZ+MYxxt5oebKVc5cLYuyS2MDaWvQDRbQxJbiDm2KbG78a7xlPb27IsY0OMoNIVPgdEEdigwBzzZP64xnFEe+/JaURaNus1LI9ZvfLn3XPyDfC7/6R5tLRhxcfYb2TxNz36+JeAC+9i/nPgB4QQxx6h/AH/2nuOFNEbhw5dOf87MuuFxUoVc05wwIOU+8F1igSGbadL8eTONU87tvQzoaR+sIl1lBLLoWXU/ublSOUC7O22Zdc07HYdfUL/CavwBAz56+HZFOAeOmMFu671SsG+PxiCEc07b71D3/a0u45hMEggV64H9Wqx4mQ542Q54+aNOSe3jlmsaoqq2Lum49hFAu6nPvUpZ0Hs6Nxj8XjMml7HcB7p60IIJy0AtO0usvfDTx/b4Qqv0e/i8yAh3rbtXp7NX1iQ0sVTCgY7ILSgnpWReRJiOC1cXi7oO3Zdh5aSMs8R1vUAT2sbjRnodw21Lln9hY9iyZNJ9vTY/j0tmhDi53HW6KYQ4k0cevgPgH8mhPgp4GvAj/vNfxH4IeANYAv8pL/Ip0KI/xr4tN/uvwrAyDcyIjxsFbPZwiUSk+R0z4AUApVnjF1PMEcOEbzeuoVA9xDyBx+HPWWVOpykwdXsx5F0ebNwELc4OlEELixIqRiUQlgb+yxXVYWVrqXUaD1JWhjGRA03tZKBFR8euD7P2Ox2vPj88wxm4PT+A4Zu4PLcqfCOw+Dr3txRlmUJmaYcSvBSdEWWU5X7imIhdvmFX/gFRJK/QwqkVAQ629NGAGfi38OAukarMtyjsszjghJAj1CMCpbFYhYl7ZbLJU3XYRlRKvPpDIGxEmO6CKLkee5AKK2wVj12TMFqtm1LVlTTPVYFmJH+5BaZaRHvkTtLxzeCOv7EE9766DXbWuBvP2E/Pwv87Dd8ZMDeQ2sdpePo5knsCuPkDRSDEK5V7OjjMzNNwtFbg6Apu++2Td9i7RTQukk48QKfNCLoAq4gVUjEaK6xihIhjEcgJ19DaIWxNjYuVwl1SBhBKxMyrvXuJFPtFxAfPi0DB8/EnNmjszNWqxXjOHJ1+gghLFpnHB0d0TWNA4961+/ZNIZBGlAFL995nvPzU1f0WmrQOao8oifnc5/+l8yPb7jOnzhGh1ByolmRLET+TOVBLJz+PxhDlngaAZU8Olo66L7LosscLHuIwcqyjLFUADS01iipooXKYqJ7mswhV+Zc/KnlU+g0E75LSomWuPPMC4wUkBfU7//WWFT6jY5nnBmy3+jB2pG8KhnIsLaNNy8tGowIoZk0DgH/IErG0IPMPs5zDMNZNEc6Tl8LI9R+IabXpzIQQyCCHO5fAAiBMW6aSCkx1mKN2VP3ClQwe0CODnklh8D6Y5G+p7YKDyqxLEUphWk7zs7OAEm5WlGWJcfzBU3TYBun9bFrG3SZ0623/OBf/3F+5Vc+wfHxCZu+Rc1rqqMVW6N49613YDYjVyrqRB6mRMYDaWyHAifMFzuJnfZJp5gwiebzuaOE7TZU80VcFI2/Rk7nf4wcR5vsz1pL7q28RDTNAAAgAElEQVSulpKsqiKROuThQqI7yzIG0xEWPWOczMLcpxJCiyd3P9zEU0Yg85w/ybR5xicaOIa9/9Va7tx5nqwqsc2aLmEHCCEQ2j3EadwUy+BDrBN2JR0EZq11FjCJRYSUmAOfO0UbjS9TCU/PXuwhp1a+RrjktLU9xifGXSpgqpeKkgzWOvKPEJhhcLgBNloDY5w+vxICIwLK5dMcSkRNE1WUURLv4dkppu/IVMa8Cn2ZS9RiRqYVy5MTzk/PKMaaG8/d5vTd+/zSv/gEL774IrurNbfqmma7pbOSvmtBKnI9JZKFUpihAxLNRjGhvoyP15mFv1PycEhWz+fz2A7KFZ06MCKI6oDvAacnxn5gfoR8WVhgwNA1W9/UcP87A/s+eDEBZFFK0Y8dWhdIaXEsJEGRV4xSIBQUx0cg//jT5pknFaeAQ5hQaWPxsM1h1XXqooSb8rRtrkMg0/EY+54pwE9TBocj/c6UDpb+//+096axlh7pfd+vqt7tbHfrvr2wuS/DmeHMSLNoNlkSokm0DGLLToJYyofIkb4EcYAISJBIERAYCfLBCaIECZzFdoTIki0ZQWRHiSRbM9YykkbSbCJFcjaSPWw2m7337XvvOfecd6mqfKjlrXP6kmxyyOYdpws4uOee5X3fU2899Wz/5/+EtEBAb1ghommytEizZULRgMMLQYKicNwXKOnKYOqmP7a0ZEVGOSjRwjBcG2GqglMP3MfayW3aTHL8wfs4efq0CwoMBwglGUzGrkOpD5uHurDCs0rJLIvXa4XjMcnE4eic1TkKIOBFt6Cj46A5QOQCMihHZRSeWIDptU4ayt/b24uRRiFENAuttbHjqFIq9kQLZmHXdbHFL/RNHIOpmd730KDDWgtrxw7/Ya8zjrxGi+F2fJTKCs6cuY9vXH4l5s4Oc8Bvca6TRX7LDmt6HpBVH2718+l7y+UwywWo7rMCrZdxfOCjhdbzW2iztAkENMNqaT9ZgIwlc6EysshnaWI4XNdNLHfJMtezOtB6C+m9O2spqxyR5RRqHEtLWq1jh09hLV3dsLa1ibUOoNt1TWTshb4cJ71XYSGncxFG+luFEL7UpovH6rqOra0t5vM5s9mMza3taAoHJiutNevr644huSj64IaPKFrrkvWHcX2m6YGgPYNfFjRhOFdRFBhci18hJQdGMxltHbpOX298R2g06HMaWEE5nkDSSzrVTunIhHTOug+OpADYpYjha2i29DvpNWmtY1TRJMdyqC6PtUgW2apwCmExnjYvyxwXipUiaiMjcMy7RkecpuuaqaNghd+d5y5fJi2YtqPzdHKt0QjfBKLt5hjtmrpfPP+SC5crgcWhNhb1nLpZIHNJoxuKQYHBIIcFtlQ00jBeHyPzjPF47MxXBbIsUFVJMRqSDSrK8QiZZ6giX4rkxXkIrGW+PMlaGxd10Fa7u7sxJ5ZWUQM+Elm56mjo+2R78LGEKEjBrwtaLLVGwvNYLNzVSHS8hj6tYmJ/8CKvwBze7uv1xneURnPBA4NQOUoVmG6B9bVEYUgpkZ3D3Rn6HdZpALUMDI6ogl6b9Sde/ly4llR7Gd23+I2+RiJ0KUmQ+15/jSBpOtelEogaLmLs6KNjwVTO8xwpAp0CPhono1llhNMk1jjiUmstOYqyzMFmYCVXLl/jgQcewPjPhL1WCMdyNRqNUJ5BrCxLFxn1plsxGNBev04nbKxmVnnukBxCUGQZs/nc5ca8aauxkY0svUfBvHPzVERTOEQYU8qJ8JoQDkRceOFJBSLMU5ZLmrYjU06wAulOMLeDwEkpyT3VXNDOxhikcqVH6XdaYyjynPzYGaxUr9sY/rBxxDWa4NbmE3D/Qw/25Qor/hvQ75Y+DRCc81Q7Bt/FBSfcd5YLPt0IWksbE59HDSjlLe+744frdfG40GReWxvZjzvTIaXrfaYKx0ysdYsQjoOiNRqZZ5GjMi3VEJmIidW0SUNnXQV523WxsaHxLMmLxQHatJSVy7UFBuELly74/gEi5o6apgHPmSmMjXms6XRKPhwwmqxjkJSDEVk1QJUVNi8wWY7IC/KqhMz3H1cqIvLD3APxut2LjlA13kO/0bRtiwTGwyGDsiT3PlTwtbJcYmxHpxu0aX2uUVPkfYeaYC6GJHVamV7XddzMtLVucxDZkpmvVEGeD0BL6rlFHLJGbmcccUG7NdghhXAdK7Nl+rZUG6UmgiebXjILDwuEpBHKcAzoyXzS70cTMRmBjCZ0HW2NZTo9AFxXz4O66SuHE1atsAiLonDmVkI8pJRv2WS5xYQK6Y50p079o/B7tNaexkDQtnUUMu2Ps729HbunBMd/f3+fpmmYzWZcvHI5/v5gts3bBlXk5FUZk8Dj8ZjxeMxoNCLzYN+8KqkmY7KiiDTu6fwG/y6E27MkmhgCIYHHfwmH6oUkzFEwPdP1EExyZ1rnLp2RnCdEGQNcK5ig4RGq0I1ykLOu6yjvfYTbqe44bBxxQTs8Wzw+tkk2XPcwpj4gklIYxBC/TIRULu+sgbgm/J8GNiLrVnKDnSD1QhYLOaXC4Ig7OwG1aZk1c8gz5k3d3zgcRCvVxMGPEEKwmB348LQDBWdZ5jYUFUxFSybA1A1Sut5psVGh3+l109LUNdqbkBEKRl+NHCiyu66LC6/ualShsNIyW8xYtA0il0w21+h0G2Fina8N6wWkjNowhNazssJKRVkNyfKSvBqQeWEIzMBh6QWzOL1HgahHSseLH4pDUyDxYDCIAaMwtwHPGHKSacFo0KBp5NJ6OFnqh4drFCJD5iWNsYjcOgqH20Dpv9o44oJ2eMjcWstoY31ph3u1kUYJU42QorVXz+cWpjcVD9GY4VihSLRuW49xtDTa0FmQeREZmcK5uq7j3Llz8ZghyR1udGj1mtashWtNTaGiKBx9uFJUWe4FTkSmpqVoJb2/GAQkLO4g4Jubm0vVztvb2xRKsr+/z97eHmfPnvXU7Lq/Pil54YUXQEmGkzFWOgjceH3NkflUFTLPYgPAYlAtWyY+J6HynLwsXY2Dcn3ZVjVREDJjTJyjYPKFOVm9p2VZLoXp0/sYjuVybCp+N9yLNIiVIVAWRF696hq7nXHEBW255D8IgUKwfmxjyS8TcrkZQhpCDrtvOlbDzvGMt0QHRd+HLflMeL2xBlTf5nU+nXH2ueddPilxtMEt7AcffHDpGEIsA1eDILnyfNdUQfli1UJlMVCgZIaSEuUjbIGiLd2dw2/sug7TOBKjzMoobNZaxoNhDG+HIMX+/j6z2QyA9fGERx99NJamBK0O8O73vIeyLLl05QoGKAcDWu0ipSgnROVwwGRtzVV1+yrooGnCPQqbkVKKtbW1aKKmVBEp21WAXIXjBKEJz0MTj6Dx0rRDmO9gPgbBW7336bm1CTVqb15cjrigHeJHWZDCcmxri0ZCi8UIFwRQKifw64cQuZGCNuGxD5PqzETHDR/8uMBm5T4rY5LSWhtL94UJ5KCO9jrktRzhr2VzbZ2HHn0kmmzz+ZzWtzZyfomi8KYgsNTbLWimXAoKiL5l3GCEILNQKkkhoBASrOj9G+MgSEETh+RxkUnyQrlmikqAcVyTVVlSLxwVuDCW9fGEQVGyubbO2pojHK27lt3pPjf399id7nLjxjWEsOwv5rx08RXyMmdrayv6gy5RPOTy5augMjrPeTker2FLH43MJVZqF+FTRLbkoKmqwRhEhsrKGGmcz+cMh46k1OqWQZnHzpshfxj8rNFoFOFZYVMRQjCqBpRZTqEc34rNFMZvcoGzUVuLzDI64Zid3bpS5KcffJ21+m2S87yz49XbyN5/5l6ychBL9sMQUkb/Cjyo1S77YksRSpYRJmlgJA2qLH1Wu95i2vbdYRY+QHBQL+Jny7KMO7SUfZ1aNE+tjZoIn9hWvlJc+NB8ZqV7SIkwmkKK2HEGnHBnISCQ55FOL6YzJK4lbiaRvhNOWHhBk1RVFVmtgn8TFuj29jZra2ucPHmStbU1jh8/jpSSzc1NTt97hp29XWazGc8//zxKKS5evEhVVa65oW9Dpa1lOj8gy3OqqqIqh1ErBU0qRI+KCSZu0Mij0QhrHddi27YxmpyVLsjSJJQGw+EwavXwWtB8gUMSem0aiH3CuWJvaxwSRymFw169NuX3640jLmjL9V6pcIzWJuR55YVIkQlfhGKWhXNVUNJoY+BDXI1ChhECEAHCGzQZ/ptpjy6RKXan+zGKePPmTbRuHR9lnlHlGWujoaNSwCXTq9w1wSg98h48N4dvEtFfn/vtpTe9QhulwN+oEFS+/COTkkJIBplj4J1UAwZ5QaEG5HnJsBqjZE7pd/Uyy6nygkwpMqVQ0oljMNX29/dRSjGbzWLQIV2YunEm2pn77+P6zR3uueeepcbpztcqyQoX9ldlgcgURV6RqQKh8ihsIdEciE7TZvIhyJE2LxkMBhESFlmOpURKgzEdxvSmY2gVlVLkFT5fVkjlqi4sMb2hQrDKWmrPI/rtjCMuaG6kTn3423Ud9z/yMDJfbpez6qcJEcrZlynhVlEbh2lO55vJ+AjV0i6v5W5a2PVs5wIExmuDra2tpahXGggIO7b0plyeK0pPTR3MvRDWD+iWQva/IxNZzCqGpn/NfMGgKBlVJcOyoMozNkZDyjInLwvKKidPIElh8aah8yBIka/QpwIAJpPJUoTOWsuzzz5L27auRe3ahK2tLV65fInZbMaffOHPYsRUY5lMJsisIM9L8qKiGI5cro7l6umwoVZVteRjhahhURTOkhDCtWfqutjXejqdLt3bPM9jcWiWZQwGg2hVBH8PSIDIy3V3ndYIoSiPn8F8m6Jy5JEhYcQIYSIPw/EGUg1wNab9EKIn7JQWpO3p49JOM9H/evWzJidcDjQ4mhT3zel0Stu2VCNXYqHsMuuTYrlrSor3k8kNdL6ajYsu3Qxy4fN5WLqm8UBiCQIWBwdkRUFmYTAYUYQumEKickmR5eTWtaYdj9aweY7WDt0hhEBiaL0vEqKEN2/epFRZn1j27XDX19ep6xrZGZ544gkWswMGgwGNBzCfPn2aCxcu8qlPfYqdnR2apvH9okvWNje4cvGS1+CO9MYhWryvCks5MSklpQcDh0dZlo4WvnJ+WdCG4d7M5/MEgtWnD8LGURQF1voyIn9/vC3jLBS/GIwxlEWB7hRMJt+2RvqO0GiQoDn8REgLH/jghzC4hRnyZa7kRDg/TbuCTk3gne9Ze0OAQyGw0mKlC6q4wIp2z1egV33JjQtlN7rj6tWrbqcdVC6wkETJVhPdaag/NMkIvlQEwPoiSqx2xwKM1izaBbp17E0HbcOicS15bdOijIC6Qbcaq91uPRgMUHlGVZQMyhKROS26u3OT+WyG1S11PXdIimoY/RmtLcZAlvUN1UNaZDIc+aCOW9CL2QHHTmxTDh2vosayefwYo7URly9fpOs6JpMJs9mMa9euuSYgZY7NFDJ3vcilx6wOhkOq0ZBGd0tzpQpFOSzdPcwErXGV5Ht7e9GvxOcpQwFt+L6bW+Fhbq6kyNo+fK+tQ6F0dBgseVlQFYWDkwnHBtZI4HX6U9+OGB1xQXv1HJmLRmne9e53L0UHw3tADIqsgluDIKQpgFXzMTDlLiH0hbsxAaSaZRmTyYR5U9PVDZPhKPpg6XHT37DsA3qokCWaiSJWh2cxAY02iM6nAbRxwOHOcHDQUNeag1njI6gWMGAEprNk3v8rs74jpm1aFtd2mF27wfTKZdq9PfauXyOXDoUyHo8py5LNzU2EUDRNh5QZZTlgOBxjWhdMGQ6HbG5u8uSXv4IwNvo2ly5dwlq7VEN2cDClqipmszmz2RwpM4qi8ho0I8vzGH0NGnQ1HxhIdMK9HI/HsTgzWA4hdRCshlANkJqkYVMLXP5pG9/pdMpi4YJZQhVobRGTDVIWszc7jrjpuAybSoWhExIjDRvb92Ds03iPhdS2dDtXCMMv+3laa1SmIoIiPQeEqm2DUtB13oH2DrERoLu+JivwB4aAhlLuRqsEGRc0afxlwvXKFsZitCZ0nRFCRBBu1/W9nk3n+nJ5w9cJnd8AOmlo2gWDQcmwKkG4XtyZzLBW0GhDgWbeLGg8sNpOp0gF09098qykmc5YO36MfDJyZSfTGUVRIYSnx/a04q7C2XksTdPw/ve/P2Iki7LwebgZIDl16hSj0Yivf/2rrqlEliEmG5SDkkxA2zrKCCGgyPom7kJaz3/SILs+v9jnR/tCzjwTKF8+0y5qBmPHaFUUBQf7UwaDkqwoY5I9zPFkMkG3C6z2tEl+I2qaxmtxRxykTj8O1r4aSOm2x5HXaHC4ZpAejvTu972HfDiIgQJjEnCqH7H6N0GFrO6a6Qg7IvRJ6zSgoX3lcMiNTafTQwWp/yvjIzSoDzCjuq596f48Pq/r2oGAfR3WEjuUWd5wtNbUzRxjDPNpQ7NoIOAIrTtPfTD3IGLNbDZnPq+p65b5Qcvs5pTZzh7XLl7iwjfPsnv+FaY7NzD1gkxIhxIpHFtW8C3H43H0g4JmEMZy7uy3YrJ4MBiwv7/P9evX+fCHP4y1lvPnL3DhwoUIoRoMBuSFIs8co0tqPqdFn2m5TCZdqmM0LJHCxByobhysKhD3BO0WqhhSGoOAognmfZoCGI9doatQgumihWL0bQsZfAdoNFitHQscEgCOS/2JD303X/rsP3MwJ60jXEgkXVwCiNcY63Yo6bjf45kSYU61aNCKKQ9ILh38SmtNLjNyOaRZuF3UijSvF/YxryXDOazFdjpCnrquQ1qZnA8cy5Qg5BKN8dpR6D44Ea/T+mNY6jp0P3HBoK51XWXm89ovZEVWlHSd8Z02Be2ioTGWutbM53Oqa1cYrW9y/MQ2r9y8weaJbYSwrK2tsbe316NEjOHkyZNMp1Puv/9+JpOJL9zcoG1dtO/ixYuMx2P29m4yGg7Y2NhgVJU0TUOZ5S55rvtOM4OijIIw8JwfEsiLAiUlXWeoqiKak7nyJrbvf+YS5lUS7u/5QELU0lrLoCxp28USWDuYpkI5anJVrQE9q9ryPX21/w8fr/spcXg3mf9WCPF14TrG/BMhxEby3s8J103mG0KIH05e/xH/2vPCNcZ4wyN2uxQKhEBh0Ys5p+85HsPcLgksyZJWQIeG7lcgWKkwr5qZh8xJDI6sog8CQqS/1rQoVdK2mq7uWCxc7+O21dG/WtXaoQm7SHyEVe2eatv4Pa2jlgxJ2rIcxIVWjca0RkefU2Y5batpmo7d3V12dnbYuXKVC+deYu/6NQ52bzKbTl0uL0k0b21tRcB0irLf39+PWmhtbY3NtXUef/Qx3vOuxxlVA86fP8d8PvO0cCqmRQ6rVg8phRQSFQQxBHCklKgiNBzs8ZiwbL0AMZobrJFVeF9YG1YK8vHYbcpvwXiz3WQ+A/yctbYTQvxt4OeA/0wI8V7gx4EngHuAzwoh3uW/83eAfw3Hu/9F4brJfPW2L9TTv+3v7nOwv8PVV16m3t3l2We+yo0bVxgMJljbvWq4/jChWV206WfSwsNXG+mNWta6oSBx2V/UrUPWt20LJiTiw18dgce9GbrSNB7Ijcdtit6kzTy9Wu7NuVAPJ4wgzwuUKvyGkDGdLyiHI58DdCZWu6hdpxnACoXtBPu7++ztTRlvbqDUNaphxWxvn/VjW25DS5pqtG1LmeeYrqNpGk5uHqPen5HnBcPJGi+//DL33nsPZZZz48YNPvCBDzDdv4nClbvk3oRL5zOYfybptAlEmFbs5Gk825c1ZEVOd+AoEGKE2NMSpPexVBmGHnqV5tCstXS6I6smqHseBuGsim93vKluMtba30n+/VPg3/LPfwz4NWttDXxLCPE88FH/3vPW2rMAQohf8599TUFzLZUMujng6oUrXDn3HGef/iLnX3qRG1dvsHNwwExLrl/f4X1PPMHJkyfd4uuvE7c8l03CWFlNmFxJqO1aRZUIP9HSer4Oa5dbNlnHqCul9F0jre9uI31hqX9uDPPZPPo0tnW4xCAsVmR0FqzM0BYcm1eYA4f+CNcOoJT3Q40hVxkGixI20qopiD6ItQ6u1GpNZjLm83k0p0KAoc/tKYTKaH0/7r2be1itKaqC8dqEzEI+HGCMjvm+4XDIdDp1m4QQzHwwotEtFy9eiEDpm/t7XLlyhXe961GuX3Ock3mek/lK9DQ6HOY1BfyGSHFA9beLedwkB4OBQ7qUJaF63JH2LJPt5HnuSoKUm9Hgz8dEvudYqcsKlRe8FUIGb42P9lPAP/bPz+AEL4y0a8xqN5mPHXYwkTS52N5Y4w/+j/+VP/+Lp9id7rKYG3anM2ptmDc1g2qNzhiOn7qXZ89d4vip09C1SwxMS+bAayanl83GKAArAQ4hRDQ/hLVob/sb43yeRluMN2NDiL5tAuxHYYzECEGW5Y4m3LP72mgeivjXJuanNW4H7lMSRCETQiA6jfC5RGmJ5DShp3N4zPy1hV1eKcVi0VNr55VLCGdRO1qmuwfUV3YYDG4ynOywdeIYxcYaXdu6fti2Dw6Fspbd3V02NzfZ3t7GGMPe3h7r6+t84hOfYDqdcuLECWazGZmE3d1dxuNxTDyXeY41BpHgIOM8WMvW1pbrMe03g8CCBcSmi31nz9o14zB9YWxMXvtcW2+BGITWGHLK7dNoIziE9uRNjW9L0IQQP4+Lqf/Dt+ZywCZNLk5vjO1v/s7vcWN6EyUHzFtNjXIl9MWIGhf10p2gNpYLV6fcf7wHlYLzl5zf1pvbvfAs2+jhb+oTJNfl8XNOoLAuGBFosIN/IMlotaXrDF3bsrs749KFS9780UwmE06ePOk6tVhLXbdU1RBrNU2zAGTM/YQQ9cntbURW0LY1ZVGghKNBQEo0ztEWylEHmLZBZ5JMOhqEYlAhs4zCN3iQUjKfzykHA4Tx+TqpqD2LVG1aJutrNIs20m/XzYK2a7FTR/ijFYzahrWNDUzuALhds6DrGubzmdc6iqtXrzLZWPe5KsFgUKJ16+YvczhPIR08a7FYuI6dJP5vp7HSklc5EkdlZ63l6qXLyDxj6NMJvTaUMVcmJbGwtQ8whZIkHbGMYeMKm461Em002eYZ1AqJ7uEhDfMa7/XjTQuaEOJvAP868Cnbr9xX6ybDa7z+qqPuOmbWUAwn1DqjoeHK9X0GrWtVG+E2Yoa1gi9//Xm2P/w4ed636xGwpMkOC4Ksaq4U0pO+l5aCBMGKYXcbnHQnjPP5nOl+S9cZNo+dROuWpl1gBJx7+Tx0FmkkUkG7aD2xTh9QCCaTBC689DJZ7pHk2vA9H/4gwgiMrcmUM00DpEhjMXVHqw1bkzVaY5iUJUJJDqZT6lmLpSUrHAoiJGjdeR1iPcsKusxgpKsiiIBf3bGYHbBoGg72Zuzvz9g8sY0WBoVlMTtwmE8FptOUuQLt+EtG1YSD/SmjwWDJXDNeK4UEt1K9lkmttjD3woMNkDKi9sOchbZOrtq7jVXk6ebpagT7gEn4GzQ4eeFMRvHWZr7elKAJIX4E+E+BH7DWpkDD3wD+kRDiF3DBkMeAL+DsoceEEA/hBOzHgX/n9c5jkOzWirqtWXSWkydPsTOHndmUzrgWQq2GzmPXdg86Xr4x5dGTW2CNo6I2y9XVy8GN1R0r/r5b/l/lrUg1YZrTCufKVMFwmHsUR4fWOZPRgK5rGA9cGFl3HXt7UzaPb2JMRyldfZS2gtY4QK+0YJTBp/XIlOLJL32ZTGSx51tVFTzyyCOIHFAZ2/esc/nay8gsY7J+jLXBkN//zOfZXF9nNtt33USHx7j84iuM1zbRumFYrnEwO2CUDVFWsjbYQsiO6/tzVF4ipUZLiW4WsGi5ubiBvOn6W5elosXlv27c2AHtNorJZMSinVNVQ6Y715msrdEpQVYW6LYmLxRto+N9yYREiQT43XbRJAwaJ9T0LRYLsoQdzAmgg1tJuVx3GPw60AjRM211xkQzWWaZqz8zHeVjH+N2NdXtDvFaUTW/kGI3GeAyrpvMzwElcN1/7E+ttf++//zP4/y2DvgZa+1v+9c/DfwPODzLL1pr/+vXu7iNydh+6PFHmC1qGmNpFzWj0QgjYG9vL+5GB4sAxbHYZspP/+UfIst8BM+DgeUtZiO+77RZei9t7bqK8A/J2Nim12s0B9Py/3fa1appixUF9cEcp3Ec4r/rmrgI2rZlMh5jatekPMe1BqpbVxUwm804vr7hTT4XeGgWc6RukDJDty0y0IgbKKWrIiiyDGFhf7GPBR685wyqE7RoisL5jSEcr5TixIkTXLx8mfX1dTa2NinLkhdffBEhO+599GGsENSLlo2tTRbzGU3dYdFgJXKckxU5SJjWC7qmoTOdD+/DZG3A+vomQggmG+sOdQExJaK9v5t5iruhL94cDAYuGa16PGjfF60vpwnasResLsKswuhRJT2VReEFKxwnRh7Xtske+zjkfUrm9oZEiOzL1tqPHPbu6wraOznWxiP7wD2nfHTLRCdX6zaaCsYYms6z/tqOSTXg+973GPefnECn4y54mKBJWKpZikGN5DMpsDgIWvhMQG4E0zF0gQGX67Mmi2Ua1grq2vlhg8EA6f0FhSBXCtN2rkleJtnfn5OXLrS9sbGB1R3zeet2awxd7RidSlWgLWgP2dra2EA3NWjDZDBksVhEiFjbtozX+uLO++67j7Nnz1JkThvMusbRso2Gsc5uc1zx2He9j2ef+SaZVLSt5vy5c2RCsjdzPbXnesFC1+zs7nPixDGOHTvGYFxirWZzc53RuAQlGa+tMRqNmGysx+RzWuEALk868BQLeZ67inGP5BdCMBqNfLLc3a/RaBTNw0AOVBRZ0jW0j1i6c/Sh/kxKtO2PL3MvxO/6EKyfTkzHt0bQjjQypNOaFgt159DxHk5jhaNuFkL5xuOue8j+tONg9zJ/0NT8jb/2r6Kne1EYbYheJbktS/4cYwUAACAASURBVN+WFVb9t4Del0gbnrtHWn3d53dCgw2fUMdiRUtRKIwRHkqlGQ5KQuOOssxBG4qywBQZs2ZOpySjycCV1beKDE1nNWvjAiFKF/EcVlRVzsbamJ0buxxM57R1QzEsGZ/Z5tr5CzRCU46GGJyp9b0/+L0Iabl06RKbx7Z55pmv8ZGPfhitNdunTjLcGPP000+ztXmSfDzkC5/5LCM5ZHbjBh/4wBOMto7z4nNnefw97+apL3+FcjggH1RcuHKZ7QyGVYXWmp3rNxBynbLMmc4XGGEYjhyfR4hMCiHIfMul8HomJHnChe/83SYKYlFktG0d30/ZrrJM+g0zoVun9+v6lEgPvdJe+ELARBhLV41h4/TKKlx1Ld4cMuRIC5q1ljLLaW3ryDv9Trvwfa+01sxms7h7dcbdlPnC8ty5q9y3WVCovotnBPrGuPmtuEjAw5f6AEEqVAHrGAQ0IPnBoxAyF/0CyCyAc9oRrt7J6D6wIqVE+7a1QgjW1tacWdp2FFlGNVmjaRbkfrEFTJ4QAqRl/2BGXpVsFQP2928ymoz4yEc/ypXT57j0ykUef/y90Na8/OJZnn7qz9k+tY0xrvr74YcfYH9/n6IouHrtMmrnGsc2N1GZS1z/mz/x1/ncr/86zbVdmnKd0Ymc7YfuRxhLXpb88Kd+kKt7N3lwf5/z3zoLeV8XVncLVG7IrKXtappGxgptmbtE9HQ6jTz5mQhUD3VkIa6qima+YDKZsLOzw2QyivMU0CB948Yy+mIh0Q8OVZK2dwrWS3+P+7XRWYM9/iAd8m0RiiMtaCCo65aDgwPnj1nLaLQGjeb6zg7gtJ62FiVlLE7cm+/ym5/7PD/16e9D2p4IdTWSlQY2Yh5FuJC91j4yZrRvvZQiuJc7fobnIpa7pzddowqFI9JtPKOVxGiDSJLQYeeWAHlOLvpq7cD4a0xf5yuNceaNFchMRJzeN575C848dB/60gW+8c1nUFpQeXNKWslwPPQolRorrOtQo3J0B+O1dYrhgDmGfWNRWUFRVdxzzz188FOfAiW4dukSYtFw8cplHn7XY7zwwnNkheKxdz/K/mzGpauXGIgRuXRUEa7mzgekpOBgPne8LqIvzgWiSZvmu1xpzT5bWxuxF1sg4AluRPhumEcpXR2Z9N1Pu65Pegc/L3yu/yugqBje+xihPuKtHkdc0JytHjqH7O3tcfPmvrfJ+wJLwJshzmTTGnQm+OMnv8H3f+gxOq0Z5IFAM4lC+rOEmwu3VmBjbQQjx6S3EIROkeFmhdBzqh3DcykFeel4DI11gRLpzdY0z2OtK9lQybkzj+HLVObzdD4Ch6OrBoVSfTK9rWtmXlOJtsPoDvCEqU2DLUuKqqSua8ajNVCS+x54gFcuXWGwvsZBvaCqhszrjo/9lX+Db37pSUYb6/yzX/lHPPyed7O7OGBr+zg3btzgpZde4tixDeruDKfuO8XudJ/By2Pq2ZTZ/q5LnBeO/GcwdgQ7uSfDEfTBpDzva8RGvtC0i9Arh9sM8xTmO3zemY8sabQgTE7AlhubhNdDnhJAi4bJd38fxrRR8N/qcaTLZLQ2XLlynZdfvsjVqzeYz32/LwFCZGgkbWvoOoe6SH2txWLBcxcuMZ2HJHSLMbd2owxaqddOrpwlfS8csx+uQjqYcs6kzG4xQVMQrGsCISkKhVR9NC1NE4S8jsI1jAjRsAgP8potRXq4/BM89NCjuOgmrFVjhvmAqhzG39a1JppbTrN7tPxkzHTRsLaxxWLR8J73fwAtJD/wgz/I1n1nsIOCYydPcPPGLl3T8Ief/V2ef/4sB/WCT3z/93Fs+xSPPvow6+sTpO04c+Y429vbnDx9msGwjMiUIADhd6R8JeAif+PxOP7GULQZzMQwRyGnt3pvUhN+9b4GczNNw/TmpKHYOIXJJm+bkMERFzRrLcPhkOFwGBHsofYp9P8KE7m6aAGmdcfvf/lrtEZEc0PrFms1EkcXFxpPhMeq4EXqhKWbIGPUMSU/DTd4taI7Rr+EQFWScgRZZV2+R/gCUGsj10euAtW3WPq+vxBklqGKitP33h8ZgHd2drDWcRFevnqDAI4JPP8BFRHqtU6cOOEieMMxB/WC8foax06d5sbNPR599GF++//9Dc4+/03yQcEzX/s673rv45x97pucOj6hKCSPPP4Ql155gXIk0bTs712nyB0m88TJLTY219g8fZLh+hqicBo0lPW0bctisXDWg3aMVW1b4zpwGqzVzl8rsqWoZBCwtK4svB/r4gLMShhyRY/kT60Gr/mEtTSypHzfx5HC8YG+9ng1ZEh4vLFvHpkRVLy11rfTyWJdUWrGhRECDBF1YAwvnH+Zr3zzlaWARjBBwiOM1IQM/4fPw607ZdAuYddNE9tpaDndma1wLWnzrIy8FuG6lVIUKsO1fe0XUlhgm5ubcaHkec7NmzdpmiaG7wNvfAD4tm3L+vq6C0IoV25TlUOuXbvmPmNdicux7W2ObR9jPt8nt4Yn/+TP+ORHP8b6aMzVq5fZ3d3hkUceoigUJ7e3OX3/SfJK0HULprs3KVTgh3RdXzSWYuCoCgaDQQxuBC28tClmaglhn96TlGZg9V4v4RMTFyLMI/RuQNBeq+CCohhw/F1PcCc8qCMtaEELzWYzrOk501cXfnRsIfowMS8m4PNPPc3urFnKgYXju7+un7HjCOno+xvfKsz+ygATmxy6HF0IpKQmZ0gHuOeZdNoqkxJRGPKhICsEQgmnpZShszXIflEEYRZCxBL90CFmOp265LPuYqunuq7pmgaDpTOCutH81X/7r2OF4qBtXATUOrzjqBowv7HHtYtX2Lm+g96Z8uJTz3JiY5MXvvkNbly9yMc/+TFOHF/nyaf+jOGoYLA2AFOTqQ4lNUJopOqDOWWZR67I0FmmLMtYr5feu6BhQ/FrapkEnyzMZarNghmYmpEBSBAsjID6CBtOaNEV7qW1kt1FDacfJK2Af7vGkRY0KR0H+9bWVuzn1U/UcqFmXz+2HDVSqmBUjPnNzz/FzPS+163Ctiy8vanZoz/S0YOQlzGSWSZ9Tq3z5z8c/i2ExagOVUExkpD1ZDFC+L7Q9NXB0CPTQ0SuD/W7yGTrrzUyfQnQGr70hS+itebUqVMYoZhMJkwmEzcHbUPWtlx96SUWiwMGZc7m5pjJqKKsBDd3r9A0B1SjyvVx851uYi5Ruap3Nw+GLCuWQvDB3wo+FxAp7XrCU7lkmpdlGQlP03sdnqfrIG3sIUIKxQdGUisj9ZeNMYiiZPuTPwT0bbLeznGkBQ1cgnM6nUIGjWmWdq/UHNQ+zK+tW6jOalAgXY7koNE8ffYCje5oTUtnDJpgfoQks4x+WyiEdAtAYiMtguwbC/peaFaKpQ0gdb7DDrwqqIBH2Evy3CHbVaHcJUuJEL0PmUKMwAnvfD6lMy1NV2NMizFOGLU0aE+THsypixcvUgwqdqcOlho0iFuw7pccHOxDppEjxflXznPupRdAgcgE5bgkG+YM1wbklcTKflNqmgWtL74UypmT0tO6FR4BUlUVI8+uJaUjOj3wbMZllsdcV1iMoQ/CspZzFkZIv6RWRxos6roaa5c5MUPlffjtoMjO3A+DCcs+1pvrfRbWxZt/9x0eWncxUQ2HMwqvIjvCIkpBpcYYZouaZ75+llpLtBYuQZmYmP3uKTxu0TXNCN937y+3e129Manpk/pYaZ4njFVNp0WHyF1JPpn2zeFvrYkLv3m1vVDc1ZUT0qJQ0Ufq67NcOLzTDUYajDS0tkXkgrzKfSdSg8wE47VxDEgEZioDqDzHCsGiaeJGFAHXK78biAxhIfpojOPmCI3fQx1cQOJPJpP4WupbpURFIfgRLI00IBX+poKV5uqMMciNTYYPvue21uBbNY60oEnpcjDz+TxOXDApwmIDIp4QiLt/MPm09uFcqTBS8Lt/+gydlZjW3SCNWLpp7rwyKYm59ealN9TdRHNLpS70G0MseYmmTB/9iiaO8buzBJUrZCaRhUWVQGFRuUBmIJQlKyQyU8hMYQUYnJlohe+3Zq2jyhYCQ4exHYvWRRtVIVGF4uTpk8hMsmgWLJoFMhOOTS+ziEphcstwPEZkAk1Doxe0nUNipPz1WmvaRe181TTql5iOUkqM1igpXTV127r/laIauUBO5eFXoafc8obGktYKcxk2wXSjDecPHXxW72tRFKx/9w+gWKaSf7vHkU5YG+NR8vQAXi0BXGi2KArqpnFClESq0oTnaDSiyATkGZk1TNuOs+dv8OjpMZGPX4popoRjxK6Qh93woP2EY6ayQsWbnGqfSFpqdQyIdJ2+RZu5RvEZUvoNQgJIjNS4y1Oudo1ehyoE1gganJlkfBWClK6vts4kc1EzsBnIUJngcH35oODi1Vew0qLyDKsMSINQFlXl2MygcsW8WbjeAgiMNnS2obMdCOhs49AtQtBZjVI5XeMsiXm9iEGcIDirQIBgRjqcoRcaXKFu0zU4fkyFSQQY+jRLmOdg7YD251BL68CIgORXoHLWPvAxjDy8CeXbOY60oIXdKTA5pc6xFDK+HsymqEGE4fjWuhO0auAaqLc1ZV6iu4anv/lVHrr3ExEsLIRrfRSOE4IP1jpo16rpFjRZarKI5PpSgUuhPkHbvpppY0j7NFukgCxgJ63jIAlC33UGmQuUCVpVRmylttavN0dvLoFaNxSyROSO20Tm0qFkFMhcIgqFUWCkpfZRTGMMmRHornXrVOVLgYjVOQn3oiiKpUR0MNlSXzOYkdZahoOB+5w/tjMZlwUzzHkM9NgeFOwOqZZo2FeHlJJjH/kBGG8h7rCQwREXNK0Nu9P9JfNAWBDeWQ7r31pLruDYxlo0D/pFb1HWkuXutUJJ8mHFdDZnnCtEkSMECeTHLtv1acSL/nyr5KvGnawXSuF6JPfcgo5aO3w/jChkwbxxX8V6H3J3d8dRGhw0DIfj2BJJKRV5+qWUrr+aFCxmU4aTNXINhZEwGnnSHsdbX3eKcmPT/xZLI1rarmOQW5TMaRuXwzNS0jQLCpXR6I5CZVSV9fyWy/msQDdXFBmLRYe1PtFvDVnWV6uDcXQGxjAoXBQyx/GudE3DsCxcHwTb40YDVUTYqIJguTkKZrmI9yStjl9ClJx+ENZP3MaqMxzuUb2ecL52IOVIC1rUYE5dLDnaA1/8F8LEuRRLBXxptC/cKHBCOqgGKCVodEfWOvhOJuSSnxf+rpqOt44QIOmW/l9NQ7yWqeJSAf37vX9oI8I91F0pJdD0bL5hYygGFefPn+fE6RNoY0EKjNDY+sDxYzTOb9udT9mZTVk7vgbGuI3GWITVmAMDnpDUCtdlJhuOohZumgaZZ0sQprC4I+jZa1dhDMa6nmOZcM1HjHH1dwG3OR6PMb5MpQsaD9c/XIhgIvbUf25OHUtKGqpP4VXL82rIpODUg48j3v3B11hpb/840oIWhhLOP8nyzPlbwNbW1lL4XHq/xsqQz/I7YmdBaywZxhraTvPA1jpYB0LW2iJMi0gYkfqc3DK8K+ZglgIejjs+7KrB5HELBBAdJkntpbvskmZL1kkq8MYIQJDnQagyMuXgQm6BBwCy5v7Tp7wA+vMoF0XsrKXIFNOucRpqPmV2ceY3JdeKVmqn0Y2QFIUzP0uPgFdFjrFmybdMrzGNgIYyonSzyLLgYxUxODIalKA1RZ4hBGSq972WBcvVGkppkfSMxkrK2GA+vUcpMZME7P415ECC/XZC99/+OPKCJq2z8zfX1+OOFnJpaUcYCDe9z6Gk1bkah5631rIejuVR36EBuhQCkSyg1UjjqmZLBSVFli/9XclXpwsy/T/1P1e1YTrcYrcIIRG4RuahVRRKQSZiJ9D0POF47pgONQLam7Um5iar0dhdk/enuq6j0R1V7hApZaaWFnd4pLnClB04wKMCeVAIgijc9Qpre37F5LgOrygQsbSljfMVESb+t4UK65juEAY6zYVzZzkhO175vT3u+WQD7/5enANw51kFjnh4XzAZVayNBz4J2feATs2FNPufjhD2d22HMprGE26qjE7339HYpfY+KbtVOsJrq6+nu2iKNFld5O439QKWCll67SHCmibkw06fotnT67DW0mlLV3fLaYMkAKGUik3/eqHIY3Sw9DQCKSdKj1bpBS+YjkGIlvKDuEqFwHlptWZYVQw8lXjwq0rfCrioKtY3NzGEpoIWKS15LpGZ8JC6w3skxHN6IQ/BKdtZzj77NT7/2d/jqa88zd7lq9z8yu9x8XP/mLer3uz1xpHWaMHRTmuHQvKzbesEfQHWZktlJFJK9vf3nX8zLOi6hjxXSGPIcdW2uvHCkJS4Bx7TzvOQ5LKPEoaFm2qfcJ061SLpj3CxepTq8z4BGxmS4AKJynKfz/N8I1bfotlC2mL19fBaGjAAyJTwzQz7a3PfDay/SY1WnlGMhp7yrtc8C92xPpy4ubfW86yYWKjZH9NBpw72p2RlHmFiYWMIAOFcCqQg3teu62iaOVkmyKSfj3TDVMs5M2NM7OIZzXA3aWgs1ki+9Lnf5fxTTyP0jN0y5+mnn0LIBcP9m+jcoD7+l4Ex4ItnbwlkHBYQSV9zNX5vZBxpjRZMHIOi6Tpqn1hO0fA9+Y3bKcfjcQTebmxsMB6PI6JgWFZ0dRPxeKl2CYWEWlvfs9rt/KvBEPe/IAQ9wmtwa8Cj11rGEetYopDFX+iPH1IV4XsB9hWhYStaLmibNDmcVjRIcWs9XQrSFQkO8T2PP44EPvnxj6OEoqpG0RcCIhgblk3qkGgO5y98UadSPUPyeDCO2jBArcqEJm5tbW2pPm3VFQjnCucIebM0TRICNVYU/ML/9Pf48yfPomWBsRk7O7tcvnydZ595nnZ3l52vfo3pv/incPO8C2F/W7Cr2x+vK2jikG4yyXv/sRDCCiGO+/+FEOJ/FK5jzF8IIT6UfPYnhRDP+cdP3t7lCW826KXd2k2ws9MDQDbcoHPnzrGzs8Pu7i5Xr16NWq2ua27cuMZi0dDVM6QQfSvdBIxrjEG0Gtk5E8Str1uhV6tc/ZnMkEgXwpcZht58S78XNFkqBG5B2YjfCwDddBdfSiUkkbYgYMCysMmMvKjIsoJQlBoa0DtN7YR8bW3MSy+/TF7m/OEf/yEbWxtLG0dZlnFjCws/NZUDbZ0Qgul0SlYWEVid54qsdL2qldei0b/yQ6LJpGToo6urucYUbZKazEGrAuwvOg4OWv7n/+2X2deCi3XNc9OGTkisUHQLw2xvztNf/RqXLp1j+sJX2fmD/wd2L8OrcHu+9njj+unNdpNBCHEf8EPAS8nLP4ojTX0Mx63/vwAfE0Js4fggP4LzRL8sXDeZndu5yDCx0Ie+3XP3fvAv6rrmxIkTCOFKSoRwjen2910urqsXbEwGFKVvt0QSROh/lxPmTJEZibahpmm5Lipd/FJKhLWOjNNfVIBmpZ87LLhxmBka/k99mrQ8ZHX0mk34iCO+aBLfzdSbgl7IRCYQwjWGqOuaqipi7jE108PCrjzDVeBRTGFQ4W8oKA3vpyZ8nucOOBDQIbZjOChiS6YggCnf/6q1kd6f8BltHCP0F556ji8++XXmWiBVQS0t+82MLJtwn9llmGdcu3qD0eg0s5v7DKpLtGbB8I9+C/vId1G9+4O8OYG7/fGmusn48d/j2Ir/7+S1HwP+gXWr4U+FEBtCiNM4AtbPWGtvAAghPgP8CPCrr332fleLWscvchfJ6kvY9/f3Y+nHYrGg9p1IAnogBhOMiy5a66J1xgowvRlG1guUTaJTIbIVr2wlPA+H58piwEUv9+1K34/mXqKdwjnSnX01EZtqnh5HKWNfZ2stKhZaatdZUwhE5mgV3Hes90c7387WmedB2Fx4vv/d0dfyJlzoXhN859B3LACDw3eCRrLWUvpWt0Fw02OvAgFSs30VRN10HSdOnOC3fveXKUfe5wLIC4TuuLS/4NTWCCs7TNfxrW+d58aNm3xAvIf1bTj3wpPI3ZtsWc3Wu78bxO3iH98ejXbLEEL8GHDBWvvUSqTvDLd2jTnzGq8fduzYTUYKF8GKUCd8cNb7NCdOHI/fk1JycNCzkwczsG1bdNPG75x58B6McfmkzhhypaJqDDhB1LJDnjZLcK9LF14Xvcay/nqXzMJkcSml6LTGsFIVbpcT4+HzqY8kBD6flmqvZa2SctA7QUkqma31qBTJaOwbrpsual3nZ92K9rBaY7wvppRylN0IVFaQ+apql8vK4/VWVeV/ek9aNB6P6WpnYYTTCOmq5rOsT7pjDCpzGM6UriCNvEYLQFq+6xPfw4tnL3Du0jWOHbMUhaSqCpCWPC8pJwXPXrvG+06vMWafTCim0wO+9a2XeLR4hBlzrs/XuK/9PIuLl7nnX/lRXNnEYSsTeo33xgXtDX9DCDEE/nPgv3jDZ7uNYa39u9baj1hrP6KkvGWHSz4XW6gGHyKYK0GoQrFoazSLtqGzrkdx6DDzGr8RWA4guFZNEKZsNUiynFdyWMUgDKmJGcLi4QHLSdf0963mqVJEfFo0GY4Z5iRokvA9F2jIGAz6SudQhpKG56uEwDT8Df2qQ+GmlDKi4g8ODm4JVqQRRkdvkKObRTQP0+sKpuXqHKaaKwhh+siyjPc+8QQAn//jLyCU4vyFCxwsGvamC3KVuw2hLGC4ztMX9jmwioaOzsD1m/ssZjVra1tcuLTDc5cbnj77Ml/7ypd5q5tbhPFmNNojwENA0Gb3Al8RQnyUV+8mcwFnPqav//7rnciRuQS/RC9F2AZFzs616+5GiB5/CMQSibZtaXEBDWkhk5DZFiFyjABpbg1KSMQtQuRudoe1AaUfwtC3+l1KWMwKbGg19+MWt/+NGFcbJ0gEzZ+XROCM0xyholvKHqGeCrKU/YINppyLAmYMhiV5Lgm3PcuySC8upWR9fZ3pdOqigtE813Gz6wMjWeQnUUUwHR28ajIasT+bUZaVnw9DiyX35wvmreXWxo/xf2Hcr7f9++Ge3nPmFCdOnXBqHsn5i1eYbExojebCpcs8+OCDTA8WSAyirpFlgRCbPHnpPJ+8dwvbHDCfz/ncH3+e7/nYh3jXPU/wUlNzsJdz9rd/n2a24H2f+F5U7iyAt2q84SNZa5+21p6w1j5orX0QZwZ+yFp7CddN5t/10cePA7vW2ovAPwd+SAixKYTYxAVR/vltnm/p/8Fg4Ljr8yLubmFHr+ua2WzGbF4zr1sWOuTYXJqy0WBknw9RyhUxrmqS4JcsmSrWRQIDyHVZg/XQrbiQkuBGZ0ys3w0g5VQzBc0SXk//xt0+W/aJ0nOFv8H8SzcINz/KMYn5gMNoNIqLPvDXDwaj2FA+aMbwOwI5axq0CAIIuJ4BHiMZ2tq6YJPzfSuVIRVYNFKBykQ8Vjp3q/c7mP7BYvnwRz/K6XvvdV10pES3LZcvX2Ze1wxGI2SW8eJLL3Hp6jWmBweOFVnlqCyjGR/jazdq2mxIU3dUecUrL1+kfulJHi12MDdeoc3hj/7o83Sz6e0szTc0bie8/6vAnwCPCyFeFkL89Gt8/LeAs8DzwN8D/gMAHwT5r4Av+sd/GQIjrzcCEqGqRuR5RdO4Zgzz+TwyLMXwr8V3c+mclvOP+GMFDIRA06PJV9HhTiP0CP5QOm+t9QQ4LVYqjEgqChJhtUK53gBJmD+TGUqoRDDUob5YMKWC0AXWKCeQNkY+AR+yd0gPK0NZjDu2UjlpwWo4R6YKMlVhTEeWOe2X5rzAbT5lWZIVRfT7gkarRmM0gvWtTVBQjSpyKcg80iTPc4RSuF7iXfTXUmEK8xxSGCJJe6TaX2vtOtYACMMjDz8I3YJ24VirrWlRUnHt2g2yrHDBL5nTactsPsdKFRuilMOSvCy53kmuiwyhcjoBl69eZffiZbrzz/P4qKY7mDGbzvnVX/4V32F1mQe0H2+c+uB2oo4/8TrvP5g8t8DffJXP/SLwi7d9ZTikfahnCgI2HJaxUUJoGm6sWaKh09jYyyKYaJmEqsyWdlJIzbVXwTMmLMVad+TSEe9I6ViH0++6891Kb2C90Eq7HGRJtVaqAV8tpC1CRDTOKQjbw9EcKZCJnPNd17k2SXa5eDIEcMqyJJcqJvhDxFJKlx/L/XFDVFFrzfvf/34uX77MYDBwpmTdxEBRHzDyHPw+8pvnOfjAUe+3hryojr8o9Yldkrzj0Ycfo6ocEihYJ9a6yDGA0cv1ggE19PLLr9Auao4d26RuW/JqwCKTfGNnh9GxdUbMqIqCnb0F5txL3FsqRrJh7cx7ubY3Y/fadTZObL/uGr3dccSRIcSIY9u2cYct/G4bhCLNMbm/rlTD2ETTWHjkzCmk93FEQg2+KmypJlOIJX5BI/omF9CH71NBWQ3erAZFVj+T+ljp7h8WqZTSlZokG0F4lFnuIpf+92jdRi0VyobCsVKQb1VV8XngFgmIjXDNadDCCWPLSy+9BJiIyAnvBfOyzHMyKSmTc4eRbiy3cKZoHc3E0DXokUcei+aww2EKMg+JMwboLAf1AYHmT+WZC/bIjKwouHjlMtev77ioqDYMVUk2Ps6z16bcaAtmtWZRG3b3ay4+f4EPrlmqgxusDSt+5e//EnRvHS7ySAtayGOlINf9/X1msxmLRYvIcqwUCbSpFxznVPu9UrgnJzY33CK2fUh5dcEHjRL8m4DYgGW6t8461H9nzVI6YNXnWBa6EEjxWk/KyLaFlNEY6Rm4nEMuVO5gYUtJcteGCCWdL1I54lKZZ1hpWbSL2FQxNEuXUi5Vj6eCHSqjg1CmlOPQd9WsqiLiDVNTz4Hp+9+cCmmKbgmf6an8dIwcAz5tc4KHHnpoKcDVdQE03NeqkefUMqdZLFyiPVeoTLh0gnbtva7c2GOhHY+KxG0MjDZ4emfBQZZRdy11q7l5c58bL36Lh/J9uqsvMMhyPvtbOyAL6gAABbhJREFUv/OWAf2PtKDBMgo+oBbyPGcwKGLkLYye+Uo7XsRkkjSwXrZx51csI/5XMXZp8jhdOMFXSwUoRa2kAZTDtNvq66l2gls1rD/B0mspUDcNhoRHiokMVdghaJTy+Qd4lpQyYg4DQkRKyXg8jkEUKWVk1OqFy0QLI00TpO8HkzJldA6/MwhSBBcvas6cvodBWWC6lky63tbC6iWhdi2FDZQZddvSdMvnCPeiyCta3XHu/Evc3D9AW/c78uEAUQ34+uUDlMppmo4WwcsXr3Dj/Dk+cGKE7mpeeP4s5194Hqtfyxe7PT/tyAta2OkdJdmcogioc30L6sMFBhy8SCYTkFvLe+875jpfKWhN6/y4ZGGEIYRYMktd2yG/sIULQAhjMYsu1n0tgXVFTx7aB0gELKE3siWqtmUhdyBiF8pPw/YyaplACxd4H5Ey/gUHF3ObkG/g13WuVZKP+LWtq1IOGtvl3Ywv0HSavGka5vO5oyhQGWiDMDZyLioEpnVdfaztyJUh8yUuWS5jQlply0GQ3gfTDsDdWdq6Q6I4deoEgSk6JLLbtqbVGqSgqEqskFgB0miY1ezND5CZ8u+BFBkWX1kgBciM/ZsHvHL5OrKswIC1gqKq2JVjvnxDo4qctq2pZzWvfOs85srLbE/PcWKk+M3f+KeY+etFIV9f2I50a10hxFVgBlx7p69lZRzn7jXdzvj/2zU9YK09NIJypAUNQAjxJfsqfYHfqXH3mm5v3L2mfhx90/HuuDv+JRh3Be3uuDvuwPhOELS/+05fwCHj7jXd3rh7TX4ceR/t7rg7/mUY3wka7e64O77jx11BuzvujjswjqygCSF+RAjxDeGIfn72Dp73PiHE7wkhviqEeFYI8R/51/+WEOKCEOJJ//h08p2f89f5DSHED79N1/WiEOJpf+4v+de2hBCfEY7w6DPClSAh3DiUJOktvJ7Hk7l4UgixJ4T4mTs9T+IQ8qg3My/iTZFHvYGxWiZ+FB64oo8XgIeBAngKeO8dOvdpXH0dwAT4JvBe4G8B/8khn3+vv74SeMhft3obrutF4PjKa/8N8LP++c8Cf9s//zTw27gK0o8Df3YH7tcl4IE7PU/A9wMfAp55s/MCbOHKu7aATf98862co6Oq0T4KPG+tPWutbYBfwxH/vO3DWnvRWvsV/3wf+Bqvwm/ix48Bv2atra2138LV4n307b/SeO5f8s9/Cfiryev/wLrxp0AgSXq7xqeAF6y1517jM2/LPFlrPwes1ja+0Xn5YTx5lHXMbIE86i0bR1XQbpvM5+0cwrF/fRD4M//Sf+hNjl8M5gh37lot8DtCiC8LR2AEcNK6CnZwGuXkHb6mMH6cZUazd3Ke4I3Py9t+bUdV0N7xIYQYA/8X8DPW2j0cR+UjwHcDF4H/7g5f0l+y1n4Ix535N4UQ35++aZ0NdMdzNUKIAvgrwP/pX3qn52lpvFPzsjqOqqC9GsnPHRlCiBwnZP/QWvvrANbay9Zaba01OJqGYPbckWu11l7wf68A/8Sf/3IwCf3fK3fymvz4UeAr1trL/vre0Xny443Oy9t+bUdV0L4IPCaEeMjvmD+OI/5524dwtSn/O/A1a+0vJK+nPs5fA0KU6zeAHxdClEKIh3AszV94i69pJISYhOc4cqNn/LlDhOwn6clsX40k6e0YP0FiNr6T85SMNzovb5o86rbH2xmN+jajSZ/GRfxeAH7+Dp73L+FMjb8AnvSPTwO/DDztX/8N4HTynZ/31/kN4Effhmt6GBexewp4NswHcAz4F8BzwGeBLf+6AP6Ov6angY+8TXM1Aq4D68lrd3SecEJ+EWhxvtVPv5l5AX4KF6B5Hvj33uq5ugvBujvujjswjqrpeHfcHf9SjbuCdnfcHXdg3BW0u+PuuAPjrqDdHXfHHRh3Be3uuDvuwLgraHfH3XEHxl1Buzvujjsw/j8zSFfO/7hblgAAAABJRU5ErkJggg==;" vertex="1" parent="1">
          <mxGeometry x="110" y="190" width="218" height="252" as="geometry" />
        </mxCell>
        <mxCell id="pfyJRae29XaRhcZbtj-z-3" value="" style="shape=image;verticalLabelPosition=bottom;labelBackgroundColor=#ffffff;verticalAlign=top;aspect=fixed;imageAspect=0;image=data:image/png,iVBORw0KGgoAAAANSUhEUgAAANoAAAD8CAYAAAAR6LrwAAAABHNCSVQICAgIfAhkiAAAAAlwSFlzAAALEgAACxIB0t1+/AAAADh0RVh0U29mdHdhcmUAbWF0cGxvdGxpYiB2ZXJzaW9uMy4yLjAsIGh0dHA6Ly9tYXRwbG90bGliLm9yZy8GearUAAAgAElEQVR4nOy9Z5Bl6Xnf93tPDjffznGmJw9mdmcDdhdYxAWWIAEJlAUwiUGUZVJVJm2pZNmiVbZsl2WXXbYCP8lFm7YpS7ZIibQJkSBBkARAhMVid2bj7OzEndTTufv2zSe+/nDuOX07TM9swKCX7H/V1PS999yT7nneJ/8fIaVkH/vYx/cXyg/6BPaxj78I2Be0fezjAWBf0PaxjweAfUHbxz4eAPYFbR/7eADYF7R97OMB4IELmhDih4UQF4UQV4QQv/Kgj7+PffwgIB5kHk0IoQKXgGeB28ALwE9JKd94YCexj338APCgNdoTwBUp5TUppQ/8a+BHH/A57GMfDxzaAz7eOHCr7/Vt4Mn+DYQQvwj8Yu/lY/2fWaYBgIxjYikRiOS1lAhFIIRAxjJ5LQRRHBHFicZWFQWQCKGQanEhsqNm+4ni+K4nryoCKSHeI9U0ihAP/FxURUHXdbqeByR3Ttf15A4KCIIARVEIo7vfR11TkbEkjGMs0yAMQsI4RhWgqiqqqmbber6PYRhIKVEVFc/3EQI0TSMIAgQCwzBAQBzHIJPziKIIRUl+6zAMURQFRVGRUqIoCp7vYxo6mqYRhmF2be2ut+18c46NEIJGq32v27MspRzc6YMHLWj3hJTy14BfAxBCbHqKpkcHMQyDWq2GomgIIeh2uwghyOfzdH0fKSVBLJlfXN6032qxsHGTPQ9VTW66qqrJD5Qcj+X1+l3PLRXavYIfhMCPDFSZXVzKXksgZ+g89thjXLp0iVqtxvoOD2s/gjDK/q7mXYaGBpibm8NQNQqFAlEUMTY2QbfbZn5pESEEV27NU7RAMw0sy6KYd7l8c5aKa1Iul3Fdm2azSbFYpNVq0e76WJbFlRu3GR2oMre8wuRgNRNiBbBtk3w+z/r6OlEUkc/nqRTydLtdVE3D931UVSUMQ3K5HM1mE03T+ObZ1+52aTfu9sGDNh1ngcm+1xO99+4LpmnS7XYJw5A4jlFVFSFEtnIpSnI5W4WsH2EYZhov/Z4QIlv59nF3uIa+SchKrkPBtojjmJdffpn5+YVt3xksFXfcV8m2AJhdXmNxcZGhoSHy+SKzs7NcuDFLHMc0m00qlQrFYrKP9W6ApmkMVCpEvUUmhp62UlBVFd8P0TSNOI6zBbRer1NyHeI4zjRuo9HIvid6po0QgjiOEUIQBEHvTBXCMKZerxPHMe32PbXajnjQgvYCcEQIcVAIYQA/CXzpXl968vQJTh89SBzH+H6IrptAYurFcYxpmompAKhCMD60XXtLKXv/IiAmDP3sBkNiatwrMFToPRx/UZE+8AADxQJxHBNFEZZloSgKtm1t02biLve01un27bfMqxevMT9/h/GpZB3+2vMvsLy8zLHDR1BR+cDhgwBoCrxx9RrXbt0BQEYRl2/O8vKFK1y+OYdQVUIvJAoiVKEyOTKc/c66rlMul7MFNookjpmcu2EY+L6PourohkEYhpimyTfPvsIL5y/y/GvJv1KptOk6Hj99/L7u3QMVNCllCPwy8BXgAvBbUsrz9/pevdNGV3Q6HY84jpFSYvRuRhRF6LoOJCtS0A2Qiti2j6Xaeu/mJgKl6zpSSnzfRyqC9XaH9XbnHufR3fXzP68ouQ4Ad5Y2LIVut5vd92PHjrFQW8+ExzV0Sq7DQD7H4i6m+PRIlcGCm2mPlU7AgQMzDOdtyqbO+Pgkz33veZaXl6nVapTsxGwEGCy4DBbczIpJEUWJWeq6Lt1ul0ajQRRFNFttGo0Guq5jmiZCCFzLxPM6qAhkGCFiyVe//TyqoeNHMV97/qVt5/wnz53d9Lrb7fLxpx7btt1WPPA8mpTyy1LKo1LKQ1LK/+5e23/woROYiorneXS7yQ+ZmnhBEGDbNlEUEYYhYRijKAp35hd33NdKvUFyycm/1ExYWVt/ry7vzyVqOwQBDMNAVVVafsCFCxcAyBuJ4JmmiWEYLDeajA0O7LjPasGl0+kwPj5OpVJhaniAmZEhLl26hGnarHkBUSRZW18n7q2bk5OT+L7P8UMzSSCkZ/L3o9vt4nkeYRiSz+cB6IQRIclz89LrFwjDEFVVCYKAbjexbHzfJ45jnjh1lKDrYagKn/nok9wLnU6HxcWdn7d+7PnKEK/dQkpJN/CB5Gbpuk4Y+hiGRi7nZLZ4HMeE25XZJqy3O9Q7XZZqiXD1R7j2sRmTI8N3/UwIwcjICECmtSwn8dnSSF7RsalUKpu+N1QuAKApCidPnsT3u6yuLqMosLi4iAwjbNsG4M7CHXQ1iQyapslqrcb8Wp07d+7Q7iaaa2hoaNP+gyCg0W4RxzGLy8vZswGw3k7MWs/ziKIo06SqqrKysgJAo9HInom1tbVd78/U6ACVSgXf93fdDvZg1HErVMOk2+pmwQ7f93s+WYCqqpmpAOCHIQuru9+cfkRRtMlP20eCA+NjrK2tsb6+s6a3VIWVegNFmWNqdISbc/MAm8x60zSRUnLjxuZA3OJaIpSKovD6669TrVYJgojrc4lZKqXg4q1ZZkaG6HQ6aLqGruuouo4Vx8wurmQmvGnamKa5af+KorDa6uLmi/i+v6O5n0YT06CHlJJSqYRpmhQKORqNBouLi5t80n48cvIIQgjW19d54dUL93VP97xGC8OQttclCALCMMS2beI4RlG0TND8MEaKxLwcLBUZKBaoFvJ3jXilWG93djSL/iLDUhWWlpYwDGPbQzo5MoylKnR7ObI0ulct5MlbZhJMUBSiKKLdbme5rK0YHxrE0g1qjS6aULg+t8ipIzMAXLmTBDkiRLYQXrh2g/X1BrduJQHqomNTcR2WlpYyQZsZH6No6dycW2SoXODW/AKKopAzjW2aWQiVXC5J99i2CcQ4jkWpVMBxHAzDYHBwENu2eeqRUzx++jiPnTqWfV9KmZmn94s9L2idTmfTyrM5LK8ihJoJoaqqWcgW2NdW7wDdKKZSqWSm9cTwhmm2tLSE4zjZ6zQ0HoZh9n+5XCSKAtrtJr7fpVAobDvG2MgQa2trGCQL6eRQFc/bnnszbAfPS8y7W/MLWSBERhFRFKGqKs31OscOTAOQy+WYGB7A932GK0l0MZ/PU69vDsiEvk8Y+igKNJtNXrl8g0qlQqfT4avffoFvnn2N771+iedeucB3X3qdVqtFHCeaDMCyLDzPQwjBk2c+AMDJQ1O73tc9L2hCJAlDVdd7eZIkKa1pGlKo+GGMpiUWcGorCyGynMg+3h5cQ+dWXz4sjSxCIoSrjSZD5RIDxQJhGHJrfiEzEzthRKPRQgEKhQKGYWzaV4rbN27iOBYf+MARTp48SbFY5PLNWYpOop1KtkWn08H3fZbqjex7qZsghQBFoRVGhAJc1yYIPBqNFrcXlpmens4EN/X38taGiWlYBp1OC98PqdfrPHR4ipWVlSx40o8PP/ZQT7A62LbNM08/QbfbxbIcNM2g00mO88bVm7ve1z0vaJ1OB0VR6Ha7GJaFYRhEUUQcw9WbSTVXGrbXdT3TZmlSex9vDy0/yP7OWyZv3d5eT7C4ViMMQ4IgYGxwILv3lppoECEErptEFXOmgWvom75vWRbHjh2jVqvxyiuvZO+7roupCIaGhlBVkQVZhitFio6dacdG10PXdWYmxwjDkHPn3wQ2FtpX3rhIrdXGtm08L9k2tW6GyiXsnrnZ7LQzDT0yMkKjsSHUp44c4KFjM5lFVSwW+c7ZV5OAWxhiGAa5XC6LhN8Le1rQbMtECJU4Thzf9fUGnudhGAZxHHNgfGxTZYcQIsuT9VcG7OP+MFTenIzdyZxLofRqHhuNBkEQEAQB4+PjeF6HudV1arUalUqFpudvEl6ASqXCrVu3MIzEH0oXx6WlVbxY4rouAIcmxnn89ElyuRxCCFZXV7N9WJaVVPP4PjPjI0n6pxfpL9gGJddhdXUV3/fxfT8LbMheKqhUKlHKFxgcTPy3drvdVw0CioRqqYxtmHjtDjeuvcUzTz+RVZacO/8mq6urhPf5jO3pqGMcxVltYhhvmIipEKk9v0BRlOwGwIbpuB/ouH/YmsriWm3Te76ER0+f4txrr2/bfrXRzP5OqkRCOp0Wc8trlB0Tx3Gy6o2tWG828P0QVfUJYkltcZGxwQp3lhJBWlpaYG51HVbX4fYsw6ViVoUCSYWOQkyz3iKfz+P7Pt2+EHtSzBBTKBRot9uoqmCwWmZxfqEX1vc4MnOcS5cuoWkaipI8V997/RJPnDqK53nU6+soSpIuEJqOomu0Wi1s2+bVi9cAuLlw91K/rdjTGg0h6Po+Ua/4N81vpDmQNKq11UxMKz/2cX8o2Bbj4+PZ69GBalYNMjc3h6Xu/pjU63VWG23uLK1yaGKYYrGIoW1fw4fKJfKWydzcHKZjo5kGKAoDQ0PcWVrFEol/NjAwwJGpcaaGk2R3GuBKNaNhGKytJ/mu4eFBgiDANE0OjI8xNTqSVa3U67XkuTF0zp1/k0Ihj6ZpeJ7HnYUkyez7Pq1WK9PeaeK6XC5z8OBBHMeh2WxmpVvNZpMTM5McnBjlocMzjAwlecIPHD606z3a24LWC3qkxaBppCcMw95KpPQ2S8zG1UaTxbUaURTtavbsYzPqnS5Xbmw4881mM7MGdF0nl8vt+n1fwsx4krxOfy8hBI6qUHbsrEZ0ca1Go+th90zD5eVVpJS8fvEKZcfO/Lvr169n+wGYW13bZJ1IKXEcixh47txrLNQaLNUaWUqhUhnIhM8yNKQf8OHHHkJVBaVSgXK5TByHuK6LbdtYlpVFNDVNo1Qqsba2zpUr17BtNyvVazabeJ7HhWu3MAyDRreDbST+nmnuXviwpwVNInf0s9IVzvO8vmLhjVKcNAWwj/tHmnMsOvYmwVpfX9+1dQiS0quJiQlcLQk4RL3wu5vPY/XyUgClQrLfNP9kGAZv3Z4jZ2rk83mklBw9ejSrtgiCYFsOLG+ZGIaWlD6tbT6vxbUas4tL3Jyb7+XXkmekUChkLS61Wg3btlF6j0u5XMZxnKwKRFGUrBIlDENu376N4zhZKiN9zuIwzOooAWq1zWb3Vuzpp1HKnXNhaS9ZepHp/6MD1ay2bj+H9vaQ5s0Mw2BueSV7PxWS3VAqlfiz51/Etm0Mw8lKsNLFsNvtUi3kccxEaygk0eRCocDR6Qk0TWN+YZHBwUEuX76MbdtIKalWB7elB3RdJ47jLHJ4dHpix3NaWF2j0+lgWRbX5xZpNpu4rouu67TqDYrFIu12m8XFRTzPI5/P89QjJ8nn87RaLSzLwrZt6vU6rVYLx8mhqjqpyFy+OYthW0S9AEqz2dzxPFLscUGT6KqalQHrqoqiJEKkaQqOZaCrG71E/b1m+4GQd4ZU4O72eifc6vWoxSi0u11uzC/hhxv9gr7vEwUBnVaLiusQBAGO42TRxFqri2UaXLj2FoahZamDN65e23ScomNmQZiFWhKKr9VqDJaKlNw8kyPDTPdpwFwuh5PL8aFHH846PdbW1qjX6zQaDfL5PLquYtuJ9rINk+XlZXK5AuWBQbpBiJQCy9roZev3/SM/IJdzePrxhymXq7veoz0taIrYMEVStZ3W0/XXPqar3FJtnbnllft6OPZx/7C1+yu89jwvy232RzDHxsYwTZO1dodcLkepVELXdZ5/+bXMjKx7SdRQ7S2chmHw0LGj2T5ypoGmJdq1v/lSVVWIYzqtBrfmF7JcWxLAibl6c5bl5eWMDmFwcBDHcajX671KosQXdF2XZrOJlImPeP78a0n+rFLGdV3m5+czDXf80BQHJ0YxDINyuYymaWja7qK0pwWtX7BSYUvrG1MKgv7O6ko+d8/6xn28PbiGTqePeuBuGB+oEochRcvk+KEDAES9Nqbrs3cIosTECuOQtfW1zPfu7544ffQg5XI5+a1jSavVyj4bqFRwLINjByZpdDfyXVEUYFkGA71m3/nFxcyPS92HlO4iigJ0XSVfKmLYFqoqaHU71Ot1isUiL5y/zNDQEMPDw0gpejmyGCkEHc9jfn6+Z2XpBEFEGMZ896XX+cZ3z96z7nFPCxp9dXSGYSRlV71IJGzk0zzPo1QqZT1K+3hvYKlKVsJ0L0RRhOvajI2N8ObV65RsgyAIuN0Lo0ddj6KlUywWMU07+50u3bid7aPRaFCtVtGEguu6tNtthooFSrZFFG30HqYRzo8/9RiFQoHbiytZkKIb+DS6HpZl4TgO4wPlLDiWzyd8IEkxsU2tVkOGARMTE7Tbbc6cmMnOo1AocPHaDXw/ZHFxkVqri+Mk/me324U4xrE2Ou7f34KGzIo/00hWWhKTlGFt9KF5npcVG+/jvUE3ineMOO5kNcyv1VhutLlwLWmLkULNFkSA9SDC6RHclEolllc3TMuhYmLuDVYGURHousorl68yt7qGFJJap0u322VkZIRWp8W12Xk+8uhDzM0tIKVAstH9PVgqMlzK4/shN+cW6XRauK5NJCWKVDBUg9cuvcXLF65gWxaPnDlDHEkM3cQxk9yhZia0Bp//zKcxDCNLpLc6HfyeQK2tr2Va+qFjM/fsa9zjgrZRIW6aZq89ZkOY0sgWJInGtCJkH99f5HK5e/ptmqZtKxoIgqSHMLVMUqQ1jZ7n0Wq1aPb8tbyhZ/WLS/UWigJzy4n//a1zr9Jst7l6e27TMa7NzmNZVhYMy+UKHDx4kCs37jA8NorlbnQfTE5OMjs7S71eZ35+nkqlwtraCi9fuMKtxRW+9JU/3lT/mC7ukRSYpp11BUgps3TB3bDnBQ02IoopEU8qUGlQRNO0TTx++/j+wvf9zG8brpQ5cfgQU6Mb7TSWquzYi1YoFPB9n3K5vC1gNVAsZK1QAz0NV6lUsq5ogIWFzaF+KSXHDx3IGLVS9Acmbi4sc+nSFQD+6BvfygTi0MQwd+7Mo+smL7xxiXw+T7PZ5OyFqwCUbINHTp7IyrMg8SfzrpsQDsUxOcfh3/vss5iavq0BdSv2vKBlVHC9qun+ws/+z/fx4NBPORcEHkHgcXNugzfDdV1M08Ts8+8mRwYzjfbdsy9n748PVTk8OYapq1y40evGUASPnDzG0tLGcR46dgIVwZHxYT762MN8+MxDeJ6H53n0lzR88sMf3GTVnJjZaJkpmyqua3Pi8HTW2JkeQwJf/945Pv+ZZxgpF6h1/KSIWUm0cs40kkS3otBuNwnDhDfy//3yV1FVgW3tnm/c84IGyUoiZJBVjKcrpWEYdDqdTZQE+6bjg8Vqo82VvoDGoalJWq0WC6trm6jmLMvaRh2RMzWKxSJLKyvEkAlPaq61+9iOX714gaNHj3J5doFnn302qdYA2s0mqhCZKXv2pZe4ciuhVhgsuCwuL3NrMUnADw8P4zgOcRiiIpIC4as3+NwnP8q3zr3Kk6eOszS/RC6XaNR2t0un06RayKOqgvn5eRYXFwmCgLoXYlkWT5w6uql44m54x9X7QohJ4F8AwyQLwq9JKX9VCFEBfhM4AFwHflxKuSaSO/yrwGeBNvDzUspz93GcrJvaNNWsXR7ImIZXe/Z40bE3VZXv471HwbZ2pd2TMqIbxRycGOXyzQ3290Iuh9fpbNJ8TS9EyKRBd255jbnl7XwvlbzDaiP5fX/nD/8YgK985SvMzMzw/IsBlqOz1kcTWO9sRP+W6q1N+3ILRW7cnuXIzEHq9Tqen1zH73/tm5w5OkMQhnQaLa7cShYOz/OSa+1db7WQJwgCVltdCmaSf1OEwA8iFH13UXo3Gi0E/hMp5UngKeCXhBAngV8B/kRKeQT4k95rgB8BjvT+/SLwz+91gDQsm5ZcSSkzHy0NkvRHe/YZrb7/EOLuD9RAcaMRsj8HBhBFiS/9gaObq9zPX7nKwMDOlHRFx9zR91lZWeL/+u3fpeEHb6s4od1uY5pJ9cdzr5znW+c22n/K5TK6rrNS2xD2rQuKZWgMDg9jayrDw8O8cfV68r6po+/AJdqPdyxoUsq5VCNJKRskhKjjJNNhfqO32W8Af6X3948C/0Im+C5QEkKM7naMlI4gESAFKTcS1kD2WVodvq/Nvv9Yb9/9HjuOk4XCtxb8ttttbNvl/KWrGWUBJLWKb22JHG4cy9tRy6mqzhd+5DMcmRrnyNTkDt/cGbZtc+HaDQqFAs8+vcHZ+LlPfpQ4itA0jcX1JkXHZmJ4iJy54Xe5hk673abTaqGrImMI0ywT07IeTB5NCHEAeAR4HhiWUqZ3bp7EtISdJ8mMswVCiF8UQrwohHgximJ0Xc+c2bT5LyXiAbKE9j5+8Og3C7fi0o2bWeBhve1lubP+hPX9olod5Lf/4Cu06o3MPN3aHb4TUu7Grz1/lq9++/ns/Uajsek5UlU1S7Sn0HWdw4cP0+12mZ6eRlVVPvHEGaIo4q3bt7bxV27FuxY0IUQO+G3g70gpNy1jMgkHvq2QoJTy16SUj0spH1d7nOhpoTD0E6hu5ND2Tca9g34SnK1YXK8zNTzEcCl/135B6z5+yj97MXHti5Uyw6XkAb8Xd8fh6SluzC/t+JnrumialgVhUssozedBwtZ8+/btvs6CclLEHoQcmT7A7du7LxjvStCEEDqJkP0rKeXv9N5eSE3C3v/p0vCOJsmkHI6xquCHIfNrdRqtTlbnuN9JvXdwaGIY194uaP2moucllT13G+2Uz99/reqFazdYqCWmar3TZWKwwmApYbKaHNk86ORuXeKHRgb4g298m+u3b9HqBjtuk8Jxcr1qpBjHNBBCYNk2X/3OiwwN7jgWLcM7FrReFPHXgQtSyn/S99GXgL/e+/uvA7/b9/7PiQRPAet9JuZdDpLQzQHJIIJeuHi9vRHS32/w3Bs4NDGMZVnMr+3eJGpZFq7r8mOf+5EdP79bYGQnjA5sbk3pr0a5tUV7vX7t+o77OH78OJ/+8BPk80XEPSwj3/eT2s8oxnEcTNOkWCwyM1Lh4sXLu3733TylTwM/CzwjhHi59++zwP8APCuEuAx8uvca4MvANeAK8L8C/+H9HCTlcUw7ZHOmQdGxCSKJH8aEcWI6Vgt5Bgt5CraFqe+bkg8aV28vbIs0njpymLyhb6rugKQU69/8/h/suJ879zDBNiHeHIAQqpoFYwA+cHB6168rJP1sjXYLLwgQ2s6+fhoUubW4RKPVQtE1up0OuqbRbDb5xCc+wXSvY2G3Y70jSCm/JaUUUsqHpJRnev++LKVckVJ+Skp5REr5aSnlam97KaX8pd4UmdNSyhfvfRCyGse0zKrfX0srsfvLsdJt9/EDgKLxhb+0oalWVlZobKGai+OYmwvLPHLy2NZvU3bse04LTXFwYnSbn7c1enn+rRv8jZ/4wl33ceLgNIVCgedfPo9lGFy6cn3H7VJf7djMNKVSiVcvXkMTSdrJsiyef/55nju3+/SxvW13iY0JnWkoPw3tp+y4/WHVlO9hPwr5g4HruvzZt76VvdZ1fRM71ORQlVuLK+QNlZfeuLjt+2niebCwnTF4K1ZWVjh+PBkC+NipE5w+eohnP/Z0xlvy8JHkuHN37vDxx89wamYzZXfF0rjy1o2sMLjZ7nLo4O6pAs/zUICnH3+YOI4xDCMjjHr4yMFdv7u3BU0m3BJhr2o/bfjcxOMYx3S7yRCMGDax0u7jweL8paubaLVvLSxy/srVjde9UqiGv3u5Uj8NeM7c2TpxXTeL9LXb7WTO3eICfpj48a1uIrSmqTNQKVAq5jlzJDElT06PMzo6igcMDlY5PDmCpSq01++eI5wYrDAyVGF4oIxKiOU6XL9xA8/zmJiYoFwu73pNe1rQZC8z0B/wSLkbut0ucZ82S0P8cRxjKmpCIf3nbBTuVmrtvYh+Mp+teZ3Bgvu293e3/NTc8loyzKKUDLF49eKVhO8TeObpp7jSI2/93T/+M4r5PM98/BOMjyT1EYpMBPDJ08dYXl6mmMtTKpXodttMDA9RcR2KlknBNBjI5zh99BCuZTJ78xaFQgHXdTM+0SiKWFxcZG5u97jenhY0SAYapKH81P9K22FM08woDRRFyf4HMm7B9zv6hWsrtfZeQ9ExebNXlnRwYnvRT7d774F9/Sg7Jp3O9nHHBvChRx/GsiyKxSJCJCJtuQ4ffexh1ldX+OijD/HXPvsZDg+VKVUq/OZv/T/YjslP/vCniEXMuTevkXNdlpeXUXSN515JOEIajUZG860oMDk5jud5XLw1x62VBv/fH32der1F1DMd0+dwfn5+12vZ04Im5QZvyOb3ZdaTdjfB0nX9z0WOba8LVz/6o4tbh6oD2wIjWzFSLjBUzHFiZppnP/Y0Q0NDLNUa27bzgefOvUIYhhQKBUZHE6F+/uXzdDodhoeGODZzkCgKGBqscPnyZcanJhkdHmZhcW6D9qDbxbZdmr3G05iNibBBEDA8PMxLb1zcVr2Szo87deoUkFhcx45tD+70Y8+H5/oZsFIinjQwkpqRUspsxYjjGFUCWY3kg0FaEdG4z6jZn3fspIk+9Ohpnjv3GiMFh/l6UpF/bGIkod1utbBch3q9yYVrN1heXt3kq23FZLXM5Ng4pmmi6YJnnnqUxTsLPPHIaVRFp9mqoxDzoSeeZHV1lbxlszq/jKVZXLg5jyuS1JHjOJmJW60OUmslJV1CCC5ev7XtuM889TitZhNd1/nGN75BeWCQfN4hDHenN9zTGq0fW5lihRAEUUQMGWFnGoGUiiAW3Pekj3eL94Pv9CAxMTiQmZD9eO7ca/zt/+DnefaTz3BifITpgQJBGNJqtThz5lHW19fx2i1OzRwAtv92J2aSYMYTp45TrZZxnIS056vffoHA9ykUciwuLjJ/8ypBu0GllOMf/x//N4qiYJsmumlSGRwgJ6BccrMAW5oOSqny8pZJq9dBPpB3Np1Dyuv/e3/6LYrFIsVikW989yxeuLu23vMaDTY3c6Z/p812aQuNqqrI1Jzs44McGxyg2Wzu2kP1bqFlE0jf/y1LEpgAACAASURBVD7he4HbS9unrPz45z7D+Vdf49L5N1hcXiaXy5HLOQhNJegGnH/9dSLPxzRt2u3mjhU/KfHP2NhYwtH/1lsZj6MQKuVyjqGhAWS7TblQZG4xoT4IfZ+rV68yNXkARdOYHBvKKMiljFlc3CggLjr2po79arXKcq8fbmZ8KIl4+z6f//TH+NIf/xlcus6ZE4e30SxsxZ7WaEIkBZ61Vptaq50NoAOym5GG+2PIwv6+7xOGIblcbtOK9f3Cete7Z4ftXzQcm9wcDLl94zqCgJu3rmEYGvlSHkUFhZgjRw+Ssw1c1+1ZJnHGRLwTGvUa7XaTfN7lmWc+wV/99Cc5cfQYOdfCVFQ0TaHZXMPsdV3nHJuf+LEvMjI6wMLKHI7jMDk5iWvZDAwMZJHNoXIp89EAjkyNbjIfq6UizWad8YkxZmdn+fCZk5w+epCVlZVNI4d3wp4WtJ2Q9qilZmTKqpQmqlMNJ4RIVrs4REbf34BC2TEz8/UvMlK+RSAbJjhSSB5ARYQ8/sgZDk5MIpSIZr2G3+2Sd13GRkbw/A5R0KFaKRH7u/u5pm2gqqAbKi+fe5GD05PM3n6LDz3+GPX6KjoxupCo0mfKSsh6XnrpLLXVFW7fuJlRko+NjLC6upwt3lvnw23Vqi+cv8zAwBDtdpezF67ynZffwLIsut3u+5tubifOnZQNK4oiWn6AjCKIQ1bqDWQUoApJcn9iGo2N7tuiY2czv94r5C2TvGUSo7De9TK7/t3C1lRsTc1q7N4v+cA4SBaan/mrf4WVlaRhc77e5jMfepxSvpRMbA08Km6OvGUyXB2m5Ob4/S/9OwQqpmGTz7vcrrcoG9sfzfFyb+JNocDq6iquZTMyMkJtfZUPPvoIq6vLrK8sQRQj4xjNNJgYLjM+NMgL3/k2rm3i2jbDg4N88xvfwA+6lHIOQ5Uq04PbufMrle0Fzun4JoADowPU1+rIUGKo72tynu2SllIbpEjZilOt0l/zWK/X8X2ftbaHKiS6KhgoFrIIoWvo5C2Tgm1t6qa9X6TzjKWUVNzdheF+Ayb9FNypefx+YPkaLuW5vpj6ZjEPnTzBh8+c4jMffpSia1KvrRIFHjnHwjR1Aq/DQDWHKmKmpiYo5B1KxRyEPg8fnuLkyePZvo+OJ73DhV67zY0bNxgZGWFxcZEbN26wtrzC2soKXqvNiaPHeqmfJEK9uLhGvbVOIZdDMxLzdHo6CaqsLi1SLBY5d+4cN5ZW2Irnzm3M1z59KCnPchwn6642jKRVRtf1TIPfDXtc0Daj5DoQx4kWI6mqTmNTqfClAQlN01hre2iaRtkxk5lqmpElGV1Dp+UH7zocn5oXkbwHZ4Si3JewpeefRlldQ39fpAwefvhhAE5MT7K6soRjGRAGfOhDTxKHIdVigZJtY6oKhqZSKTiIKMQQUMm5xJ0WJTfH0YMzaGHMnVsbuaszZ84A4PuJxizYFgXb4cNPPUXOtBgaqNBuNoj8NrqQaCJCEwqGIvjZn/wirqYyNTGMEIJWp4OqSU6dPsnx48cRseTQPar8AV67mvhq8/PzvHa1x8YsJVIRREju3Nl5jHCKPS1oUkK5mCfnWFTyOfTeeN1WGGUFxP1c/P1QFIWSnWipfgLWdPutSfC3GzF0DT0b95oWmN4L93OMVHspikLT89E07X2RPli4k/TwHjlyMBtvVC2XUWOJrioMDlaJ45BK3sUSkrxTYHigQsnNYYiI0YESBcektrpCq9Xi0888w2c+9AQAFy9e5PETR7i6tMrf+qkvksvlqNVWCUMfiJmcnKTbbqOgZv6SoiiYmsqX/t3vYJoqk5OTdDodHnvsMd58801KpQJzc3NZnezxqbHsWo5OT+DcxeUKZcyP/+hnGSmX0DSXi9dvoShKVuB8N+xxQZMYqoYiNyo/pNgwo9KZaSlUBKqEtbaHiGI0NlIBiqJgGRsBi/4JKVsnht4LrrFRuJwKwb2qUN5pSdhOE0/3GqYHCrxy+S0A4igiZzu8cPYs7fU65773AiXbQYkCRgaKWIZGFHuUizniyMfNGYwOD3JgaopSvoBpmlQrRZrrdb7y3Pf4y898jNu3b2fU4PWVVXJ2jsgP+O43v8Xq6irf+c636HRaKDJKfDMBKpJKpcKRw0dRFYWR4WEajQaLi4u0G03Ofu8sum5Sr9cTf7JnkaRDMdo7uNuPnDwCwCuvvNYj8+1yYHSI+bX6JrLXnbCnBQ2SsTyKkvAFSpEIRNExEUIiZUQchxCFLDfaqAqkgSIJIESm7RSZOOu2pmbDC1M0ut4mfoj7ReoL9guQa+jZv370D7u/G1IS0JxpEMcxOTMxc/d6GdbJI0f5n/7LhFXQ8zxqy/PoIqJaKSTUApGHa+uoioIA/LZH3rHI2Q6GnmgfhZg4Drl2/S0cy8TzO/ydn/0pLrz6CkPVCpHv8fd/4ecYLDlUcjZTY6MMDlZ56vHHGBmocnhinKJtYJHkNUWvharbbWPbNuMTExiahmVZVKuDdDotYgFHD88QxzFv3ko0suM4O1aEALz0xmW8IMI0zd6UnZjrPUKiSqWw6z3a84IGbArfpxNA19sea22P1VYXVIXhkkskwDBNRgsbM5gVmTBpaaaRkfq8F8GFNL2QasZ0xU3rL7eGhvuH298Nuq5n5nAqwO+HJPjC0gr/6X+bNNJPjo0zPDjIkUOHmJ6cxDAMSuUChqGhKKAJOHr0MFEccuXKm2iahmPrKCJp6nVtg4GBAbrNFssri3h+hwuzi5RLeS69cZ684zI6NEgh5yCDkFvXruJ3Wqgq5PMJo7CiKD2qAZ1Go0GtVmNubo6Pf/zj5HI5pifH+aFPP0Mpn2N5cYlSaUNI+pPXj5/ebA4+efoDBEHAqxevEBNnHQLAPcdb7WlBE2Ijqph2V6caqtxH+JLY4zo52wIZZSNdVVVFU1Uc00JDIoTsDUB4d+ZYqmHSYEUqdLambppMmsI19MxH3A2pcKVdCEKIPR8IefLUcarVjdC48AO6zQY5xyWXs3BNBVNV0FDRpUCR4OomxUKB8bGxnvBpaLqZDIcfn0QhJvBa1FaXuVX3OTFW4aknP0wln6O9vgJhh4FinonRQSZGqrg9AlMFH0XGKAoYhoaja1i6xeTUDEtLS1x84wKqjHn53CuEfoRt6ggpMQyD4V4K5fFHznD6aNLE+eJrb2661larxfXZpEp/ttdb95FHk0BNY+19PCw+RfrwpsPHt670MozQNCVhMe7x80e92kdV01CVjQHz71Wp1FatGIZhpnU1TcuEsd+fS6OduwU3Uh8yXWBgdwq3HwT6Wa0Skzi5vjNTg9RWFqhWq0gZEPldNE3JeDhVQ+fatWuoqsr3nvsuI6Mb1SNRJKnkC1iWhaUbjI2N4Xkek0WHT33qU7x89hwTYyMYpsL8/B06HZ+nnnoq00YyDPDDpM411ZyqqlOtVlENHT+MWauvUy4XsSwtS1prhkbQ9VANlVMzB3jl9dc2Na/2YyeCn5s3bwIw+P1iwXqQiKII27TRVR3DMLaNZ9JUFce2ydkmrm4gw4jljodjmMg4JvIDVAQaAhnHiHhz3itNPL9dCCFo+UGmbVMh7jcRW36QRQ/TxWI3EzKNmKUaDVIB3TtJ6/52GCFULl++yt/7hZ9lamwU17KRMiLvuiBDBIlJbKgajmnRbrexDINnPv4JNAS2sdFTKAAtTIZKjo+Ps7a2jmEYRFHEQKmMkD4HDxzg4IEZXnjhLGHbR1NVDEVFV1U0CRoqpmZi6Ca6rtLpdFBiSblczgbE5/MuhqHRabVRe8PsdQSvX7vOcqPLd86+uu2aHz1+dNt7M5Nj3FxOyIB++6tf3/WevRcEqqoQ4iUhxO/1Xh8UQjwvhLgihPhNIYTRe9/svb7S+/zAvfbdrzS6vo8f+tvyZQCztSZVxyanClzLRu19dmu9jqEquLaJbSYJbdu2M5/v3aJf2OM4RkiJ2ptG2o+caST5v75Wn60J8pLrZMnP9NpSjdb0fFr+vYui30nS/d3g6ccfZuH2LR498xCTI8OoYRIoCLoBOdtBiySVXAFLN9BVgW3qfOQjH0EKgVQ2alVTWgpFkRiGhhcGfPfFs9iuzaGZaXK2Q9E1MXQdJQzR0JgcGyWgw/DwMIcOTCKlQNc0dD1xF6IYTE2nUCiwvrqGqSk4jsnXvvY18nmHty5dxCQx93VNYt8zhbLZ7J+ZHKNW291c7Md7odH+Ngnvfor/EfinUsrDwBrwN3vv/01grff+P+1td0+kvlb6AEZ+gGNuXt0PDBbx/S6GYaBqErtH4nmoWuijD48RMspMu36tkpqmbydflebmgE2CpWnatpuq9vyu/lHAOwVkVFVN+qt6C8HbiTbmLZOm52Nraqadv9+lW+MDQ0xPTxOGIc1mk7GJKYhjBioV1FiioRGHIToSXU8idZZlJbPTtORe+76PaZq020mFfK1WS4Q1CBgdHWdybJRbN96iXMz3/C+FTqdDt9tCVVXm5+cTIlMridD2TxW1LItTp06xurrKBz/4QfL5PEcOHcI2TR57/CEiPyDyAwzNRCqCifLdSYHOvXll0+ucszHl5n7wbpmKJ4DPAf9b77UAngH+bW+TrUMu0uEX/xb4lHgbzlISyo+3PaQjBQddUbFtG8excG0TtZc/u7pSp1hwQYToRiKsuiISIp84Jm+ZFB37bVPUpZoj1a6p/6frOqoqdkxex3GMqesobOT1tl9jMkky8DzW29sbJ3fC+NAgB8bHMi3YCaMsgCKjxOH/fuHSm28QRRFe6NFYW0XICE0AYZAU9aoqIk7+t22T5eVFSqUCQkji3i9vqBqrC4s4hsnc3By6ric1kR2foNXmxe8+T215CSGSAe+hhD/9xjfJl/OYps7S0gqoGpqRzJ32fR/TsjAMjVbXY3JynDsLt7l06U06rXU6rRrTE5NoEoQS4nttpEw08e21BgdGk/rGDxzevVpkbf3+p9jAu9do/wz4z9jQq1WgJqVMy9j7B1lkQy56n6/3tr8vpNpD1/VNY1uFECiGgqKAZRgMVKoY5sZlGYZGoVAg1+tbklJiW1binAuRPfhvB/3Np+n/iaZMfEfL2q5J6p7PaqtN3fNRIBvS5xo6OdNAV1VEHw/K/WC0UkZISeB5WDsId8MP6HiJVsyZxntuWhbcHJPT07TqLUQcIcMAVQHbVDDUhIcTVUHRNaQQDI2MIRWB7Btx1O12E96PWFIoFHrd85J80aFcLnL6+BEOjI/hWgaoGrbtMjMzzfj4OL7vs766lrXXaJq2sQ8jobLw/W6S93IsZmZm8DwPLS2b6/UzqkLg5pLw/PW5ZUbKOUZGRvj3f/rHt13z1OgIw5XyNibke+HdUIL/JWBRSnn2ne7jLvvNpsmkPk3We9Yz19KAw3gph61r6FGEkCCVENs2eeHqbaaKifkUej6WbmCpGpZuYJomvu8nwqolD0AURdRa7fuuwmj5wabzano+hpZEO5MURHJb85aZJZ37Ufd86p5PybayYMlSvUGt0+Xa7J37KufKWyb1ZpO1taRKXtV1ys7dczlNz9+UlH8nZV0n+jgaf+ipD6JaJjfeeiuJBjeamKpAJdHoQehh6PSKDSRBENFqtVDptTnFAkM1CCX4Etbq62gypNVcZ2V+icmhIWori4wMDTE2PEgQdKnX69g5l0NHZjgwOUHBLTBz5DCmaWPn8omf1psCazlJLjUIAo4eOsxP/4N/wqHJAzxx5hEMw8bNF3FUHUfXcC0TEUt+9i//MAO2iRIL/uRbz/O//6vf2nT9hyfHCAKPhdXto6TuhXdLCf55IcR14F+TmIy/SjL3LLXD+gdZZEMuep8XgW0l0/3TZJS+la/W6ma+kKqq5CwT21QxTA3HcZJoJNBotDg9NYBjWjw0PZwRrabTRlIb3jA2AhRp+VTnbbS5bK0GSTWtlDLzN1LU71J1UtvS9T1VLXJgh3YNYJsQqUJg6knuUApBp9PZVkGeJu6PDSfm0OGhjX33+39pu37O1Ki4DnlDp9g7XtGxs2MrPcPlx3/ok4TdJtW8zYGRQT7+aOLvBEGApkviwMcwNISQWV4wiiJ838/YpdPXqqrj+37S8Sx0yuUBnnnmEzz00ENMTU3RbncJgpggDIml5K3r16nX67RbPoEvOX36NGgqVi5PIEPiGMxcnkgViF5E0/M8fu9X/yHlcpGRkSHC0EMTEVEUADGFXA7bNmk011FVwcTExI6/Qce7e4PvkeHdZwa8G0rw/1xKOSGlPAD8JPCnUsqfBr4GfLG32dYhF+nwiy/2tr+nzbbVjUs1SRRFXFlYzzLyaVhcV0XWH1Qpluh2u1nFvu/7Wa4r5fSHd06okyasE+6JjfB+OtD+7ZZ25UwDISTLWwYqFndKPURJmkIQc2dpORkr1KMQONCbqDIzOcbjBye5uLDMiYFSFhw5PJCQfR4dSnI/ppqsi00vZLXVpuEHm3zEVIDPX0nqGbvNOpVCnrDbQpMxteUVDENFU8A2TKIg2DT/IE1XRFGU+HS9B9b3/SwvChCiYJgmC0srXL16Fct1GB8ZRhExqqKjKjqvvvI6goSxulwu02w2swZg280TCwVhmoRhTBRJSqVSVgBQr9f55je/SavVSqjvUn8/islZNocOHULXzbuOlNJ1fduAxRTf9/loO+DvA39XCHGFxAf79d77vw5Ue+//XTZG7u4Ckf1AsOEbJSukZGYwn/y4vXG7yWcBg+USr84tUSjkMm6ItNo/velZe8vbG9+2Df21jlkyPNpugh4ZT5KzR8ZGtn12YnyMJ4/NYFkWhqoxXNo8uqhYdDfNaQao+T4DpTzzjeT9jxw7wrGBCidGByi5OR4erdKsrVLJ23ziyBTVvMORyTF+6mNPUtB1PnJkhoprc6xSYCC3UbI2PbDxwBRsi/V2JxPgDz38AX7+C58j7zrM3nqLaiGHowo0TaIJpffAC3THJCbOKNvjOEbt1an6vg9RTLfbzirnhRCEMdg5F6dSYWR8DNPJoys63aBDiMx8u4XlJWqNOkEcsbK6QNfrYDo23cBHWBboGl7bI4qS6pzZ2Vm6gc9n/6P/muWVFbphgJuzsVVBJCW+VAhDnyjw+I3/819iGAazs4kR9sOf/Eh2L4ZLblYVshU/8elPkHN2j/C+J2QaUsqvA1/v/X0NeGKHbbrAj73NPQNKNroJNkLxSaSvRxGOxNAULN1gaXGFQiHHk4dGcByLTqdFu90m7kW/Ii+gVquhGImWsDWdJm+fuEdIiQBUTYPe+QixQRg0nHdZaCTTVUYLDooCJ3qt/qcmRgmCAM/zGBioYOoq5aLL7Owcw5Uq3R7Ry0TBpVxy8Xsm5pMzU9TqdS4u13h0OokxffzEQXREUg3fXWd0YpKl+Tkmx2cQcYSuabiWnbWPmKbJtdhjbGiCwPMYrub53RfP89hIGbdQJFI0bvSSsLLPTJoeLDM8NIDfqFPJuTx04hiWLlBiBRlGSFWQy+XodDyq1SL0BC1dKNPF0fOCjLHM932EYoCmokiVlh9QLZW5cfUK5UIRPwqRYYCQCpalUS6XmZiYYGhoCE3TmJ29xfj4OELTCboebiGPGhgsLa1QqCSDAtfq6/zK/5IEwRcWFpgcG2ewUqW2MIchFFzdpK0bNLseY9UhGmHIcsfj+NQERk/Tf/YTH+HLX9+YKbAVhXIp4/C/G/Y2C5ZMfBGhaZRsizCMccyNotuba00GS0XMQh5dSYQwl3eIYoXx8XHq9TqeF/SEMiSM/E3ckJAEQvKWeU/zsT+o0fKDzO8qO2bW0atpSUtPmrubrBaJogjL1PG6bQpuAUUBXTeh0yKXcyjm8himhq5rDAwMIITgxnKNTz58HEWBbhDy7ZuLfPEjj+NFIbW1xK0dqhbRVYHwPPJ5B8NQGSwVCRrrPHziON1uC1vTeyVSkpzj9sYS+zz28Adodps0W+uEEfzMRx4mQsH3w01cipqmgR/w6PHD+O0OjqrQWFllpJhHjXQMVUG3enWcUsnMet8Pe/ckiRQnC2WMEIm/FCEJwgjNMAljkPFG9HZp7g75fJ6212VsbIxGbRnfj9AMmxfOvszoyAjlShHP6+C6eTwvwPfrqIpOp9HBsh1cN9GUfs/C+C9+5of5R//yD+l2PGYOHaJcLuO1mnidDoKYRkelWB2lq2i4XZ9Tp44TxJKbN2/y7NNP7ipkAJqp8PSHP8gffO/c3bfZdQ97CCmbVfoQp3mvNPmsaRqqouM6eYII1tbWqTfqFEqVbDV3HAev4WGYNqFMZqtFPQLWgm1tKgbemixOzcMIyYBjZZNtsvG+iGRl71vFdU3DNHQgrdPsYFkWipoMslOFoN1u4wcKoWVQKJWo1Wo8MTOKZWgUSiVWFpZ5fKKC01tITFPl9KCLIWJKuQK5cgVdV0CDMPQYLA8iYonjGgRBRD7nZMEIVdN6yfOAguUgqhLNMvG6XXRFoeE1iYKNBSc1V1fnF+g0G7yJz1i1ShS0UTWFUMb4rRamaYKIEUJDVcWm+5Lcuyhpg5ExQRQRyhih6XQCH1XRCeKQIIqyxHVadrW8uoomIzTTwPdDSqUKIyPjLK/UKBQKODkTwzC4du0a1eoQIla4dXOWqampnrUwQBiG2E6Of/M//wPeunadazeuc8pxUAydOAhRTYuxwSFavoejayyvrdNuNhmbmOAPv/kcXLoGwKeeepQ/+e7OgnT79m0uvfb6rs/v3q51FPS4HwBFSRKdcUK8kmqXKIqSBtBe1M8xXeLQo9VoUC1XiHrlPYmvENJuN9FUdSPM3FegrKqJ+ZKWSFW2kGc2PZ+OF2QPUZKgVjcCMX3lU6lgQYzvd5EyotlpEwSSTjug2agRhF4idJaBKmM6jTrlfI7BagVTVbj25gUq+RyVfAEnn6NgOwxWy4xUK1TzLgl/TYRhakjPY7hcRhcRti5wTIeCm6PdaKIiMLWk3tDUdBQFFlfmyVs6se+Rsw1sQ6HoFvn21TmeOTbDp0+fzK67kLM4ffIoxw8f4siBiaRaB0Gn2crm16XQNIN2u4vvhwSxJI5BSoEfQjeESFURmk4sJVEoieiRmPZaW4QQdLtdPC/5DTXNTFqbFMlafY1Wp4lluQRBzK1bdwhDiZQKjVadUMSg6szOL7LSWMPM2ywuLBP4kh/7e/89Fy5cIJ/P0/EC8vk8ds5NrIpinjgIGRsoMzUyyujQMPN35vlbP/Z5fvmvfYH/+Od+ii98/kf5h7/8C9l1/vLP/fTGNfcW9t2w5zVaWgmyqVq/Z6JMle2kc9qyEq2mQqfdIIoihoeHUXWdjreGqqr43S5OLse15bVtpTb9fl/e0hFCYghBekTXULEMA9fQNwVT+ltaUnM0HZhoGAamkc5qi7F0A9swoeermIaNpRsUi3m67Ta6ms52kxTzSQJ2eHiQSqVEpZRLun7bbQxVcOjAYYiCTLg9z0tG1tp2okmVjXadXC6XFWGn0dqcaTE5MtpbJDxM06Tr+8jepPZy0eW3v/dadn/KrsPE4ACmRuKXqipxj04i1Za2bVOv15PgU48pOo4jOmFIu93u9YoZxFIFIprNFn4YYkmBqZvk83nWmg3a7TaO41AdHGRpaYlWNxnbVSyXcXI5llZXaHWTdIBp26ysrVFvNhnNjzI3N0e5mASSpqYP8O3nnufA+DRxHPBb//i/4s3zr7G0tESlPMDwYJnG8nL2fA1USqyst7AMDVWRjAwOsL6+xsTYGEsrK1y9fBEZ+Pw3v/Q3UDSdL//R1wH4iWc/lmjN93M/WvKzKsTxZmHQdR0ZRuQtG1VujAoKgiApHDZ18nmXer2OqWvkHIejh4/g2jZTpSRUrQiBIRQUmQwatzUdU1GxNZ16xydvO+i9PF7OcSgXXAzDyExVVVXRNQ1D13FsG0UI4igiCsOkYyAM8dodLty8g2M6qKreq79Lzi8IgiyaKoQgkomGjMMQRZI4965L4HWy4xUKhd6DFCXaM06iennLxjVsRCz/f+rOO06Sq7r33xuqqvOknU1aiZW0K+1KCAkFkJBJxth+trGxEBJCGGRETiY8gwNGAtsYsLEBk6OMCQ+Q4Rn7w3P4YGwTJIIxGEloF6HA7mqlzTPT093VVXXv++PWrarumVlpFWB09rOf6Z7prnzuSb/zOwRCjlw9JcGa1PXpSQgDhckS2vUGCkGrVkfjGmoH3Xle+MRz6FRqds/5hQt52LpZasLQqNexZMVC4uuPi4uLbqyu1Nx51z5SA/04IY5ThpklCGpkmaLX6znlWRyAdNej1+sRtZrsvvtOFufnaLUaKKXyBJYhTjLCsEa32wMkR+YXSbKMffsOMBgMufXW25meni4wlJ6uoNvtsm3rKcTJAKSk1+tx1913Mz8/T6vV4ldf8nompmdIrWtxmZho0+7UOX79LI1axIknbOTMM07P67UBaybbNJsRW7eezG233eY6+4F0EHPzDTfSbpaZ2+VkVVs0ay1WCFJjyLDM9WJqQYgxKUoJtApz5DcOvFoLSI0hCuscnj/MzFSLMNKk8ZDUJGTJEB1Ibt2/wJa1MwyHCxzKRwk1QoVSkky6h0dKQygDNk9PuO0PY4LA8pMDLru0eW2bdtTMV8SMsCaptSdcrBg6OJXSLrPZ7/cRwrJmdtolOHoDolqADDT79h1ASphouwVgmBrajZBWSxTMyw4R3yMIAiZabaeg0hJGHmvprGZpg/NSAyWushp/NhoN+oNBYYmttdSVot2oM9FpMpdmnD3bIpCCTghhcwJLhhXu+wpBnCboKGQQx9RbTRLjlH/N2hnm57pMTk6ysLCArjeJ05jUWuLUcuuu3azbsIFGo4FEkJiMW26/g0ajgbGG/fv2Mzk5SVtrwtBlA9EBd+zaTbPZRKiQwTBGy4ADc0cwArrdLrfeeiudqTbDQY+pjmMfvuGGGzjllFOo1+t0u10GiethO3DoENe8UqHd0AAAIABJREFU8VUkxhLWa9gwZHbjcXRTQTOIUPNdMCnr18zyowM72DA9zcG7dnPK9m0cOXKQfr/PN3fcygsu/Q1aQcQtt9/GYx97If/03ZXjtFWtaFA+KN1xpLQxKC1yCvA+jVYDoRRJmhBpybrZGfr9PjaRaAspGZPTU7QOz7E5AxUq9veckp0800FrZzECJVg31aYWKpAB1mbMzkyzuLiIlLB5zZSbYCMk9brL5C0uLpIaCANBmsYksaLb7VKr1ZidatNotxyaodvFmJQbdx/izOPXELWaTK5dSy/uobVifn6eQ4cOMdFuI3No2KDXY2Zmht6wZMPN0tQV4hvN4hpZ8mLIyByA0Xqe/1uWZSPU6r6A3+l0GCQJNjOce8YZhNrSiEKXOErSAmWDknTn55mamiro12VuNSwQhXWHwm/UOXzwIMPUEKcJGzdu5Ljjj8day44f3UKWpFx44YXctHMHBw4ccEkVqUkywW133oW1GY2oxnA4xBjnsURa873vfY8tJ211RD4zMwwWu67jIZBIXKLqG9/4Bj/5yU/Yu3cvmzdvpt1us337drZu3cqPbrmNPXvvZsuWLew/fIgppTGB5eQtJ3LoyDxpGpNmDj3SagQIk/Hw07dRb08wGA6ZnHYjqVqtFj++6WbWz64vpo+uJGI1k3NqJe3MRLsAFMdxTKfeINCudrNupk090GxaP0Wz2SzaS+I4Lqjp/PSPzFrmjiwwN8j4f98eXXl+49FnOsUINJiUfr9Ls1an3WkSD5w7KkMXC3YXetTDiCCQpFg3IgoQUmJSy9677kLUW1grkHl3cbPdyZEoGZm1LBw+QrPdAtzYqenpaeI4RlnHXVgLQoJAUc8Bxr6txGO14zh216LRRAeSAEstCLE57Z2xZf1LVibweAXzo7C8Ipr870mSoVTAnfv30Ww2qdVqBcrewctc0ThJU6IwZN++faxfv55ut0sURQRBwP4DB4jCHLIlJVZq9t59t9tOHtfGcUyz3SE1hh23/IjJ9iSLi4voKKQfJzRqtQI9sm3rFg4fPsxEu82aNdMcOnAYrSXr169116HfRxjLwx7mkjSTnQ779+9Has3s2pnCil9//fU84vRHMjMzw/HHH89Xv/pVLrjgAgaDRY7MzzM1MYExhl2338q27dvZc9ceTjllCzt/uBNpBJNrJrj0tW/jj1/uYrQDB47QaDS4/fZbMWlCahI+95Xv/Je19tzlnuVVH6NVEdY+w+X7y1JriKKgABn7Tl2vdB6AHAQBNaXZOLuWKG8bOe9kh2d71Oa11MOIiUbERCNkqlNnZqrNxGQzf8g17XaNQBgUllroVk6lLJECpSxaQ2AMdWk5Yf0s0/WQiUZEU4O2CfH8EbK4h7IJNSmoKUkjDGhGNdr1Br35BVQeo23cuB4pKSxFvR4y7C+SZc76+gdQSsnu3buLlh//QI13e9tCiZKykzm/Xq6+VY7DciUT10/WarUKuFpJJeHKKd6yWWs5ePBgETv3er1iH8PhkIMHD3LrrbcyOzvL5GSbdevW0W4713du7jAHDzoEvNaaG+48zOLiIsakzHfnuWnPQXq9Hrt27SrKJTt37uTg4UMsLCzQ6XS46667uPOuu6jVauzcuZMdO3Zw+PBhGo0G69bOcMdtt5EOh2RJwsmbT6bfj938tR/u4K2f+ntuueVWur0eW7dupdluY4zhuOOOQ1lo1xvsvn0Xa2ZmXAZ0sZ9f/x4LCwvUajXm5+dpTLTYv38/P/dzJYpkOVn1rqNv1Iz7faiQpiqlCGRAqEOk0EhRUgV0u13azWbxuSRJIDMk1hVsH3PSetqtOk8+7WGsmZ5GZH0UpsgaBkKiEYSBRtcdqqMmNShJTQfFw2utxViDkgKlBQZQWUYzlGRYhkNB0IxIM0cAYzJ3PlMb1hVdxSIMUK0mg2SItQY7HDDZrBPHKa1GjSyJifKiMDgFrNVqpGnK9PR0kfn0x2OtxWOxbaXR1JcefJbUWotCkAkwxoN/bXG9BU5pw9wK1WqaI4tdGkHEQt81XU5OTrrzyukhbJqRDIdMTjqkxNTUGqZnN5BZS5ZBHCccOHCIJMk4dfs29h88SBQ1CcMaz/jFx7N33x7ivK0HY5iYmEJhHdd9vkB0Oh0W5o7w3e9+j02bNnHk0CG6i4fZt28fmzdvpt/vs7i4yK233cK6detYv349hw4dYnJy0oGTk5gbbriBt738uazfuJ69e3ezfv1xHD48D0ag84UiCCJmZyeZP3wEY1IW86mg9ajFl/7lyzzpiU+g1WhStwHfm1sguQdM6yq3aLYYyG2gWMn9MIWC8q3fdyuylKTDARONJukgRllFLdA0opBOp8UwGdCpaU48fi0bZ9rMdAKmmop2I6TTjJhst2jVG7TbbRoN1zyosEjvHpoMhUVhi9da4LJ/JsW5Yq6fSgtDsxbQCkOmGjUaStAMoCYzAjukoQU1aakrCGxKIxI0axKZ9oGYKMowpo8UGVk6YLG34CaoBBIhDEpKwnqNhd4imXW01JmANCtrV2lqivjJ2gxrM1eTzFKEyXAwqQyszRlVAOtqZB4YXa0LOnCxs1aeb94zjg2SIWG9xtq1a+l25xgO+2gtSE1KP1fM4aCHsBnNesS3rr+OPbt2cWDfXRw6tI/de3ezZmoN7VqdAMH62TXUQ0GtViNJElo5HnPPnl35vQnZf/deDhzYR6fe4KyHn8YZ209l/ewMj3n0eZxz5iM47ZSt3HzDDyBN6DTrnHjSJraftoUrrvgtbr/9xzzrdW9i08aN1Osh3e4ck9MThM0GT3nlVQVv6PziEbQd8vJ3/A1/+xd/QLfb45adt3P44H7mjxxg3boNnH76dv7329571Cd5lVs0UbgvUJKQCiweS6eUotn02T9ZIPXDHGgcD3qkWVYUKOs02b/3TmpTUzSjaacweSG3tA7l+Ce/+rsitSniG6/k/rVHplel6sL5zxSTS/1PQAiZnxNYJZHCIoTKExcWawXJcIhNMyIdkGS2SIzU63WGWUqYugyikgIhnKtlgSC/fj4UN8YUq6s/tlBphpknFlIjg9D9frwVT9OyrmmMQQuJVJI0zmhEDQ4ePEi9XqOWW+FWvc6BfXtd5jTL6DTrHFmYRwKTnTa1tbMs9gfcvX8/3cNHin5BpYTDNIY1Op0Ou3ftYnZ2hqGnj0gSlMmYbbfoLS6iEcwfOsjxxx/P7jtuZe/eu2m1amxYO4vWrtP7YZuOZ9euXQwGA7Zt28Yrw5DLXvsnfPSNr2HDunV877vfZes2x0Z8yWvfUtzHD73mOfzjO9/Av133TVTQ4dxzz3SZ10FMqB1h1Jc//SGedFlZ0B6XVa1oQjDiGgGQ834IC1kSO4UgQarIWR9BTi/nHqeo2SLDZeUU7qGVUlIPI5Ikxgg5ghIBgwxcITaQCmOykXinWjgfp1UYj4uqc7Wrn7U2t4h+lhsCm6fmjRAoJAKBVC6GQkCn0yn23et3GQwGDAYDNm3aiLQwTF1WMDFZsRg4GFiULxQ637/N+8ScAknrs5Xu2ngkjjEZWil0qF0f2TCvUYYBaahp5IkerCEZxkxPOH6WDWvXuWxpkjI3d5ju3IA1U7MIsvy4Y9ZOTdOs1dFRnSPz8wibcspJJ7OwsMDB/fuRQjDR6SCswaQD4sGQZhTSX+yyed0aJpt11k5OYm3G5ORkTpXg4vK9u3dR6zQ4fdtW5ubmWDhymJNP3kqn0+HmG25k48aNzC12ecWffwCAP33BJTz3qrdz7dv/iIefto2dO3cW9/Mf/vqNaK05tOsn/NrvvInP/vnv8vkvfoUzTt9O2u8y6HU5cOAu7rrrTq6//utHfZZXtaIBIw93EWMIOUKyo7Um1BKlRIFcGPm+zbAC6jWHmauHEcK4iSNGS6QtkR0gwLjHvqrgPi1eRYH4Y6pSG4wrnjEGUzkPrwQ+wPfbUjKnLjcWYzKnZNa5oh7yZYTDC7bbTSZazZJCIZJFEkRJh0yRwpUwjLXONaxaYDy0raSDEJSfUUICeZ9d6haEKDBEORVCMD2ZN89qhoMBBMpdf6Ec1TYQatcP2OvOY0XGMEsdyWkjIE1iapEmHvQIbUa9UWPYO8zx66bZMBGgEMj8etTrESap02s4oEK9HhEFiuGgSxBEdOfnHReMEkhCGo2QQLsFrNPpsG7dOnq9Re6+ez9WCubmDnPZ699e3KMtW7bwkTe8gotf88f81SuvYNOmTXz49S/jeX/ybp7y8qsA+Ns/fCH/+O6r2bVrD/3+PJ16g7sPH2SqM8GhIwv0E8MJJy2lo6vKQ0DRBOTt8eTzyIyUhEoWFii1uWtjBUprhHEd1R4WI4RCWotJDKHyk2T8nDULWep+slSx/OsCVFx1Eccsms+Qgkurp/mkUWGdY1jtEC+gW/j0erkt3/7v4gSRA6oFGMeNYjODQSKtBWFIhSHU2l0fkwIpQmikVEusrKu5CZSSI9bZJ5k8HUNRjwtDEII+iygBRoCwEilyixtqwlCDBCkkYT5IZDgcIGxGFAXESVaQFrmFJsvdzoxa292jeqvJsNdHSsgQIAzGQHduPofZNfKubZEfa0aaDgiCOlOdaQ4dPITWLo4UcULYgiiqI4Xkkjd/cMXn69LXvrl4/ap3XLP8MyhcmWhqai0nbtqMMAlKumt18+0/RinLd751/Yr7gFWuaNUSn7AWieDOuS7HTbUrdaCMGiBtvuobgzVLWaaqirJuzWypLJUH0P/0lqj62m/DJxc8j2N5rGVTqrdWH/2Go5S+8sLt7sH0FsQfeQ6IllIW/W0AmbWI/EHzrq47BtdqonCunVNeM6K4xriZcL6bwOT7NUUPX2l9qxbNYKjnHdg+jiwsqbUI4QrBwywljuNCacIwJMkyt+gYU7io2hqGeR8aJsNmFmPc4mWzDCkc0Dnzlj4vxaRpfnzGooVG5fC6UDvggckSTKKp1Rx1nRCW4XDA1NREnh2tFdc/SWIufdP7juWRW1Zk4Bbnr3/965gMpEyJ6poTN5/IrT/ZzVyvh5QP6YmfFSqDzD3461q14gGQuEBeqQAwSOtiDiHEyEMFo8xVXoGqfx95sCpp8er3fSbONzIutx1jDB/66o2FkvnfeUtYuJP598c7tKvH6BYXciByhjGOOru6TZ9t9e+hRID4Y63SjHt3s+qOVydW+vP0HQnePffI+jAMabVa5fXNDDYeYoYJ6SAhXuyRDWPiuF+cszEGk6aINCuOwdcDyQxp7Lqu/Wddt7YovAohRAGUrtebNJv1fJgFxeASv69+v0+/32dhYaEYgfuJ33/BsT10Y3Jo/wEuee3buHPPXXRaDdLegKaU9Ofm2LhxHTMzs9x+++1H3caqtmjV0br+4TNSOcWyKUHg4ghshhQeo1gqS3VYRLXWlFkDUlQmy1gXmjkTMnKDq0oFFBYtyzKXrakc23iM5uVj1+3givNP4Zrrd3LlhdsB19BaVbqqsll83FS16qXypJaKBTMMhgMCFeSp9py/RObHIyAINCanV6iOJnaKJIu4U2tdpOv9dbTCIBRFQdvXDuNkgM0S0n5SzDkYJENAkuXnlJhyYcky41pnsHz6Wz8C4LJHbS1ee7n03JNJTEwgFVYJtFY0ajVMllKrhTSbDj8ahSFgkcKiAkkQyAIZFEURtcDxPH76D1/AZX+6sut4b8SHIE9+8pOJh33qYcDhfXsxIiUdDpAohunRyW5XuUUbHWbhV2L/kDUajeLB8OIVqqpw45wj3gUcdw89ot5bAN9y75XB7xdwsKgoKlDsYRgWnQXPf+zpXHnhdq44vwyQr7l+J799wal85Os/HEFvAEveV49V5oPvfe3L8ydWXWMlxjKzlIkYfx4jRXbjSyNOocJQIxVIBUqL4qeQ5Xdc6UBijSFN49yCxQzjHulwiDUOFOApCvx189fzw1+7iSwvknsZVzJ/bwLpiH6iQNHI66BTk5OO66MRMTnVYWKyTWeiRaNZoxHViMI6SgZMdBxhz6A/pN/v328lAxdTv+k5v0av1yuYmWtBjfXrNzI7O0s9CnjKr/7aUbexyi2aYyh2q7sYyZ6BwNoMlaelrbVI6xAKpvjuqHWpumsew+dcpbRQxgzILGhyty23AIXLmeMFnRWg8sC7n1VIlJSS5z/29BEL+dzHbCuOBdyD5VEiHl5mKgsC5EkUWZIUAQTKu7sU3zUmzbN1rm4mLUjprhuqPA+lHGZRKrdgWOnIX5276JM1brtZkuDIhx19tsdZetcvzV22LM0tl6VozDW4OqB3dz/57aWKBfDsC08rxvFGOnAYTyxCq6LcIJUg0GGxwPmmWyHc+flk0yCOeeG7Psvn3/RyLn/DR+/DE7dUut15zjv7kdy6+06e+sqrAfjbP3op1goO7J+j2axzYN/RZ1ivekUT1hIGAaQZwyRBVsYglS5Q5fNCFA7ncvCkorhsDSZJR9zCalIBaxzkK3c9/bbCerPgN1QoFz9RLUG4MUY+hnEKAM71K2tc/piqyRP/u2ocWSwsmRsbm3olzJMb/rv+WvgYB/I8agVy5T+XkSGRoCQpKUootNDIsUmo1cK8xy/GcVxYrGqMWiwmFRf3A/9xI8+7YBsfu27Hivf38vO2ohAEUc3BxKx1fPj1iNQYPOFRmtcJhVZkWYJSgihyPW1BEPDUP3j3yHYvesNf3+OzdW/lFe/+P1zze8/jpX/+keJ39XqdHbf9mFYrZM26Ddz0o1uOsoX7qWhCiEkc7/7Dcff1ucAO4DPAZuB24BJr7WHhnq53Ar8C9IArrLUrs5kAMFpD01qDNShJjloXhSvi0BaCDIGSJYW4tBIlBLF1bk1qR13JqqvpH2zfWGqlBSOILQQEWCVYHFqGiWWQDPnJ3rsIAkFUKQpL6Tj266Ggns8BkNaghEKpECES3ByBUc5KH6d5ZfB/KQZpWAtClPhFkZcmcOOX3RxU98B7MLUQAqEVFoswBq0VxqS5e+gU1LvfUpeZxqKckbkE0zAekgyHJHHs3MQsQ1iLzZMczoIJrBWYfMb4e/7DdUh8+LrRYX7jspKVG5fnXbAFIQSza2eY7kxQr9eLBTi8h/nhD4Rc8ZYPj7yP4z6PPP0MrvvWt9mwbtY13H7p31f8/v1qkxFC/A3wVWvth4Ubz9QA/gA4ZK19ixDi94Apa+3rhBC/Arwcp2iPBt5prX300bavpbQznaaLI6TKOQBd23w7VJy4fi1Tkw1q2jEPu45omdefcoBtrmi9JI8bRJk1FMbHQWWCwLeDDAYDrFAcXlhk9937EEFIqCO+edsezjzxBL5/2084ddNGduxe6jKcsnaGyWYDqQzCGhqBoBnUmWrVnLXLV+lqZhJcGcA95KNxp0vglNlGIURhab27Vz0Hn6FTSpFaB5RWFmqBRmhVxGRhGBadDkE+S9qLMWDiAb1ej16vlw9Hd9etGrcmOblRkuZuIrZQsmORZ5+/jY9ffzPPftQpfPxbO3nZE88irNcIAkWoJJs2baI/WGQYxygEC3NzkAyJ6nXWr1+PDEKe81efOub93h958xW/TmIsBw4c4JGPfCTP/dP3rtgmc58VTQgxAXwPOMlWNiKE2AE8wVq7VwixAfh3a+2pQogP5K8/Pf65lfahpbRrJhyYNBB5N3Aa027VqYcRJ65rMzExQaQcxlHhoUUlp6BJnAUYZu7hGGZlYkAL/3C6h7bf7zMcDtl/aIGDi30WTQpIpqen+doPfsQjT96MCiMGcbzs9MejyVmbZlk32YIkZv30RJ6ST5e4Vb99wamFolWVLR1LxpDHc0IIIq2wUhTKpUWlGK0kgVSoPKYMgoAoCorpOn5enJsxnbucNleaQZ9ut1tcF2MYUbQ0TclSyzA1eQHZ8N6v/5BjkWeeu4VPfecWLj9v6xLr9vzHnk69HlEPA1qtFhOT7WJQu1YKEw8Jw5BL3vwR3vK0x7JhwwbqnTaXvPkjK+ztgZdr/uBFTE1N0Wm1eOKL//BBUbSzgA8CNwFnAv+Fm5W2x1o7mX9G4GaiTQo3qPAt1tqv5X/7MvA6a+13xrb7AuAFAFJwzky7SagcN4fCIkiIooBQwOaNa9iwZgasa0Px87OKDFuaFYy1vj6U4UYGSZ8it5LUuMkrcwuLHJjr8t97XJ/UuSce7xoSA8nM2lkWezFz3UV27rmbUzcfx47b93CscuG2U6gpS11YZibrZMOYT3xr58hnrjh/24h1kVKSWUscx4XlKtxc5SfZ6Lx1yCUQvKJprYtiuaPpk0XGtlYPqdUjtA5RobNoHrk/jGOG/QH9xUWSJMlrVXYkM+sTIKkp2aPf+/Ubj/majMszz91SlBuiwA2XbDXrWBLWTk1Tb7aJgoBoYpJL3jAam73+SQ/ntFO38cz3XrvC1h9Y+dTVL+OZVxfHsKKi3Z8YTQNnAy+31n5TCPFOxmi+rbVWCHFMmmyt/SBOgdFKWmsticlohXWUybjpznnO3jxLQwe0m03XnxVFLg7CjuAUXXwzWkfz6PM4TUmGjv89sYIjgyFfu8W1o29fO13UTtavX8/i4iL9fp+tW0/lU//4zwD3yHq0ksz1+sipNkk8IL77EGsmO1x+3ql88tulZasuFj6jaKHgsvQxGO7sCpdRGIsVGVTi1izLsJXkkc2TKAhDliVkmSYIbNlVYGyROa0Wgo0x2DR3t62E1C1kSX53//o/j91d9HL5eafmx5nPGZcCclq61EA/FTTRzM/NkfQzmq0ua9dMEkUR177xxVx8VYn++JMv3wBfvoGrf+lsNm7ayNSa9Tz9rR8+yt7vn1SU7Khyf+pou4Hd1tpv5u+vxSne3bnLSP5zX/73YppMLtVJM8uKwMUbgVTIzPG3n/ewdayfnqHTdCxVtShAC0Zim2pNyluy6kPjs2ef+a8dfOEHt9GNh8xXuO1/uO8Q/cEij3/CYxnEPRCGU045pVAyoJg7dqxy9917kArqky10vcEdBw+zkFqedV7Jo/jRb9xU9OClxpBVMpD5dS3O72PX7SjipTRP+PjPVhcYb8HBKQiZY9uKlC54LlXOOuYSKiaHfsrif4bFZI5AKDaWBOGSIvfCK7r8vK0j759+9sk87extPO2c7WRhm54NufXQArvmhyzqBrvnBuzZv8ih2HDLnn1c98M7uH0u4ydHhty29xA333IXN924kzt+uIP/e/ULl+zv6n/+LnvvOsSeH9/Cx1+6dM7ZT1vubzLkq8DzrLU7hBBXA35u0MFKMmTaWvtaIcSvAi+jTIa8y1q7hKO/KqHWdk3LQX+mGwHTky1sZti0boa432ey06DZcIMhpJTFw+Qzby67KIuHbzgcFqiK4XDIMDUMjaTbG3DnwYM0G22+f+c+HrF+mhNPPLHgI2x12qRIWq0WaZry0c//w32+Zts2znL2OWfRnZ+n250nMNCfn6OuLNPtBp/+rx8Xn33OBdsLZfFK5q2ZX0w+9Z1buOL8U4q6khZlYqTALApBJAVWCGr1EC0l9WadKApoNt3kTHSQW09XN4oHA0ycFmSmvnifDlJiUyJahsMh7/vGypnF375gOx+7bmncduHJx/H1H99713vLmik2rVvLsDvH6Sdtdo2lFhpRwKY106xdO81vv+f/LPnen/36BUy12jSnp9DNOpe99Zp7vc/7IA8aZ8jLgU8KIf4HOAt4M/AW4MlCiB8Bv5C/B/gScCtwC/Ah4CX3tHGRp7ODHFbTajQJtUUKQ71eR0pNEEQj6JBxLGMVX7hUVDE3rdNo0ggjHnfyCYRaM3/kCK1Gg3qzQVir8akv/Ssf/OwXHFMT8PCtJ7Fl48Zlj3uy2Vj29wBhPlt5ZnaWdnuCKIgImx0GKfQSw2XnuGF/z37UKSOp+qpUES6Xn7eVa67fuez5Vd1P3zQLuIHqPktp3CIkfeHXlgCAag3NGEOamMKtLDK3Y8dWlSvPX6pkl5yzBeCYlAzglgOH+fcbd3D2hRcyH8egIuYyy679h7n1zv1c/70b+LNn/OKS7/3+F6+jvW4jhw7O01vocu3rV27OfDBlVbNgRYG2D1s7Q4Bl45op1q2bYe7APsdVEUCkA1q1qHCTRI4Orz4ISZLz4efU03HuRsZxDFKz0BvwTzt28Wunn1zw6WdZxv+7+Xaees42WjNraXQm+OC1o1bsqU9+PN+47tvs65Y0eNtPehhRFLFnzx6OP/54vnvj0pX+F88/j3+5/tsAPONXn8jCocMk/R7ZIObLN9/BJWdvJ1Ipf/vtHxXulm9d8fW/qlJ5pEeQW7BQlbhF35uncMkiRyokaNQUtaBOo12HIKLRaBXJl8wYBoMBaZKxOL9Ar9vNKf2GDBNDHCcjC9i7v7p88uO5j97GR79Znv9vPOJEoskpwjBk7979fPnG0nJv6DTYO7/84PUNnRYnnngi3/j+D0Z+/+RHPZw1E5OYYYJIMwbdRWYbITOdGltPehhXvu+zS7b1yd95FlJrLnv7Ncvu6wGQhyYLln+IbrpzP6GWTDRqNEJNTQkaYYRWoylwvwp7lwlK9EgV7Q45V/8wYbLd4Rnnnk6rHhBpRSOq0YhCLjr9ZOxgSPfwIdJBzAsvvWjk2P7vv/7HiJIVkhlmZ2fpLXQ5Z9u2kT+dddLDCiW78pJfR1sKRqkv33wHAJ/97g8xSJ71qFOKcxr/Xz1fay0fzy1a1fpULbmWEiEdpEwJQahcilwITaveQGF52hveX1y7auOs3x6UmExv6VZSshc/7sxCyS56xFYuPvc0Wus2cmh+gajZwOoaJ89MFp9vNFb2AIQQS5QM4F+/dQOf/tevcdzDNrM4TBBRjbsWFtl9aIFv3fhj/ujXH8en/mDUel3+zk+gmk0+97rnrbi/B0tWtaJhoV1z2b1Wp04oDe3JCYe4UIpQOa563zIh5SiZjOf58IlPnw7X0vU3TXSa6MASKkE9jAiVQIuMIJCEoUvC2HjA8MgRRHLPkzsjHWCyjFAqalHEcFgsecqbAAAgAElEQVTOXds8PcHWreUM6AK3mHcw/69HlMmChfkBWoeEWqPz5lB//D7z6N+DSzQkWZZjG8shi74LwFYWIyEUWloCpYi02/ZFV38IgIv+6H0IXCE7iqLRuppxXc/e6q8kL7zw4bzvP78PwNPO3goaMunQNtOTMwwHCYiURnVwfd5Z0NROwasTTpthwDlbT1p2X7/8mPP4y49/hkc95gJUqAijOvODhH2H55g/Ms+N3/5v3n3FU/jsVWWy5JI3vedBzUKuJKvbddTKPvlRZ7H79h9z/jlnoqRFWUOk8wkued3M5C0ugVT4Ebc+GWIzS5oOSVMqGTn3mSQHu0qhR+KRxGSEKkLYlDhJMDYlClvomVnaU5O885NLazTbTthEHMfcdvf+JX87ac0EZ559Dl/4l38D4Lee+ouYxT6DhS69bhebK1DcXeRff+Qs2wuf9GiGvXK4XWZHm1FhNPsYBIow73AWUACftZAEgUJI17fWbNZp1zTNZod6s4bQIRe9aWmB929e+2y6c/McPjTnXMcsxaaucz1N02Wt2Yt+7gze/7XS+vyvbSfQnOjQmZlG1RuOzAUYLPbYufNW4kHC93bt5eyTjidOEm7ctXSi5tZ1axynfn/AHfuXjDwv5IpfexLd/QeZnz9Cu95gMoCPfPMmAK76pfPYdtp2aNa57E8+sOI2HgB5UOpoD7pYYP/+/cyuW0Mzp2ZOE4OVtiiuCiEgL0C7h87BnpSwWCmx1gFQkQIrVNnyYqucGa4nTUqBxRJKibVDhJI0dIi1bsyQOXIXBw/t5xmPPZ+wXqMxMcX7P/cFfvtpT6U3N88PbrqRE9euITSGHQcOcd7mE6hHNTYdv55aTXHZLz0OmWYc/Mlu6Pf50g9vW/HcFxYWqOckQcsthp/6zi1cds7JRZbyivNPcWOuKDsKVE7EIwGNQOa4yyhq5BlGwdOXUTJws6iTKEJFiuFwiLSSxLiSxnJK9rpfPp+3/tNYO78IyKzCIAmVKhnKOppACQgV5520mW+PoWzO3vIw+v0+URCBdBNzptbMHFXRTti4gQUdcJcxDPs9hlbx6ieeQ81a3vjP34Z//jZvueiJfO51L+Dpb73/rTPHKqvbogXaPuqUzZywaS1bNkwTx33MMKFer5Nlri0G3HBAm5aJAknefpKDX7MsI8nsSJrffbaM5XyLir8eBTVcZRqlsSkGB1TOpEChGQJKS5SC3uIiQzRauzZ/jCGUwtGFJ136ccIXf3D7suf6q6eeUBzLP+bx2vN+7uHFsWW5lV4JhHvF+adQ0wFaO8iV1hqdMwtrIVHaod3DUDM1kYNyazV+400ru1Hvf/nTmZ+fZ/7QPI4n0iWR3vGV74987n8/+RxEUOPPv1QyQV18xqkALKZDZtfPolotmlEDXXP0BXE/5nv/cwPWOCC4t9QqZ95ysw50Abn6z+8tjdPG5SUXnklqDes3Hcd8t0uy2GVmcgLiISp1bUS1Zo3pDbPMbtzARVfff5qDMXloWjTAzf2Kam6QehiSDhwnhhs6nisBjjXKdz9jSu5Bj3aXErSWpKkphsZXM+LV8oD7/Gj4WqTKAZG7sFJaQmPIhpYMiLBEWgAJqU2RuPS5NIrMyBWV7NKzto4kan7j9JNoN2ojXQbZsuWJEit4zfU7eeGFp7l4R+ZwKiUc+as0hDoiCgK0KluCjqZkUDa3aq1Jkmwk8fSyx55eJE+01rzlS6N0a9f+YAeXnHEqgYDDBw4ylUkWaxkt0UKGAbVag43r13P3XfuxmcVaR7UnhKU/v0CoNSaPNzudzlGPE+BFP38uW2dmac9MMxCCJ/3Kr8Mw5t++9A+0pmeph4qFgweohwHDhT7dA0e49veez8Vv+dA9bvuBkFWtaA6nYBz1tVbI1GWo4jQhCBSxb55EIAQEeT+ZfySFtYgKCFdKiVVlh3boRmbmtSo3/ihNTYGFsNaCKEfl+pjIg3f9CpylKUoIUiNgmKDDEKUDjE3JMlPQCFx21tZi32lFcao9akIIQg2ZSJC27I9byfMQQvDs87dRV9ItNial5klPhSLFoCktt5YhQQgX/dnf3OP1r9VCrG3SXegRp92Rv737qzfysseejtaa/nB5lMxnf1AFTP+YS844icFCm7DTQkUNZmamMMOYufk+Bw4d5sZ9B9i+bpIgqiMDzVSrzZe/dwP8cOey2wd4z4ueje4eJkhTRK1B2JzgeW9/L7zvEwDc/HcfZcfNN7PzRz9icsMGxHAAwuSNptGK232gZVUrmlKSdrNBu64JpCQR7qGVljyBIIt+LRerjfI/esVwBW2VN14OqYWa4TDFinJErpcgn8Hs44lqSlsYV9g1lQK474621mJxc7bjwSJCKZSwaCtJKZsoy27ossMaSov5uf9xMZevoflShT+ncZS7EgLl64gYQh24dD5lSjnIXTOMg6mNW+uVJAgCer1BwdufZmXx3Fu01BpsunLRuiqf/YGbB33pWVsxQhHpgKkwoDPTYaYdMdFpFNnOmZkZNm3a5BRtTD75lquIul0O3PZDgt4cQRQRTs/wjHdds+Sz2572XL778b/mtlt+jNaSNTPrSbKM/mKfubk5Pn/VS7noje+5V8d/f2RVK5oQguPWTudEKwNkjkxXSpHGCdKSMyZZBNbRzFlHRzDOBOW6pxVaOwWKIkWSWdzkRlHWObRT4PwICGQ4gpt0/zNMjqhQgU+BK4LQWTkd1QrsobeK/vte/u6G27j0ES7d/5n/KYu3l52zFZ2XKVSeHb3mup08+1Gn8InvjHbxPvtRp+QlDhcH+jaYgiXMlgouhMMlKmER5t4p2sVXfYCPvuZyolq+ECkww5SXXLi9pMDLctLZY5BQSBAZZBkiztAoOijCSadoCsHaVg2VLHL1cy5lotWmEWiG3SOIwYC5G/7LkaYGkaOXi2oM9cqP8tnPfjmfu+oVZMOYXpZx+ds+wude9wKEXp5M6cGQVa1oWinWTEwSRQG9XpdGo0GW95NVFWk0FpNkpqzzFH1pxiCMn5DpakFK+ASIZ1osxRhcskVYbygxJs9MWoGUIbYyh0yIYMS6VdEbn/jOTi4980Q+8/3RLGNVwQCede6WvAu6HE3lLcjHv7XUfQqVrxP6mdol0ZCvt6mKxfTsxMdSPG21GvT7feqNiHQ+zbcrx8ZAKV54/ml84Pqb7tU2//a/S5fyygvPcDFzBjUiMpNSVxqbDmjIBrI/h7JDBtYltqQArdy5Ca0QtZDL3vGxe9zn09/4LgA++ju/5d7/lDOPq7pgLYRgYmYCK0WBMbRSFIXpAgVSUTgjSjRI2YHsB0s4xlxf5PavIR1x0Zz4JktHXOpIgmzxXohsxNI5C1d2IGdZRpbHLpefsxWtNc88e0txbs88ewvPPHsLv3X2Vp79qG1ccf62woUNlUQLh8xfjm/jyvNP5XkXONSJxzBKIVAoVN7BUNbc3DgpjIVM5tnae38PLnnjh2h3OkQqQguvvJb3fv2HKFF2fWspefH5px1tU8uKNBk2GSLMEGkNGndfJIZssIgwCXG8iMSNXErTlExA2Ihorpnmme+451izKvX8Ofq7N7zsmI/1/siqtmhSCGRO/xxFUZGeN9gCAFt8VkoymyFFhbG4Aqqt/q7aFOm7hcdjJUfQs/SY3Gf9z9Htuv8lSWmVP9GDgy8/Z2vRaVDEkPk5aiFBjBall70uFYiZR4IIIfIlAAILqrJwhFLlyR6X9hfH6C41GjUazVre9JlgheA1P/8I3v5v/8PLH/dwd6766IiRleRD193E8y84DWst772+rM+96glnIa0hzSn8tHRd9IGSdCbadLtdwubymdijSbFg/5TLWqvaoum8IxiqRdgSPFy1XP7BrirROLK8+lD6/87XD4q/+W2MYyir4tHtVb5EfxyOijoZgUIBBQfk+PYdEzA538koJ+XzH7N92etSPf6R/QhHaQBLF5XqqCZrj+22X/yG99PpdOh0OjRqNZR23Iu/+8SzylYcOcpGdiziE1qvesK5vPLx5/Dqx7mxSMPhEExKoASpMZyweTNWaeIk4QUf/gKXve3DfPq19x63+Nk/fHHxzFz8xw9+AqQqq9qiqZyL0KQpfq00lX4rjHExiHLzr4x1iA+bWxClFDZ1Vs6IfAJmnjyhAl8ij3E85bf0DytlfOfS7OXlkjIky+L8tSwsXRQFFWruXNmVjxEdjUK1TKA1fOBrN/Dix53O+/7TxTgv+rnTEVLyga+XMc+V559aPCQ+iwrgZ6sFUmFEbillpWVIiHzmWs5InBkuesfSvq17kiiK6LQzFrsBwkZk0jWHCuPR/JZ3ffUHvOKxZ/Cur95zcbkqH/u2iz9f+pjTqAUhaIVUgloQEgUBUjpOk71793DyySexZ88ePv2aK9BRyNOPMsBiXC750we8QH2vZZUrmgu8QY4kF4Ai02atRRhLkuX0clKS2tIVrKI9tNakec3Ku4tVl9FaWyQRioGDkGf0fHWtRLT7mGrUeri52tWCuDUZWjgqNqW8NcottBI87+dcvPXix52ef94d9wses720XgVczB/zKIOzF2fhynNXyhHRecaqdvO+UTBc+qcf5trXP5/Z2VkOHTpENkzo9/tkSZmUevUTz7xfLlmYJzmkdIqt82k4rU6rYNvavXs3rXaDS956zwmQ1SSr2nUsHhQpQZWsxV78TTXCZaCstBhhHCGndGxQNp9MKF0GZcR1q1oWIcQIYr1oFcnrc0q6SZxauXqVkhTbklIWDahFal16XntGBkZ4Eh3/3whDpPRITFUd6j7umlZfV/dfbW8xQuInhoKrLmghHQOwuu8ciBf/yYdoRDVmZmYKl9tfMyFsQfzzqic8glc+/oz7tA9rrRvJZfJRwFrS7/eL86xHERmWz77ut+/zefwsZFUrGmK0t+zoHy0fOCFc+74UwuH8GCUGHflc5We1XACUzZNjwYefsFL9rpSm4LKvWkmP7JB5nctTXCuJU1yWV6ZiAZDS/a9mWcdeg1Ou5frVlK2M0k2GCJvep1vh5bK/+DhaayYmJmi1Wq6hNF88wFlof32ORV5ywXaEVjQaDZo56dJgMCDLHI+nBxDIoBxC+VCSVX20VbfvaCnpIuC3OfRIOhZdbxF81k9rPTJxs9oa4z/nxf/O39DCeuZNlVJKjBVlTU4FOday3KdHpRhTJjiK/VQsqfusQAq/n3Jyi62c3/jPUpxba202UjsuuxMEodZEUcAl7/27Y70NS6RerxfckSYn82m1WnS73TxB5M7r1U88k7/8yvd55ePPwFrBO//zf4ptvOzC00eut1KuSyDSAYPBwFmveh2lFHEcu2yhhl6v56x9q8XnXnsFT3/bNff7fH4asqrR+yefsMm+/oXPIO73iXsLjk8wcVNLTDIsGJg84/By51JFhwCjqXzPClVRIj9gwtqyhFC1FCM9YUIt6Tr2YoxBSTkSv5ULhymUv9zmMlnOseyn00+vnJUGUFziReajeKMgcEPcJdS04wdpRTXqNU2zXueid3/mPt2Pcbn2969k7767EcLNO/NEPibzbNAU5ZPqefkF5i+/8n1e9YRHVBYQhVKOdkFISyhDglAV89iq8XOn0ykoHlZRvPbQRe/7m+MthxCiQLKXN2h0iEU1rQ2lcqkc4e+365MiVesjxlAdPmXvP1NmGN2A93HAb+HKGdfZrZSb7OIeLpuHfCUguVTgpecuKit+9TpUsZLevXXucsWVFS5uql4DpdQDpmT+mBwlgrvmvkzihl0oFhcdhd94GcTfq1fkk3aK8xACKd19CoKAqBZgkrQgBCI/z06nM1KjfCjIQ+MoAaxFWYkwnqG3wmshyrR/ta5Udc3AkKZDBAaBcQPs8oTEeOyjtXZjm/LZZJ4qYbxu5ZMiWonivxQWJSEM1EgSxL+uJluWZgvzuE86JH414eGOK8wvxWgrj892VpMxQlgHOFYuaaEjd35ffOXlD9gtqYUhnU6niNm01jSbder1CEtCGDpO/0ajhq9ZjtcXy/vjXtdqJX+I7xsEUGGAlYJWy1HE93o94ji+V/H7apD7pWhCiFcJIW4UQtwghPi0EKImhDhRCPFNIcQtQojPCDf8AiFElL+/Jf/75nuzj1HcoBm5Mfl2l6Tp/e+XQ1hUPzuumOASFAKDDDSyohzVYrZ/Xc2KeoWqKmwV/lX9X7WO1f1XH7jxmNFb42qh3ksV2zh+7ay1SJUncLTi19/xyXtz2e+VPOVN7ycMQ9rtthvOVysVql6v02zVCSN3XI1GrTgPf27+elWTVJ69rHo9rB1lT/bxdpjPt772DUsJVFeb3GdFE0IcB7wCONda+3BAAc8A3gr8lbV2C3AYuDL/ypU4Hv4twF/ln7uHnVQUBme1fEw2nuYffS9yV6yasZToPLVddRvBgYe1cOiMIpNoXfu/zovAsgibxFLlrCRWvPK51ZsCUyklaOH+S+taffx5jFiukVS9S3IoWdYTyWnzvBUfP3dwFAaQP9TCoKyjEVC1B77/6qlXv49+d5FIuyGCrXrLFbcnJ1FBgJK5RdWasFZD5j/971yW0iVyXBtTOSdcoIryjD/POE3ceUvBMHNjuKKfwtim+yv313XUQF0IoXEjm/YCP4+jBwf4G+Cp+evfyN+T//1J4j7a/WqcBStn5aoWTUlfDC3jmOVkuRS6txbF+0rJYNxNXW5749utkpmOH9PStD1Fn91ysef4ayEcsDovrSNxI3KFvvd9aMcql//lJ1i7Zg1JHBez5YaDARs2bKDWrKFClQ/RcMiZIFBFj1vVO6heD8+C7M/bewdBEBRW3d/bXq/HF9/00gfl3B4ouc/JEGvtHiHEXwA/AfrAv+AmyhyxtijW7AaOy18fB+zKv5sKIeaAGeBAdbuiMk0mf+9+QtFrpnMQ7rhCeasz6j7mSuBSBljLElfN47uklGQmKZRmPGGC8J/P2bfsaNKkOlbJT950CpCfQ57JdMrgXcnqlE+xpLOrOvN5nOrNofZlPi0GDCbPNrphFUI4PkcVOmuZLpdxeYBkYWGBZrNJP+67yT6BZm5uDoCJiQmGwyGCGGsFWmckceyyi8IWiZo4jnM4V1YooAd+V72GIHAlgGazWWRv+/0+n/vD52Fz1/U3r3ovf//Gl5BlGRe96UFlvrpXcn9cxymclToR2Ijj3f/l+3tA1toPWmvPraZJhclGYU5KYnD/M7uyFQHXASCopv49pKv8vEeWGOHG5UpbxlDV7TmXr0zvK9x/LSh++s8oKllQKQqMY3lsLitZHpfH3o+WG6pWObWmcJvGz9d3A7jvC5ASoRRSKzIlkTrkkrd/4hjvxr2Xi/7sI0hJgRZptVpoCY1amLuDhmYrIggFYaSpt+qEdQmqnHTqeWGEcPO1LW4giZTSKWplYdVaFzMBoPQKPCEtjFJE/Kzl/qT3fwG4zVq7H0AI8XngQmBSCKFzq1adGOOnyezOXc0JYGX+MC+2XMnGpUj5s/Tv4xfYvbeFhVCyTA8bRN4SI9x0Z+ljhgr6vZLWV8q7dqVijA+fGN3/aP3IWV8Hfhb5wIiqEnrL6JtAIXchKxa7cJ1EeX6SqttZJhjCvPj9YEsYhvTzTODi4iKdZouFhQVnrRLnKaSpKSySlBqtBVLnXfBSF3VJb9H8YlelRRfC1e28slU/4+Fan88TJB4o/rOW++O0/wQ4XwjRyGOtJ+GGEn4FuDj/zHOAv89ffzF/T/73f7P34u6HYR2taoDEytKPdw+WOwGDuynlRXXWQghbwJfAlDyQFanGOe4G++97hLwsXgcqQEtdeZhL6zieWayKT6Zk1o3INbjXS0foZiW7sLWFJUztUkC1jxXd6l+1mq52F4YhWmq0CvFtPQ+2POVNH6RZbyKEIFRumIcntm0EIWvXrCmU3sdbURQV1je1KVZaarWaUzKtHc2eMW7iKYyMskqyjKQybKO62PlhiT/N6Z9Hk/usaNbNRbsW+C7wg3xbHwReB7xaCHELLgbzZ/oRYCb//asZG1q4knhexnyfI7WvsePhjjvuGEk+jCRHhB8mb4uM3XJlAaASa5XWVAhRKEnVylX3MV5OqCZUxhMRUnorU3YFjCtDNR7zr/0qXy1gV1/7oRbe2o6TAD3Y0uv1iqL6wsJCYZlqtRrz8/M0m3WyLCkWtCgKRuKxMAyd25i7h81mc+ScfblnvJvDz8Dz34NR0qWftaxqCJYQwn7qz6+me2Q/8SAhG/Zws5JTyEyhhK7+kqAQK/rl1uYMVhUIFoxiKP21GK3dVZIrPnaimsDw46GcNfVKOr6fcSU0Jnc5rR9OUZx0YYESU4V3CSBFazdCWKnAAZ7z0blCWLSQhFq62FE5C1yrhUS1gEajgVKCi9/6NzxY8qU3vpSFuXmCSNPr9UiyrAAID4dDR3RrLcOciNXHZuV1F8WC4rOzUC5o3n10xfmgyFzqfCELgoDJyUkWFxfQOiy2f/Gf/HS4G3moTpMBeObvXk0YNItVbxzKAyWtTjU2Go+TxlP/Vakqgf+5Uircf3Z8ZfXDKLSUbvbYUVzU5coQVeuaYYuH0itzQUPgraQQxXxqIVzsKfNtyfyfz4T67z+YVu3zv38lv3LVexDCzcAW+fEtLi4WVqZqufzgxPGShj/O8QK8t5LVa+UzkJ6VLMsS5uePFMr6m298/6qBaK2Oo7gHUUoVc6mrcZAVApF3Wo/HR+MYRFhqVZaT6sM4TpXg3bzqvqqZSV9zqz4wyylTVal9nDV+nMsNUKzusyQW8rGne13lSvFpcyEE2dCgGUWUPJBiMz8jPC161GzF5a8eD1DpY1vaI+g9Aijv4/ii6WgC3Rzu5dpyfEp/NaT24SGiaCgHtdF6NCaCqrvnONyNWD7eEXlSw9ELKNQKD924xazeQCssyCpGoxph+VYVp5BCqMLCKTGKzfTHL6UktTmSxTra7yTJRgiDhHATcgJpi2ZWjxkUQhQJHpeQyQu/HjOZu05Z4mBLyfDYyXPurTztbR/jU7/zDOpRQK/XIwydRfJ1MOfia4wBLTVKKCbaE3ms6jCZ1YXKx7VFfJwkYAxRoJZZsEokkHcZV5s8JBTN5LWWZekMhGN/EqocFL9c5m8lGUeXLNn3Mi7fuJvp/za+qnp3ZxzvCCxZtcG5jKmFLLMjlimKgqIB1ccl48e03Ht/zaqDBB9MiaKIXq9HFEX0+zH1en1kv97199chjmMaORzLu5VVr2W5e+POp2RM9thI7476fX1+leEfHxKK9pzX/bHLWqjSb7eVLIaPjzz3oksmiMK6gCyY44RxWMnqTfRpfCgptgtrVbVotuwr89ZE2hK9Ma6A3iKO18m8Avj3ThEkw5QR9EbZaqNc0sO7WJVr491LXQXpSocCsdbmNOCCJI0f1Hjl06+4lOFgwOXv/lyhMHEckyRJjuQpld6DgavxsHcpq27guMK5awlKRbihiEGROBr1PtzPL1z1ogftfI9VHhKKBhRD7ErLMYoz9Iy5VSDxSlZqPLYCp6TjbMXjslJqebm0flWq6P6VjivDFt3bPu6SFgLpJo96l3e5GNPHbI7oddQaWmsxGVgBcRzz+f/93KOe432Rz/3OZcV88H/545cVdHtJklCr1UYstE+WWGsLCJVPilRLN+PxeFWqDbNevKJpSpqJ33zj+x/wc72v8pBRtEjpkeRE1SKNx1L+98slGcbdv/LzasQCVhMf4yvscu7acvsal3EF9Z+z1mKSFJOm2EqbiG/lr+L87m1Cp0SolNb6gYxdrn3ls9zPVzyDJEkIlRsDfPvttxdKBtDv9/O+uArKJXene73eiFX3dS9fyK4mSXwLTTGaqyqZoRHVihl5y4UZP2tZ9R3WhVSyenHs+BSrDZ9pmqJ93GPL1PhI0EwxUg2sdZjG4q17KDPvpvjdWuHo4ioxVXETVZ5JQ2Ar6I1y+mh+jJV7LpEkWUZqnfXKMkE8jElTsGmWj8XVBelNtdhtreuVG3V7l7feRdyXYy+zxGK0KuZF31+5+B2f4JNXPpXhcIgKAhYXF1xa3hoWDh8hMwYHudSoQDFMU0yWIQNdKF0URQwGbs63A0hrZI7/VNKP4MqHRgJypa5qJYlTT1prIQUlV0+xGh5CFq3ZaAOjD5RXJs+3X/3b+M0YTxGPb6sqS9tP5AgyXwhRKJP/X43Xqoog7SiaY6lVlQg0poJZ9IzGVeRJ9ZirVnY8S7qcZVVCooV2XPniAVzpM0MSDxn0eqSpIY6dS+iBwDYzRcOqt2rVBJGHTPnjrKb/q0kj/7P6O7+AjrvjUkoH63ogz/MBkIeORVMSpQKMSZGBHiF8kdZZK+9CKimWZNhWiot8kbcqDmhcKpwcgzORGWdhLYgVEiFCOMiXe2tI0wTPLgwekSJJEkNi8lG+WlRcphyrKRixlh4LWT1WX17w3QBClGgJcPEZUmKFgmOkAz+aZFiyJCETro7m40ytNdkgxkhReB9a62Jgo4smTRFTZSzv8gkhwOT8JznwW+eWDyAMXdFbybIg73+upvgMHkIWTdUaUJB/litfVfwtGhlOmMv4aj9q8Za/DNXPiHx/VZTF+Aq7UpxWjSELK5iVk2d83NFoNEZS3VW3F0Zxi8vFaeMx5Phnlkvk3B8ZpqkD/A4T18aSW6U0zQl10pThcFhYOc+WLKV0TFmpJRWjlAW+jubv17glA/JpnS6VX4ynUopnvOVjAKtOyeAhpGgXv+z3qIcRxgqMkRV2YjHSn2UAGegCwgSlkrmWGioxnCqQ9158at+Llo7lV+VDDnOMCp5hajkESvFgWJnvwxRID2ttUZAeJhmJTchMQj0MCKQqOrfHF5LxhUJ5mgXACkGSJSPHkUlBbLL8DhsH6pKWlJS/e9Vv3ce7UMrnfvdFJElCnKQM0wwrJHGSkGWlUvnjSeIhJs0webLCK1/V/au6w1VC1urvPY7VW/2iTGAE1gj+/uqXFdZutcnqPKoVROiQII4SxZUAACAASURBVAhIhkOqz7YQOTrflg1/WmtMUjYFOquiqQ7383/z26hChciTH0qVdStfE6sWm8fF8y5CzmkoCiaCEcmsd5MMWssi+VGu4ivjNt1x3rcMohCCp/3V396n71YlCCLSxBRunzEGi0/j+0K8KOpn7n0+MASK+QJ+AfSx3HJwq6o7XiW09a6mx00aY7joj392gyyOJg8ZiwZgAl3y6OeynBtV5W+E6oOajnzP/6y+rrp5VWtVLZqOSzVFXX1ItNYEUuXKV7qe1toR4HC70cwfFodZrO5iuQRH9W9FsZbRrgPvjnrLUhQsHqBmjae++Z3OTqbuvxuyWhaMjYFs6CgLJCXDcxzHzmvIr21WcaHHEyPjbnoURQjhUPz+WntXu/r91SgPKYtmpHKMUnb0ofLJEFgKmRqtO5XYOW8V3PtK5s4rXSWNnuE6mf3qCwaEyxdW9+mUsDwuIyQIt02LS/MnCFLKmCMIAqJQF3PgllquPLbKf+0pCzKcK2tctgRjzUg84z8r827wJMsQShXbeSAkNTJHZpRucdXltdYilKt/2Uq8VXUXs3y81viC6T/T7Xap1+tI6ax+ta2mWNjyxXE1K9pDyqI951WvxyCRYVkjqa743q2r3lBYmqWrKt944sAjRHzW0Dd6epeuCnb1TaTV7ayUcLC28llKPpBQOSjRiC8MIyt59fgzHPjY2NF9W2sdaZCtdgqU1vieitz3RaQc5TUZt9auhjjaUQDO2oZh6MoAgPX0Bf51lqHyRa3VahUFbJ9J9tbL3wdfk/MZztUoDymLBtCsNznSW0TrEJOk/P/2zjxesqq699+1z1TDHfpehqaD2i2KIDhE4CnOY5yeCYMooFEkOEIcnsYIooAioNFn4qygODwVo4jGZ/T5SByfQ6ImKs4CARGB7raHO1XVGfZ+f+y9z1C3bk90N33buz6f+ty6p06ds8+us85ae63f+q1CF2iXMxlmiaqHiwV3s+NvzAqy5PcFi6EUh5+z9klhLV9RO7YiCGoJbLEKmhe5g0vZz7xrWK+Xg0oxRBuCyPEwKtt40Ytn2Krv66+jcT3+aa5CtHs4+AJXlK0gEHHVA7sZLREEEX2zQCBCrq2Fz7WGcHGQyNRcPWMMczNbKIzQbrdLhcudRTR5gcYQBQFZ4flDKjC19wRsdURIYTJOuOjdu/XadrcsO0XLXBufLJ0F/I1YPcWVfcw2vuNv1kJrm4/DRygWJ5ANMtKNqQdB6muf+hiCIMDoCg9pxLpW2riAgaksABK49Vgz8VyWhmCHOIxb9OKbcQSqQsTXLVcURSiprj0rCloOD7nbJPCWHSo3vOlOl7u6dZUxBp0VFMagJCy5G4uiIFJ2bW1r9ACliGvMxiJCq9Wqjm98Qenuu6Q9JctgiE2JgzYStEECoigA9KJuMv7m1ba2pOQHAbfGAXA3v//c07j59U8lGo2LQlKRw0DNpTTV8euUcEYEU0YPh6baPh2IlLsGGVbw6imuOh2yOEFL6CgMdMOF9VR1xq81S5iVIlQBYiAOLSg5SnYfW3FRFBgVUNSS9sOvxr7GVARKeYFQIEWGyQsCKu8jNzZPWmRFGVX0+TffM80jZ7Is22cjjXVZdhbNP93iOCbrOahPreylDpXyIiIYPTrJPWy9hv8f9SQadgUxBtNQTqd45ceLAxwexVAGAoaucTDIuewL3xg5B69+6kPLUShRje/leU4QRq7QEoqiqgMLAuHkt3xk5DF3ReqBibqMyivWO/JkWWYVKU0tkFhqSeqwCvnHsWXI8vtnWVZGHuM4xhQFJ71x33YZvWzXoonIlSKyXkR+Wts2LSLXishv3N8pt11E5J1iG1n8RESOqX3nDLf/b0TkjF0fcoVuNzaDvEiB6m7LMPK+LqODBNuekroSjwpYDFcG+3ViWuQNNq/hc9ddyDRNl1QygLd+6bsYQtsnTqprqV+/D6f70Pmo5hh1uerlZ/KxF5/GVS99Nh9/8YlL7leXPE8XrYmHr8+/RARdYNMApmqT5ZtX+Aeof2+VuChb+PrjT05OMj4+vqSS76uyI67jR1jMQHwu8K/GmMOBf6WijnsKcLh7vRB4H1jFBC4EHgI8GLjQK+fOigSWjiwKE7QJQCKUy695V7EeHfSihdIl9D+PxQZWN7/9ka2bV0bOqHMIV9LgF8QsutFFxDVKrHWQcecuapE4GzApoHAK4qKH25O3fPEbyPgEmXNV/asoCsuelRcuOWygdGOXDn+f/o4P89z3f4rT3/UJCkn4xAufwede+sxt/xYOLWOMbbqRC3YuHIezn1ejnZcgDqGCDXbUqb79A8HPYx2I7QEISZKwadOmsrxGKcXV579ku3O1L8h2Fc0Y801g09DmesOKj9JsZPExY+V7WNbiNcCTgGuNMZuMMZuBa7kT9OFKQRAKcRySZwOyfjOsO8rKePHAV8rIYzP5vSPBglFJ6+Gnq3+SD+f16kntLMvo9XoUhWkgLESEFz34Ptsdx2Wf/sqi9V9pGZU0zq+UArW0otXljPf9I8++/DP05np8/uVLW7fXfPFbNSu5mD9SG4V2IOZ62sNbWG91/XfiOF7kMQB0Op0SdtVqtUqE/olveBenXLLvr89g14Mhq40xt7n3twOr3fuykYUT3+Riqe07LSoKybVGKVusGYTxImoBb4E84WmdHiCUxTjCupQBFWNfjZKZoWM1oo4iftXkoF6KDKtApXLj1yumpmwFmbb4zaIwGA1ZZkjaXZ5//NH85QOP3OZ8rF+/icGgQHSAaNtTGqVsXV2gbKI4gKTd4tS37Rz3/rM+/L+ZXb91m/vYB9ow43LTwvs5qyrIoUit4vk2vGEYl25wGIaEYUyurVJ69EeSJIDilIvfQ29+fqeu5a6WOx0MMcYYqUMr7qTIUDeZYTntFa/jw5e8EmqsVuDgN2UuzK8VnHujKuqz+g0/nNT21sSH12Gx9VrKmvnveTWsymw00ERLKKUoXNBmMMjQeo7x8XFHR2AfJpJFJKIwQcqZDz2aPLNjy7KMIKy4HgG2zM2SJi0mxruE4gMtNmeVRCGtTsKqgw4E4C1PfxxFZruvXHzt97f7ezznqq/x2bP+O0//0D8v+uyCJxxX9gTQKIxUpUt1EVypjn+BdWdzIKqCOLqwJTZpmhIEhtAFPQauHVRRFC7SzLKxZF521aLd4VxC3N/1brtvZOHFN7lYavsiMSO6ySySIe9uGN1R37bU/8P7+33quaCdkTqZT3OhvhiA3Mx5ad7//37MhvV/YH6+R28hYzDIbN2YUcRRizhqlUGBdrtNFCZlcaiIkKYp8/PzbNmyhaIwhCokdpa+2+1ywCGr+e/nv5P3/tVJKBUixlYuvPYxx7Aj4lH3w2IZuXyPgub1NVxITImwNzb3YfcLqgBQEFhuFJ3llkJPW06Rejvep7/x3Zx00Tt3aMz7muyqotUbVpxBs5HFc1308Xhgq3MxvwI8UUSmXBDkiW7bLkuJrBeDUUEDObBobUK1uK5HAv2+ViqOkB2NZtXXgv47gzwj05aqoFRcpRzCpBJPthOGMWccdwR5UbCwMKDX79PrpWS1Zot1ohp/XqDk0AC7vtFG6KUDxxRsQ/oZQkHI5eecTjbIGPRS8lyjgDiIufgJD+WChx+70/N/8VMeat1gU6DRpTXzMuw+VsGmJvwtcBHFwaBXBkP8K3OQqiAQnrnMLNiw7Eh4/yrgu8ARIvI7ETkLeDPwZyLyG2z7pje73b8E3AhcD1wBnA1gjNkEXAx8373e6Lbt2qBNMzlduBZFQdzkPKyHloetXT3sPyzbK46sK2n9xsmGqrp9lLG+byNwYSzLVRjY12AwYGFhgTzPSYu8XNMUhY3U5UWKNjna5I2wukfFF0VBlmVkRcF8r8fk5BTGGDat30Ce5sxs2YrWrtDU2Fo7Edu95dLHPGTbk16TS59yfHPelLgHx/Y9geG51Q63WP9uCQRQilbLBkg+e8HZOzy+fVH2+SYXo7Z/5E2vcsWDBfkgZdDv2xs5txzs9XWYtwahcYWDenEOy+MGvRhjUKbCMS4SF34v0wWmRhVXVBhHi9jXQOiibv6JLRR5VQxqK48Xj9lHDuvjAl/7VZGSiogtGg2EMAgY77SJ45hut8vk5CTGFGy5Yz3ZICUIItt4ot+3/CZZDlqj+ym5yTn3q9/nk885iS1bNhEpaLVCWmNdnvGhL9i5P/NEZgbWVdUUKKRE6IMLQNUeRCJVTwB/fd4VDIIAjWX7qiuX1ppVq6ZJi5zueLdMUAOc/Ib3bPe+uQtlySYXyw4ZApATYcygkXPxbkcJv/K4Ovejhw7sW/geZGaxcnnRWjvExTBJj5XyxpFquw9Xoy370/AxywCLCFpbJVRKoY3BaO1IRp3iOiiYqT0w/LX59Uzp8CrXUzvwNyqlFQyCAD1I2bx5M6BoTU7SarWYGhun3+9j+ikmy+kN+oStmHRuAYD5EKamDmA+GxCMdXjGFZ8B4JMvey6pLiz+UCg7wtTnqajVAfrr1nXki6nITjOHFqk/XMbGxuj1evR687THxhtpklOWAdRqKVl2WEeAqN2yjf1q3SFFBAkXt7D1T0/f0M6LUWLD38rdBC5qaQBRCi26Yc3qSXCf/G5YGO9GqlrnTrG4vUxn5CYnd70BLNrflKUuEgYQgkSCim3faf8KQtvs3Yi45oViETFK4SL5SCj2GIEiSFol5Grj5k3cdOtvWRj0rUKGIZ1Oi2C8SzTW5fkfvYZoYoxV09Oc/dlrmb7H3Xnv805i9aF3Q01NctC6dQSdMa75mxfyj696PihLH9DpdIhbLVqdTqPxu4hUOE9VrSeH3XYfZSwRIy7H1m63XSdQV90eGgfFsnVoV79+eSSnR8myVLQzXnURsNgd8TIcOPA/5rb2GRWBrIu/GYbR9PVE7Kg1Sv2cw+vCRvAGSvSGEcFD0hs3adgkFPXul3IKF8ehDX8Hitxo8kFaHVsZwjgkaScUoulMdAF43vs/yXOv+BQAz73iU5z9kc+Rpilhp80Jl72HU9/xYZuTdD2mfV1YHMe2IDMMy/EasTwmoaglK7nrc+QVtJ/3yclZSBeQSCCEpJuU5TBaWxrx3UkstLdlWbqOUFOUJaKEixbXI7hByv91s3ngcGRs2AWsW7K6NSstWblGEYqiieMDFy10FdF5oRsPAQ9LGi7tJ/SQsUpJgyAkLPksNd2uVZ5ikFoMYZZbohu3xglDay2NPeiSc3vK3zVbHZ3ytsvL91ef+yIL6HYofB9+9+P0D7VRtN3+/8YDJ1DYduf2WHmeMz09Ta/XY35+nqnpg0pX2K/TlqMsS4sGQK2X9HDUyksoqszJQLObSt0qbcuyjerAYtEdRRlV1LVjeTe0CoQ0z+eVU8SgHW1eGIalG+utkRbItMUteldzMBhgKErF8tcdRTZfpgzoLCf30UddlEWsWd5DFyntdpvbbvktSbJrTL4qCnn233/EFtsGoJKYoJUQdzuE7RbJWNeyETvOxWEp3cqgcqHjOC6VV0TYunVrWTVdr6I+8cJ37dKY9wVZtooWBDEBsujHVEo1OrzUk9A+l1ZH2NfD/0sp7XA4v7R8rvhQauepW7hh/ox6SsKSwVa9l9M0LfkQy5zcYFBaNqtQzX7PIlIyaHkFzvMco20nlzRNq/ovE4JRrL9jI2vXrm08BD5/ySsB+McLztnuvJ988Xv49HkvKPsCeAxiFAS0Xa1bEEUEUUSYxBbwPST+Gvx8+XKhslWu74pT+32GO4AuN1m2imZqSuHXLKWC+Kelaw5fX5hDTWHcNo/6bxZ8uvNQIe79+9ICDiHyq5xZBfStYy59QMZiJnOUsr3PgthWWxdFhohxARTLU+85Kr1ltcETy0TccpbA34i5samFLM/LxoYaTZ6n9PsLFDojadkiysFgwGcusop14vlvB+DUN+5Y6Lw7PolGkbS7hK02QdLCRDE6jJAoJmolEAaIUyBqFA3+IeLHbTdaQtXyN1QVUaoCnnnJB/b1sP52Zdk+JiQMYNBMSnupBywCfFTRIeOprd+GktlKqTJHVif68Qjzurs5rJI+aa6NgNjv9Ho94laL3GgbYAhDoiAgLXKMVGsUcrvYz7Q9T5HaNYuHJRljo4xVuiJw110gEjXGWC838duzoqAtQpZZ1IiRAaJsr+1Pv/GvWVhYYNX4qtKa5nnOsy6xbL//6zXP5zlv+WDjWntZShBHNiXhijE9xUAQBAwGPbphSDoYEMQRZm7edsrJC3wK31dO+7HaNWTQaCzocY/7gyxbi3bmeZdUaIRanglohPiNqiKS9QigMaYkrvH/190+C1amESApw/ruGGUhpwrQKEuPLTDQGfNpD6KQXjooo2ZgIVp1S+xvKhGhP7/g8l8WFByGYRm2Vw7FEQroQYpSFlVSNip0rliRZqSDAR/87i+54ju/qKBgbm0nYnk24jgukfFhGDLIBwRxgFGG+b5Fxn/usv+xSMkATrnwnaVrF0VJaVF97i5MWhgVkLQ6hFFC1GoTOuubJIlzA+1vkTh3s8GlWWvP9MzLrthNd8xdK8tW0WDHQMD1tVE9ge3Xa6OOaW9MXTbOGHUOu832HhtkmcM4GtJCkxtQkUWde3prH0m8+eaby2PWa7IAut1uyeRVP59XJG9h4zh2SJCAVhg5hbPI/qIo+OD3frVorH4NVJWb2HKUk877e/7yTZc3qp0POuggPn/JK5idneVjr33+ojm65uJXIEpxww03QKDojI9hlIXAjU1O0HJ5NuXaT7VaLeJ2q5GGUS4nEUQRUZLYGocgoNPplA+eKIq4ZhnnzuqyrBWtvi4T1WyGUA8hD1OfwdJ4xsXRQSmrl+v7+O2p0RBUbV57c/Pc+JvrbT4pDKtgBPbGXrduXeMYItJoyuEVyaLzhVAsHZ1oywHpAwWBCgmUInBBAo//HBUlzfMcnVoSo9A4JPwF72rMySmve2cZpJidnWXe1XtNjo03jvW/3/qaci175H3vS5Ik3L5+PRpI2m0yV+FNYJUo6bQZn5ggctdUpybwv5F/GAVBwMTEhMM4tha14lrOsmzXaACpcqXzYoMAPpKndUpuwLMEa2NQUtVweUtiEe7VOs7CqnzU0a/PbHG+sjuAMW49FqB1YQMf4otEDVMTkySddumyLSwsNMYcxyGiDSkaY2j0dotUQCaGSAkBltW4vNHE9tYODMShIhaIRYGpuBJFG+Io4vkPPZIPfveXgE1xxKEiigNC5VrwaqvYz3zDextje8brbfj8i2/5G4wxzMzPMcgzPv66F5Zu5qZNG+l2u8z0e8xt3MDhhx/O9PR0qeTGGFqtDjfeeCOHHHIIuTEIBWNjE2zJMsgLVODaVAUBKsDm9txvMxgMaLXHHDIk4aSL3s3V57+IUy5p5vaWmyxrRQuTNmnax+S1BLRSKEK0u5kEi2usJ6IXkXvWktP18pqKg5HmvhpyLF+IMYbcrSmSJGGh3y+jbD707a2MLWAMUOX6zKCMlDwhRsR2rVGWbyQiqOD/CkQXxGFUdpwBW9gaBgHEMXEUUQzSUsnsdUAriolD5SjMNae8cds37dNe8zYArn7TyzjggAN47EsubHx+zaWvYGpqivFVk2ye2Up/foHf//73HHnkkdxyyy2su9e9Wbt2LUEQkKYpgyxlodcjjCKC0HHlF2kJCyvn2qFioigs3Vhg2SsZLFP0fl3e+7qX2FILXVgqgCwnN03GKeUqrbXWjWYQpeK5swyv50BTFJn7X8iNI+8pNJnL4S0sLKCikEFu+T/8+mfLli1MT05YazXEO9nIxRmx6HnHmhw4a1pfp/m/SaCIg9Ay9IprQN9u0el0kDBg8+bNzG/ZSr/f5z3f+Tkve+T9Ge+0GWsljI2NMT7RZXJqFSddujjAsbPy2ctehRbozy/Q6/WIWglpmjLe6VI4jka/7ivSjH5/ATG2egJTMS+rKCQO7frVr1HjqEVRFMsRRLwken9Zr9HABh3qMrxO83wW9XZKdTgULC5S9GLXZqp8+Wppm9eyrpKEQUljLQ6Nr5Rienq6QZNWDwTUq4Yt5UBAEkXEYVhiBSMV2Joxh26JVXUdoYRlRbdPcqe9Pu04odtK6CQxr3zU/VnV7ZAkEVESk7Qiol1Y83zm4pcu2vZPb3kVxhh+9rOfkWUZ7Xab7sQ409PT/P6O25mfn+e7//5vZcS0wDA+Po4KY6IoIYpbxJ0uhEFZxRCGYRnqP+midy9HJdumLH9FC9qLtjVcQAOq1k7WVyUPYxqXOHrt1YRj1Y3t3NwcaZra6JqPCFIpl0eI1LGAPpATOCoAEVslHgS2oYMPGpSoCRXYxobGkDsUSZ7n6Dx3PaRzVKFpt7tMjo8zvWoV7aRlk9phRGRsW90TL9m5cLlft9XlhNf8T5Ik4eijjy7pFfJBSpqmrFmzhpmZGR7/+MczPz/P/Pw8rW6H9uQ4hxz6J+hAldfmQ/31YNNyxjNuS5a9omlsXsjnyyS0/ciUCqGwnIMFRakYPt/kgwcBtuzEKONKY2xzPS0VKr++tgPbRDCII9IiZ8OGDYgIcbvFoN8v11++vqye6K6H+i31QtV3uYyw+SJKU9hjAboo6Gd9iqyg3++zkKX0U6toJs0ItMAgpcgKTGHKmz+IQlpxQjtJELc2+uyrz9ot897r9ejPL/Cci9/HKa99uy1lwTB14AF0J7rcccdt5HnO+Pg48/PzbNy4kbTIkSTChAEqUhb54jCr7U6HVrdDWuTbP/kylGW/RgO4/IKXMhjMQwEYUy6klVEUxcAWQGau/slFx5RSmNz19VLVmg2aYXILZ3Qhf/x75dZrhrm5OfpZSqQcsLdRBWCPH1B1taR2DLCtfP16BSqrKe59kbr0gK4qv61FDMElwsMgptONy4R0IJVb2o2t0llFgyS0ZSdhEnPy2668cz8QcOnznsYDHvAAts7N0ksHKKVYWFig3W6zsNBnYmKCDRvuYHp6GlBs3bqV6bEJ2knEYNBDtK27M0poR/YaTn79soVbLblG2y8U7f2vfyVZOgNF7hTNVTs7iyYimNzfsFVpS1WZ3UT1+znJc8sfWZLGOMIbLZYP3lOhVe5gOW6n6EtXcYu4lkraoAubJijzdq4lcJ5XvZ51rhs1Xjb66QC5KkIF0G4ndFqujssBj+NAESYxcRCSpn1rUd33VQAqDInChFPf/Yld+IUqufL8FxImlnlr48ZNjI2NMTExQbfb5Vvf+gb3uc99SMKIwaCg3U6IBXq9eSg0oqwVDoOAk163PLj0l5D9i8pgWKJOmzybRRvB6Cp8b2q4OnF/FVUftQrD2DyeL4MBjdY1bKRzC7Pc3vy+KXqv12N8fBytqxoyEalhKX0AomparyjIjbFlLVlW7mN8qN808ZW23AVL1Sb2QeGtnk8t9OZSQoRWKyZqtSw/SlEwWOhh4pg8L+j3U8I6AFv3iYIBH3/BKSRJm2e8e9f6W4s23Hzjf7H2sHuWAZLZ2Vn6/T7HHnssMzMz3HLLrWRZwWGHraM91gU0edov6R6XuZJtU5b9Gg3grPMusd0uledqz2yiuWapPJrfo+g9SLeeQ6v/9e+9m2dqPagjZUjCgEgJrShkotsh6/fKAEhluapACjg30bmvJsvJen2ytCrSNHmBzjy5UBWIMUYotFAYoZCqPq1wr/d8/+dlcGQwyMgy+xDRAgP3vtcbuIdGQBi3MBKhtaIwIQv9lLm5PjMzc3zsrFP49MuetdO/wZmXXcHrP/LPxCimp1eRZRbjedttt7F+/UbWr19Pp9Ni7dpDedbr/4E0TUnCqIRbjYLD7U+yXYsmIlcCTwPWG2Pu57a9FfhzIAVuAM40xmxxn50HnIVdMb3MGPMVt/3JwDuwtL0fNMa8efhcd0bKBgnG2OicSBnQGBm6H4JgNZD5jVzaYvHK5NHxdfygOISIxUsOk7sqsiwtrVhFg9BkTPbvi9xXFQR4DuTy3EM4T2tB7fh85YBSCtGGVismSdoURUYURbS6Y2zevNnm7ERQYUSWWfd1YWGOXhry8Rc9k8742E6v47TWzM7Osnr1aorCrtEmx8ZZc/BBjHe6zMzMAHDCa95afuezF59TFs/ur7Kr3WSuBe5njHkA8GvgPAAROQo4DTjafee9IhKIRd++B9tt5ijgdLfvnZbLX3s2b37xKQiqZFgaJaO212/S4fxSo75tCWmQ8piholBTUdD5v1l/QNrr0+v1yNICXVAy93qlGS7Jqb/XgNIKpZutqF7+0AdgjCmLI309nGghihKCIMFXJMz1+tW4BII4KvlK7N8AkwuzW2e5/dbb+djZO2fdlFKsnjqAwew8kQpYNT7BrbfeWhainnzu2xZ95+mvfw/RMi/s3J5s9+qMMd8UkXVD2/5v7d/vAae49ycAnzLGDID/EpHrsW2aAK43xtwIICKfcvv+fGcHfNXrz+KW397Epg2b2LywwDe/9TX+8IfN3O/oo1m9erW9+apx4mKFzRtWV2scu10tWhP571tlMyjj+DqMKXn1vXJlAxttyx1FgSms9bKFpe691vTme2XnSpNZXGJZLSAhuQGjQorSKoJx/JK+YryqPnAPAq2JghCNIRAbVIjjmADKFIMxhjCJyYqCUIf0ej0sl2RWMXuVXB4BEoRkhV1vzmyZ4aMvOpW4FXP6O7a/fgtEmO/1bDP4IuO2224tgdJbZme49HlP47Uf+eKi753w2uVJ9b2jsjseI38F/KN7fyhW8bzUu8YMd5MZSY0rI5pcvOkvn8jWua30e5ovf/W7DApNLx3Qbk2Qa82Bh9yNn918OwcesgbyrBGd81aprlxLyfCabVjx6mh7rbVNFTieC601pihIC4N2aA2l7I2epZ6LP0BrhRYhDCNLE+5SAKZshCHlX39qEcE47GZVlUCpZCKC5AXiconKQOAQK7agMixf825scRyXkdd+f1AWYkatxCpkaR0Nc1sXGKzfzPuerq+JugAAHJFJREFU9ed0xsc44wNXjZy/z1z8cvp9azG3bt3K1NQUBx10EFprZmZmeN7F7x/5vate93xOf9Odh4Xty3KnFE1Ezgdy4M7FhmtijLkcuBxgzaoxc/J/uy8/vf5GAtWmlxUMCGwJfdxlgC13L3JhoA23bpjjHgd2mggOXeEZ/Y1bKU+z4bv/63NeddfRuoJ5qVAYy8voc2U+96YIyQpDnmvyLOOT//mLHb72Z93/SEDxyesWG/oXPeRYsmxAEscEYmkQUIoC6/9LYKkDdJZShIpQWRqEuN1ChSFxklhcplIWk9luI9r2ADAqYNDrWfS8zhifnCDtZ4RhSL/fZ5D2yfIMM2cJf648+3S6E+Oc+uaKHetzl/0P+v0+vd68o4kL2LBhA+OrJl2ifulH3P6uZHAnFE1EnocNkjzeVHfutrrG7FA3mboM8px5o4k74wyKkJSU9X+YpZ3ZVrW9Xs8+eWUeY4Qf/vJ6Djr2CKIoKK2RQMOSjQqCDFsuH+Rw11l+5rfXFatan7nQv4sa9no9PnPdzTsylaV88rpfLvnZB/7th43/X/WwB6PNgDCwrmlRFARiOVL0ICcrNNPjE2RaM54kSKBYmJtjMJ9hyAjjmFYc0+/3y2vT2lJEhGFMHmq0qyLwWESKnP78Av00ZWFmng+e82ymDj6IQjQ6s5+ZvEAC24EmiQIoLH9JtzU+4qr+eGSHEtZujfbFWtTxycDbgUcbYzbU9jsa+CR2XfYn2La7h2P9oV8Dj8cq2PeBZxljfrat864a65jHPuh+DLIB/VyxevVqPvWlr3D/+9yL3LmCv7zhpnL/e91jHU849gjuvXoacEzDRV7CrYYjkArK3NdwpHG4gNIHN+pMVXXacWN8Xg3SNKffS0lTmyf73G9uYm/KO054Knds/B2TUwcwPnkAZ3/i6p36/sfPfh6BaiEq5w/rN5ALmKKgKDLStA8FFBQoFTK1+kCSJCDDwsc2bdoEhU2kj493kcjWpwGMT0zw9OWL+tgR2XVkiNhuMo8BDgTuwPaiPg9IgD+43b5njHmx2/987LotB15hjPmy2/5U4B+w4f0rjTGXbG/Uq8bHzDFH3Iv5/oBUG7L+gG63ixaYmZkpE88L/ZTf3WFbtB12yCRn/fkTCV3pReAYpNQitxHEBUvqn+VmNN++t2CeLgAqSnIbpnf/5wV5rm3JjsQMFnqA4hM/3um4zz4hf/ekR2NEeM3/+TrvPPlp9Hvz/O2Xv8bFj3sYGIUaiwjjCBTMDfoW8Kxzx8kI4xNtJienEBHGV01y2sX7BwfIErJ8IVj3O/wwwjDkR7/4dbn96HvfsxE6T3MbMbvp1t9z38PW8sj7Hc49Vo9D7ho9aD1S0YYtWhnUqO1TBxZ7RfP7lC2VnOtou9X4tV6A0SGDwaC0eFf++3/u+UnbB+RlD7s/xhRMTU3SHUsgUIw5ONb4qkmefsF7t3+Q5SnLU9E67ZbpDTWC93Lfw9aita1aBhvKvv6W3zHdbXHQ1Cqed9ITKOZscrReluLp5MAG4P1nixPVPpmsSiBvbrTjAFFleNxbN6Us/lG07elsz2vzZP6h0O9nNt/nJAxDPrQXle//vPIcbr/9dp73yc8u+uw/334p1113Hc/9cDOiePULn8Mpl+8aLOuVj30QnU5Mp9ticmqKsbEx4rbl71/GwOFtyfIs/Kw/BO6z9h6Nz7yrNj8/z+bNm+3aANtLudc3/ObmDWTaNML09arreoDD7+NfdToDe646Dd1iBl2/XxAEBHFUEp/GcUjSighCIQilUfBZ/96dkZcfd/9F29536klc+MjjF22/7bZbR5L3fP7ss3jQK1+7SMmAXVYysPOc5YOy9a9nY9Za8+kLX7TLx12Osk8rWn9QkWf++ubfNj77w+bNbJmZISuKErsIVilmelv5529+hzQryh8WmjjG+v91VIcN11taBK0tT0e9Y4yVZp2af1/1crZIflvnVlgm4jBAIk0QaEKBD/37f3LF95qRxFHy18c+cJufB0OZwUuf/Dg60xMUSnPhox7c+OzMqz7P2NgYV535LD7+3FPL7Se+90PbHce25JKn/Rl/f/pf8Ma/eDxnP/RoznnY/dwnvj+AmyMlLPR69B3V+R+T7NOKti3xN7hPxHpaN2u5DIURvv2jX5Hpgl6WDkUIq3ZL9TA9sCisb4ytldJSS3rX1nTeyvnvDFPd+W1REhG3WoRhAsGOZ1XCOOLlxy/uMf3qhzyIcx92HG//wU84/5EP4dUPeRAA2WDA/OysTVQrxRse3vRkTv3Qx4njeLeCeP9k7aEc+cCjuM8DjuSeR9ybNYeu5rwnH0cniUtex/ZYF2NMWTWulOLqN+wfnI07Ivv0Gi2OIpPt5JNvvJWUeMPxVsSpT3gk7UQTiWuuQIXCD6QZ0ocmnbhNdFuOEP8E9oEPWz/m68ZyRj2zKotZoVP0wDBICz7w7R9s91pe+fDjsZz8Bf/w3e3vP0re8PDjuHAHzrU75NPnv4icnNnN8/R688xt2QSBot1OiDpdut0uohRjY2NEDh6mteaUC/cbfpDluUbbWSXz4m/wuUHO13/4C7JaQMKXzyhHF+cbT/jXcD7Nc1k0LYAqLWGd/NRbwOEON2VltQhBS5F04a8fcywvPv6YJa/hVY94SImmGNX+aEelwHDZYx+2y9/fGXnmJR8gQDh49TSrpiaYWrOazuQEEic2+urmNMsy+v1+2fP7j0H2aUXbFakHN7TW/Oimm/mPX/++EdDwbuPw2stbwvr/fn9YvCbz7ZO8K+TdRE+15vfL87zcx4hBgoAoTEo84bC84qHHla6pD7jsqkxOTi4ivLnytJN2+Xjbk1Mv+SAFhrhtmYbb7TZhGNJqtUo3v1GdEO76Q2Q5yT7tOu4olUFdpjqWltrLnAuonPO0RzDWCiwvolIEIuTad/rMS8UMRqBE/PtqLecgT1QRymoNV1khrX2f5ibPf6n0uaHoa/LclrAobI4uFEUgYSNCecm/fGPnJ/AulGsuegnzfRv40K70J3Y1e3EcN7qsPvvSO89dso/I8nQdd0XqVdV1+efv/Jh5XYXmS9fQK8qQ1apczaJh1bxUIOQmRjIMLSmOX78t5faJGHSQE7Qg7ioIs1KpRFxfaDeuOn//cpGTL3pfSbXn6eW8m+0DJEs1GtkfZb+rttvSa/bTmmi3mOn1uWnTLNfdeCsPudchlmJOQrTYZLTNDri2Rw6NL64QMlSeTsBgS5iVpQIHDLYXGpZ+v5Ff88Q/RVEQhnFZiV2XUIWgLPdkFCboTLsKAAUUFI6PMhpxM57/uIeX5/JyyVe/zbmPPp43f+N7i/a/K6TRGiqKbGtgY5nDgiAgiWOScNda/C432e8fJ3VL9I0f/ZpBoSgKKenihtH7NpoIReGbZtTpEJrJap9P81JPjtfXWBV1XbX/sKUrJEciRRBHEBauOfzimrhyfwc/q/9/7qMfjgSKCx7/CC570mOXnJNPnHEa15yze/gdtyedTgffHy4MQ7TWdDqdMsWwVFef/U32O4s2LHODpoX76vd+yp897AFIVmCUDWiYLCurkaGKMBaFbbYu0iyXGaZA0DovizyBRX99J8sqYEIj/6YM6DwFUbZJR+S7fFYV3q99/MPLY9abdBi3zS4NC4yGQgnnfeVr5TW/9amPI0kSXva5LwMQxAGr16zejbM8WhoBoqIgUIowCMhdsWwcRZy0/4T2tyn7XTBklBwytQqikNBoIq154GHruPca2zzPRvRs7zCvQD4B7qkC3FiqpPbQnBljma3q1sxLRRFgpU6k2tjH2CLMoigc1kOhHb2CkoBYW4fSP/8VFkeZkpdW1x7D5grDMLRcjyZElCGJXOK43aY73sKIHecz3vnR3THFS4qHWvm58etNH4XczygM/niCIaOk2+0SC7TjBAkDrvv1zykCD/ytyFS9gtRRJqNIevwabNhFHLZ40Gyo4b83nEJQSrkG974NLiAGpSCKAoJQQaTQkcKEApGyNWKRb8GriOOQVhwSh6EtRAoAHL05mkGRopVBIstt4tEun//bBmvEbheP76yvXX1aZD9Tsm3KfmXR7nHgdEkEU3cDjakqrZXJicyA4+9/JGORAwErS3ng9x22Ql5Ghf239Zlx1suYgpLGewmpN+XwxzHG0OvNE8cxCwspnc4YvV4PcGu8oKK7o7DK05+fozM+QSQQa2VbIYkhigI6cUKn02HiwCl7jrKvtfCMN++5EPvVb3iJy1EannHR5VzzprM5+XX7ZanM8iyT2Z6irWq3yjBxpKTE0UHlopUWyymRMjnjiXDMEesIjCYMbUg9lKZijQpsjFY0HyDJGv+LCKaMNNYdvsViUwHVes1TJljl087l8mxaOYXrzVbfL261uOWWWzh4zcGItpYu0IYkCC1xqxg6SQsRW/E8ceAEaI3EEaINU502Gtsm2K75BIXmmZfuWddyP5P9ixJ8uttptHO1Nx2Awiifz3LIjNxAUfDLW24D4LDVB7B2ehJMBgQUhUF0hjjEgl+8j3ILfVK7SdqjLSMVXil9KY4rKJAcXUvt1QHHdYWtM3fVXU2tLWF2FHlrGxIGdl3pG1kYY8AU3GPNIRAolJsDAiy0zBjiMGAuTy0Hf2+O+dvm3UNJ2+YcRW7dXFHEsU1hJNEfR+h9b8iyU7S1h6wuF9XDNV02lF6VxXjo0TCb1eTkpN1mHNBXLCZQiSC1m3x43TWctxoOeniXs/F3KF89qtatfqz6OUZ5G1Y5DCIKQSi0LltFEQQQDhW31uanCtQYckuoglJVUrwoClpd2z8at5665vwz0QKnvOnD2/llVmRbss8r2kET442yjvqiuq4ESvlWCZX4BGmkQo6+972YnZ1FKCAIyQtDK/QdPDUmt0/0UNTIyKA/t5e6wtWLKetIk7DmNtpxV8GRYT4SJVXIvl6gWjt7CckaRrf4fYsCKAriOGwe240jCAK0VJyQuD5tYWgpF7rdrjuORoU2AhrHISdffOfq1VZkH1e00BGA5nleWief/MyyQalslmYxbES0lFLMzs5ijCHuxOR5ahu1a02E5WgsUh/xk9JCeh7T3PGQRKqirvMRyOG1mrWkdYqEmhhffV0pmHUTqyS4oAjCyLFrOb4RUyyybB6gPLzdb/Pj81CnMBDXzLAam8/L2Tmq2L2CKCTudsjzFKXEkeso+vtpY8C9Lft4eN+6OJqANM8ZOJq3Ohq+Ir+xIfqxsTHbfbIoWLVqFWNjY2U5SydpkQ9SwjAub0ygRNtb98m4ntWUXVuG3TnPbT+scMORyspy2abzts0v1BEl/vhpmja+57vI2KptVeIu68Wq9UoB/96PVcnifF691k5qOMT7HnEECnjY8ccTSECr1W0kxZeTvOBh972rhzBStqtoInKliKwXkZ+O+OxVImJE5ED3v4jIO0XkehH5iYgcU9v3DBH5jXudsSODywuNMTl2LVE9ra1VsYGJ8fFx24jc3eQ333wzmzdvZuvWrWzYsKG0aoPBgE2bNtLvp+SDeZRI1UrXAYd9lFKyApXbQIr18BZDr4a5+kMVolA2hK9CNKrh6lWQrQr6VZsbCzLWuTtuRQ7kX8O5N2/N63m6hrKpkChuEYYxStlAj29Aby21VfKJiTF++7vfESUR3/r2t1g1varx4PBdcpaDnP3oP2W2EE5/0D3v6qEskl3tJoOI3B14IlAn83gKljD1cCx//vvcvtNYPsiHYMlVLxSRqR0dpHdvoAp917F+g8HANlVIUw4++GC63S5JktBqtSiKgtnZWdI05dbNs7Q7EXHiQ/2Wc6O+HvPKnBuLFqk3LBymMKhHKcWX3bhJDWvWsmkNF6NK6tv9MaHCQ9b/1qkSvFTtfI2LOEIchy4Sa+coSZIGkl5E6HQ6bh1blLlH76aHYUi0TKKOl7/s2bzgUccykwsqiElVi6cdfY/tf3EvynYVzRjzTWDTiI/+Hvhbyq5cgO0Q8zFj5XvAKhFZAzwJuNYYs8kYsxnb9mmR8i5x/lK5PBreMwUXrhlDGIbMzs6SJIlL8vYYDAZV55bajXzjhtmyt5htMWujdMrQiNYNK8AwmcwosO+oJLcvFYHRJTP1cP/w53X3tplbq8boP7NrrpAoSmi3u2Uz+jC0vB0iNs/o58sHmOyDRZeeQpZlDTd2ObiPX/rq95gZ5GTu/iCKkWjfssS7FAwRkROAW40xPx6CJx3K4q4xh25j+6hjl91klIgt0PR0AVQgWmu9Diy/p5RtUu7Fu4FZllGkGRsXLMf8Y45ah9Y2n5RrTRQEJYOWUso+NYIm7MqXelTWSdnwulRunXHjbVgtXXFGBkFAXhRomikCZZo0CH7/+hrJQi6lHGO9gtsrooc6edcxjmuVzMY4VIqiO9ax39V5GY20Sf9mp9Onv2H5NJ74/E9v4AlHHEYcK1qtGJQhihJOOfZorv7hNlnn95rsdDBERDrAa4ELdv9wbDcZY8xxxpjjAvcUH8Yauv1otVplS9l6xNErordqXskAxsbGyg4zS4k/Xz2AYGnrwE/ZcJDEu3x+vSVScYf4fWyXlaixL1DiH4dzdPX9/PV5C1l3I/0x/Zx4l89/z0YQQ9rthCRJSuvmLZy3kq1Wa9kWYv7Lr25koZ8yM9cnCiK7JEhiTnjAfbb5vXe94sy9Mr5dmdV7AfcEfiwiN2E7w/yHiBzC0t1kttVlZknJioINM7NsmJkFmsnesXaLzRv/QNrrl8Sctm1Qj16vR7/fZ8PMPJvm+41jhsb1M5PFayYRIUCsldHNSKOnJai4H0fjHgMx5RrNu371chERKd082zLJ1sb5HttG2WYRBKoE/hrlFTKq8ZQIcWz/1hVZKQgCaWA+LXdHQnesTZwo2p2EqJWQdNqNHtKTk5MAnLbMYFePPmItAF//zW+RMGJuoU8/S+nNzSNJzIkPXDoS+dJ/+DBXXHzeHh/jTiuaMeY6Y8zBxph1xph1WDfwGGPM7cAXgOe66OPxwFZjzG3AV4AnisiUC4I80W3baWm327TbbVQU26SwW7SLCIPBgFs3bmb91rlFldZetPKN2O2Na0ZYEmNMo1um3+6jjcPWZjgo0nT7bJDExhurEpu6ZfKWxW+v/y0tpqtE9h09h5XXw7Hq3/HXEUUBnU6nVPJut1sqWLfbJY5j2u0uvd7gTjFu3VXSGwx48Lo/AeDa637F7Rs2MrewgIpCa93CkCcdtXbJ77/g9Zdx+fnn7NEx7kh4/yrgu8ARIvI7EdlWae6XgBuB64ErgLMBjDGbgIux7Zq+D7zRbdth2Tg7x6b5hdJ69Xq9kmFJHAZR7cC6vS1CgUdyVIpTL8q0oXbP1181G8yNJtMZRgVlSYubo+rmlgAjAdTC/KEKCSSoKUYwci3mE+1e6XzgwiqkReB7sSH7wFk84xLt9thBEOFJguqKHwYxYdBC65ww9Nav6goK9uGz3CQM47IHA8APb92AUfYBVhQZSSch2k6a4oWX7NleADsSdTzdGLPGGBMZY+5mjPnQ0OfrjDEb3XtjjDnHGHMvY8z9jTE/qO13pTHm3u61y8C5MAxdHzJdJqt90GPUWm7U9+uKMfy+vu4CSvctN7b54bAb6aUe/q9L/ZgKVSocNCuQ6++huW4rrVsYlC6lf9WjlZYUSJOmKUqpMohTf5BA5YInSUIURZx+2UfKfU68YHlVPD/7mCNGrre//sub+P3t68m1ZpBlRK02T/lvR27zWO9/9XP31DCXX5nMPVYfXN4okYMK9bOULMvI+gPWzy0sOo6XB937btxvzThRFBAp+4IRbppTDm/VjLK8H1pcIwsCW14jVU6rnl/z/3sJhhSw7tr5/+s1cJU1lTKsrwzWktb2M8YQKSkfNvYJXhDHLZfqKGz+TFmXW2uH1A90qYDPuKhqj7sc5aSj784dA8N3rv8dAA9YcxA/ua3sjcnD163h0EMPpcgG4B4+//SDPRaJ3H8qrGdnZ5mfn7ctkMIIo6QGbdq2HDy1yt68pirwrFsvb0F8pNFaP0Od+tvnsnwAIze6kQ5YZIUaVlaXqA8AlMKIQyIqVa7j/DYfkpcgsrCw2nh90INA2bVIK7EVCFGIUYZ+1i+bKnolU0otqh5f7jJQEalrD3zs3VcThMKfHlrxoXz7ptvoF5aVWmHX9Ccfc9Q2j/nB856/28e57GY6jmOiKKLdjlGKBovv9hbyk0mGaKuRAdJwp4bLbYYpCLyL5tdqdQWqR0OXQnnUZZTrWrdyi74z9EDwoX2/pqu7n/XEtjGmrML2QSNfHCsiPP2C929zvpaDDLKMH/xuIw9cc0C5nh2Wm2/5LVtmFyiMazjSafPU+x+25DGff9kH+cAluzd7tawUrROoElpkTFGuQ/zTWW9jiXbU3Q9AYdH5mc5sU/WaInnxOaYqshiUwYtQbABCtEH38xJJ0gDrSlX9XAVIBBrrsNBZrEo5qvNbELFFdtTD9qoMjmhsQafvHYBSjdZVURS4h5CdryzPLbtWAEEoZFnBMvvpl5R//eUt/OndDiJuJRgBJSGGgqMOqhB+P751I1//5Y2opAXaooHiVosn3Hfdksd90flv3K3j3NfXaBuAeWDjXT2WITmQlTHtiPyxjWmtMeagUR/s04oGICI/WGqBeVfJyph2TFbGVMn+4T+syIrs47KiaCuyIntBloOi7YuJnpUx7ZisjMnJPr9GW5EV2R9kOVi0FVmRZS8rirYiK7IXZJ9VNBF5soj8SizRz7l78bx3F5GvicjPReRnIvJyt/0iEblVRH7kXk+tfec8N85ficiT9tC4bhKR69y5f+C2TYvItWIJj651JUi4MqWRJEm7cTxH1ObiRyIyIyKv2NvzJCPIo3ZlXmQXyKN2SurcGPvKC1v0cQNwGBADPwaO2kvnXoOtrwMYB34NHAVcBPzNiP2PcuNLsAWxNwDBHhjXTcCBQ9v+DjjXvT8XeIt7/1Tgy1j2h+OBf9sLv9ftwNq9PU/Ao4BjgJ/u6rwA09jyrmlgyr2f2p1ztK9atAcD1xtjbjTGpMCnsMQ/e1yMMbcZY/7DvZ8FfsES/CZOTgA+ZYwZGGP+C1uL9+A9P9Ly3L4c+qPAibXto0iS9pQ8HrjBGHPzNvbZI/NkRpNH7ey87DJ51I7KvqpoO0zmsydFRNYBDwL+zW36a+dyXCkVXd7eGqsB/q+I/FAsgRHAamMr2MFaFA9b39vzdxpwVe3/u3KeYOfnZY+PbV9VtLtcRGQM+CzwCmPMDJaj8l7AnwK3Af9zLw/pEcaYY7DcmeeIyKPqHxrrA+31XI2IxMBfAJ9xm+7qeWrIXTUvw7KvKtoukfnsLhGRCKtknzDGXANgjLnDGFMYYzSWpsG7PXtlrMaYW93f9cDn3Pnv8C6h+7t+b47JyVOA/zDG3OHGd5fOk5OdnZc9PrZ9VdG+DxwuIvd0T8zTsMQ/e1zE1qZ8CPiFMebtte31Nc5JgI9yfQE4TUQSEbknlqX533fzmLoiMu7fY8mNfurO7SNkZwD/VBvTKJKkPSGnU3Mb78p5qsnOzstuI49aUvZkNOpORpOeio343QCcvxfP+wisq/ET4Efu9VTgfwHXue1fANbUvnO+G+evgKfsgTEdho3Y/Rj4mZ8P4ADgX4HfAP8CTLvtArzHjek64Lg9NFdd4A/AZG3bXp0nrJLfBmTYtdVZuzIvwF9hAzTXA2fu7rlagWCtyIrsBdlXXccVWZH9SlYUbUVWZC/IiqKtyIrsBVlRtBVZkb0gK4q2IiuyF2RF0VZkRfaCrCjaiqzIXpD/D5zoyKHtuo/eAAAAAElFTkSuQmCC;" vertex="1" parent="1">
          <mxGeometry x="320" y="190" width="218" height="252" as="geometry" />
        </mxCell>
      </root>
    </mxGraphModel>
  </diagram>
</mxfile>
